<svg xmlns="http://www.w3.org/2000/svg" xmlns:xlink="http://www.w3.org/1999/xlink" fill="none" version="1.1" width="16" height="16" viewBox="0 0 16 16"><g><g></g><g><path d="M13.5,8C13.5,11.03757,11.03757,13.5,8,13.5C8,13.5,8,14.5,8,14.5C11.5899,14.5,14.5,11.5899,14.5,8C14.5,8,13.5,8,13.5,8C13.5,8,13.5,8,13.5,8ZM8,13.5C4.9624299999999995,13.5,2.5,11.03757,2.5,8C2.5,8,1.5,8,1.5,8C1.5,11.5899,4.41015,14.5,8,14.5C8,14.5,8,13.5,8,13.5C8,13.5,8,13.5,8,13.5ZM2.5,8C2.5,4.9624299999999995,4.9624299999999995,2.5,8,2.5C8,2.5,8,1.5,8,1.5C4.41015,1.5,1.5,4.41015,1.5,8C1.5,8,2.5,8,2.5,8C2.5,8,2.5,8,2.5,8ZM8,2.5C11.03757,2.5,13.5,4.9624299999999995,13.5,8C13.5,8,14.5,8,14.5,8C14.5,4.41015,11.5899,1.5,8,1.5C8,1.5,8,2.5,8,2.5C8,2.5,8,2.5,8,2.5Z" fill="#B3B3B3" fill-opacity="1"/></g><g><path d="M5.5,7.5C5.223858,7.5,5,7.723858,5,8C5,8.276142,5.223858,8.5,5.5,8.5C5.5,8.5,5.5,7.5,5.5,7.5C5.5,7.5,5.5,7.5,5.5,7.5ZM10.5,8.5C10.77614,8.5,11,8.276142,11,8C11,7.723858,10.77614,7.5,10.5,7.5C10.5,7.5,10.5,8.5,10.5,8.5C10.5,8.5,10.5,8.5,10.5,8.5ZM5.5,8.5C5.5,8.5,10.5,8.5,10.5,8.5C10.5,8.5,10.5,7.5,10.5,7.5C10.5,7.5,5.5,7.5,5.5,7.5C5.5,7.5,5.5,8.5,5.5,8.5C5.5,8.5,5.5,8.5,5.5,8.5Z" fill="#B3B3B3" fill-opacity="1"/></g><g><path d="M8.5,5.5C8.5,5.223858,8.276142,5,8,5C7.723858,5,7.5,5.223858,7.5,5.5C7.5,5.5,8.5,5.5,8.5,5.5C8.5,5.5,8.5,5.5,8.5,5.5ZM7.5,10.5C7.5,10.77614,7.723858,11,8,11C8.276142,11,8.5,10.77614,8.5,10.5C8.5,10.5,7.5,10.5,7.5,10.5C7.5,10.5,7.5,10.5,7.5,10.5ZM7.5,5.5C7.5,5.5,7.5,10.5,7.5,10.5C7.5,10.5,8.5,10.5,8.5,10.5C8.5,10.5,8.5,5.5,8.5,5.5C8.5,5.5,7.5,5.5,7.5,5.5C7.5,5.5,7.5,5.5,7.5,5.5Z" fill="#B3B3B3" fill-opacity="1"/></g></g></svg>