<svg xmlns="http://www.w3.org/2000/svg" xmlns:xlink="http://www.w3.org/1999/xlink" fill="none" version="1.1" width="32" height="32" viewBox="0 0 32 32"><g><g></g><g><path d="M12.99927,25.9990638671875C12.99927,25.9990638671875,11.49927,25.9990638671875,11.49927,25.9990638671875C11.49927,25.9990638671875,12.99927,25.9990638671875,12.99927,25.9990638671875C12.99927,25.9990638671875,12.99927,25.9990638671875,12.99927,25.9990638671875ZM11.99939,26.9990638671875C11.99939,26.9990638671875,11.99921,25.4990638671875,11.99921,25.4990638671875C11.99921,25.4990638671875,11.9992,25.4990638671875,11.9992,25.4990638671875C11.9992,25.4990638671875,11.99939,26.9990638671875,11.99939,26.9990638671875C11.99939,26.9990638671875,11.99939,26.9990638671875,11.99939,26.9990638671875ZM6.00012,26.9998638671875C6.00012,26.9998638671875,6.00031,28.4998638671875,6.00031,28.4998638671875C6.00031,28.4998638671875,6.00032,28.4998638671875,6.00032,28.4998638671875C6.00032,28.4998638671875,6.00012,26.9998638671875,6.00012,26.9998638671875C6.00012,26.9998638671875,6.00012,26.9998638671875,6.00012,26.9998638671875ZM5,25.9998638671875C5,25.9998638671875,6.5,25.9998638671875,6.5,25.9998638671875C6.5,25.9998638671875,5,25.9998638671875,5,25.9998638671875C5,25.9998638671875,5,25.9998638671875,5,25.9998638671875ZM5,14.4422638671875C5,14.4422638671875,6.5,14.4422638671875,6.5,14.4422638671875C6.5,14.4422638671875,6.5,14.4422638671875,6.5,14.4422638671875C6.5,14.4422638671875,5,14.4422638671875,5,14.4422638671875C5,14.4422638671875,5,14.4422638671875,5,14.4422638671875ZM5.32726,13.7024638671875C5.32726,13.7024638671875,4.31816,12.5926038671875,4.31816,12.5926038671875C4.31816,12.5926038671875,4.318159,12.5926038671875,4.318159,12.5926038671875C4.318159,12.5926038671875,5.32726,13.7024638671875,5.32726,13.7024638671875C5.32726,13.7024638671875,5.32726,13.7024638671875,5.32726,13.7024638671875ZM15.3266,4.6105838671875C15.3266,4.6105838671875,16.3357,5.7204038671875,16.3357,5.7204038671875C16.3357,5.7204038671875,16.3357,5.7204038671875,16.3357,5.7204038671875C16.3357,5.7204038671875,15.3266,4.6105838671875,15.3266,4.6105838671875C15.3266,4.6105838671875,15.3266,4.6105838671875,15.3266,4.6105838671875ZM16.672,4.6105338671875C16.672,4.6105338671875,17.680999999999997,3.5006468671875,17.680999999999997,3.5006468671875C17.680999999999997,3.5006468671875,16.672,4.6105338671875,16.672,4.6105338671875C16.672,4.6105338671875,16.672,4.6105338671875,16.672,4.6105338671875ZM26.6727,13.7024638671875C26.6727,13.7024638671875,27.6817,12.5925338671875,27.6817,12.5925338671875C27.6817,12.5925338671875,27.6817,12.5925338671875,27.6817,12.5925338671875C27.6817,12.5925338671875,26.6727,13.7024638671875,26.6727,13.7024638671875C26.6727,13.7024638671875,26.6727,13.7024638671875,26.6727,13.7024638671875ZM27,14.4423638671875C27,14.4423638671875,25.5,14.4423638671875,25.5,14.4423638671875C25.5,14.4423638671875,25.5,14.4423638671875,25.5,14.4423638671875C25.5,14.4423638671875,27,14.4423638671875,27,14.4423638671875C27,14.4423638671875,27,14.4423638671875,27,14.4423638671875ZM27,25.9998638671875C27,25.9998638671875,25.5,25.9998638671875,25.5,25.9998638671875C25.5,25.9998638671875,27,25.9998638671875,27,25.9998638671875C27,25.9998638671875,27,25.9998638671875,27,25.9998638671875ZM25.9999,26.9998638671875C25.9999,26.9998638671875,25.9997,28.4998638671875,25.9997,28.4998638671875C25.9997,28.4998638671875,25.9997,28.4998638671875,25.9997,28.4998638671875C25.9997,28.4998638671875,25.9999,26.9998638671875,25.9999,26.9998638671875C25.9999,26.9998638671875,25.9999,26.9998638671875,25.9999,26.9998638671875ZM19.9991,26.9990638671875C19.9991,26.9990638671875,19.9993,25.4990638671875,19.9993,25.4990638671875C19.9993,25.4990638671875,19.9993,25.4990638671875,19.9993,25.4990638671875C19.9993,25.4990638671875,19.9991,26.9990638671875,19.9991,26.9990638671875C19.9991,26.9990638671875,19.9991,26.9990638671875,19.9991,26.9990638671875ZM20.4993,25.9990638671875C20.4993,25.9990638671875,20.4993,19.9989638671875,20.4993,19.9989638671875C20.4993,19.9989638671875,17.499299999999998,19.9989638671875,17.499299999999998,19.9989638671875C17.499299999999998,19.9989638671875,17.499299999999998,25.9990638671875,17.499299999999998,25.9990638671875C17.499299999999998,25.9990638671875,20.4993,25.9990638671875,20.4993,25.9990638671875C20.4993,25.9990638671875,20.4993,25.9990638671875,20.4993,25.9990638671875ZM20.4993,19.9989638671875C20.4993,19.3358638671875,20.2359,18.700063867187502,19.767,18.231163867187497C19.767,18.231163867187497,17.645699999999998,20.3524638671875,17.645699999999998,20.3524638671875C17.5519,20.2587638671875,17.499299999999998,20.1315638671875,17.499299999999998,19.9989638671875C17.499299999999998,19.9989638671875,20.4993,19.9989638671875,20.4993,19.9989638671875C20.4993,19.9989638671875,20.4993,19.9989638671875,20.4993,19.9989638671875ZM19.767,18.231163867187497C19.2982,17.7623638671875,18.662300000000002,17.4989638671875,17.999299999999998,17.4989638671875C17.999299999999998,17.4989638671875,17.999299999999998,20.4989638671875,17.999299999999998,20.4989638671875C17.8667,20.4989638671875,17.7395,20.4462638671875,17.645699999999998,20.3524638671875C17.645699999999998,20.3524638671875,19.767,18.231163867187497,19.767,18.231163867187497C19.767,18.231163867187497,19.767,18.231163867187497,19.767,18.231163867187497ZM17.999299999999998,17.4989638671875C17.999299999999998,17.4989638671875,13.9993,17.4989638671875,13.9993,17.4989638671875C13.9993,17.4989638671875,13.9993,20.4989638671875,13.9993,20.4989638671875C13.9993,20.4989638671875,17.999299999999998,20.4989638671875,17.999299999999998,20.4989638671875C17.999299999999998,20.4989638671875,17.999299999999998,17.4989638671875,17.999299999999998,17.4989638671875C17.999299999999998,17.4989638671875,17.999299999999998,17.4989638671875,17.999299999999998,17.4989638671875ZM13.9993,17.4989638671875C13.33622,17.4989638671875,12.70034,17.7623638671875,12.2315,18.231163867187497C12.2315,18.231163867187497,14.3528,20.3524638671875,14.3528,20.3524638671875C14.2591,20.4462638671875,14.1319,20.4989638671875,13.9993,20.4989638671875C13.9993,20.4989638671875,13.9993,17.4989638671875,13.9993,17.4989638671875C13.9993,17.4989638671875,13.9993,17.4989638671875,13.9993,17.4989638671875ZM12.2315,18.231163867187497C11.76266,18.700063867187502,11.49927,19.3358638671875,11.49927,19.9989638671875C11.49927,19.9989638671875,14.4993,19.9989638671875,14.4993,19.9989638671875C14.4993,20.1315638671875,14.4466,20.2587638671875,14.3528,20.3524638671875C14.3528,20.3524638671875,12.2315,18.231163867187497,12.2315,18.231163867187497C12.2315,18.231163867187497,12.2315,18.231163867187497,12.2315,18.231163867187497ZM11.49927,19.9989638671875C11.49927,19.9989638671875,11.49927,25.9990638671875,11.49927,25.9990638671875C11.49927,25.9990638671875,14.4993,25.9990638671875,14.4993,25.9990638671875C14.4993,25.9990638671875,14.4993,19.9989638671875,14.4993,19.9989638671875C14.4993,19.9989638671875,11.49927,19.9989638671875,11.49927,19.9989638671875C11.49927,19.9989638671875,11.49927,19.9989638671875,11.49927,19.9989638671875ZM11.49927,25.9990638671875C11.49927,25.8664638671875,11.55194,25.7392638671875,11.64569,25.6455638671875C11.64569,25.6455638671875,13.7671,27.7667638671875,13.7671,27.7667638671875C14.2359,27.2978638671875,14.4993,26.6620638671875,14.4993,25.9990638671875C14.4993,25.9990638671875,11.49927,25.9990638671875,11.49927,25.9990638671875C11.49927,25.9990638671875,11.49927,25.9990638671875,11.49927,25.9990638671875ZM11.64569,25.6455638671875C11.73944,25.5517638671875,11.8666,25.4990638671875,11.99921,25.4990638671875C11.99921,25.4990638671875,11.99958,28.4990638671875,11.99958,28.4990638671875C12.66257,28.4989638671875,13.29837,28.2355638671875,13.7671,27.7667638671875C13.7671,27.7667638671875,11.64569,25.6455638671875,11.64569,25.6455638671875C11.64569,25.6455638671875,11.64569,25.6455638671875,11.64569,25.6455638671875ZM11.9992,25.4990638671875C11.9992,25.4990638671875,5.99993,25.4998638671875,5.99993,25.4998638671875C5.99993,25.4998638671875,6.00032,28.4998638671875,6.00032,28.4998638671875C6.00032,28.4998638671875,11.99959,28.4990638671875,11.99959,28.4990638671875C11.99959,28.4990638671875,11.9992,25.4990638671875,11.9992,25.4990638671875C11.9992,25.4990638671875,11.9992,25.4990638671875,11.9992,25.4990638671875ZM5.9999400000000005,25.4998638671875C6.0656,25.4998638671875,6.13062,25.5127638671875,6.1913,25.5378638671875C6.1913,25.5378638671875,5.0435099999999995,28.3096638671875,5.0435099999999995,28.3096638671875C5.3468599999999995,28.4352638671875,5.67198,28.4998638671875,6.00031,28.4998638671875C6.00031,28.4998638671875,5.9999400000000005,25.4998638671875,5.9999400000000005,25.4998638671875C5.9999400000000005,25.4998638671875,5.9999400000000005,25.4998638671875,5.9999400000000005,25.4998638671875ZM6.1913,25.5378638671875C6.25197,25.5630638671875,6.3071,25.5998638671875,6.35353,25.6462638671875C6.35353,25.6462638671875,4.232343,27.7677638671875,4.232343,27.7677638671875C4.464523,27.9998638671875,4.7401599999999995,28.1840638671875,5.0435099999999995,28.3096638671875C5.0435099999999995,28.3096638671875,6.1913,25.5378638671875,6.1913,25.5378638671875C6.1913,25.5378638671875,6.1913,25.5378638671875,6.1913,25.5378638671875ZM6.35353,25.6462638671875C6.39997,25.6927638671875,6.4368,25.7478638671875,6.461930000000001,25.8084638671875C6.461930000000001,25.8084638671875,3.69033,26.9566638671875,3.69033,26.9566638671875C3.81599,27.2599638671875,4.000166,27.5355638671875,4.232343,27.7677638671875C4.232343,27.7677638671875,6.35353,25.6462638671875,6.35353,25.6462638671875C6.35353,25.6462638671875,6.35353,25.6462638671875,6.35353,25.6462638671875ZM6.461930000000001,25.8084638671875C6.48707,25.8691638671875,6.5,25.9341638671875,6.5,25.9998638671875C6.5,25.9998638671875,3.5,25.9998638671875,3.5,25.9998638671875C3.5,26.3281638671875,3.56467,26.6532638671875,3.69033,26.9566638671875C3.69033,26.9566638671875,6.461930000000001,25.8084638671875,6.461930000000001,25.8084638671875C6.461930000000001,25.8084638671875,6.461930000000001,25.8084638671875,6.461930000000001,25.8084638671875ZM6.5,25.9998638671875C6.5,25.9998638671875,6.5,14.4422638671875,6.5,14.4422638671875C6.5,14.4422638671875,3.5,14.4422638671875,3.5,14.4422638671875C3.5,14.4422638671875,3.5,25.9998638671875,3.5,25.9998638671875C3.5,25.9998638671875,6.5,25.9998638671875,6.5,25.9998638671875C6.5,25.9998638671875,6.5,25.9998638671875,6.5,25.9998638671875ZM6.5,14.4422638671875C6.5,14.5119638671875,6.4854400000000005,14.5808638671875,6.457269999999999,14.6445638671875C6.457269999999999,14.6445638671875,3.71367,13.4310638671875,3.71367,13.4310638671875C3.57278,13.7495638671875,3.5,14.0940638671875,3.5,14.4422638671875C3.5,14.4422638671875,6.5,14.4422638671875,6.5,14.4422638671875C6.5,14.4422638671875,6.5,14.4422638671875,6.5,14.4422638671875ZM6.457269999999999,14.6445638671875C6.42909,14.7082638671875,6.38791,14.7653638671875,6.3363700000000005,14.8122638671875C6.3363700000000005,14.8122638671875,4.318159,12.5926038671875,4.318159,12.5926038671875C4.060459,12.8269138671875,3.85456,13.1124638671875,3.71367,13.4310638671875C3.71367,13.4310638671875,6.457269999999999,14.6445638671875,6.457269999999999,14.6445638671875C6.457269999999999,14.6445638671875,6.457269999999999,14.6445638671875,6.457269999999999,14.6445638671875ZM6.3363700000000005,14.8122638671875C6.3363700000000005,14.8122638671875,16.3357,5.7204038671875,16.3357,5.7204038671875C16.3357,5.7204038671875,14.3175,3.5007578671875,14.3175,3.5007578671875C14.3175,3.5007578671875,4.31816,12.5926038671875,4.31816,12.5926038671875C4.31816,12.5926038671875,6.3363700000000005,14.8122638671875,6.3363700000000005,14.8122638671875C6.3363700000000005,14.8122638671875,6.3363700000000005,14.8122638671875,6.3363700000000005,14.8122638671875ZM16.3357,5.7204038671875C16.2436,5.8040838671875,16.1237,5.8504638671875,15.9993,5.8504638671875C15.9993,5.8504638671875,15.9992,2.8504638684815,15.9992,2.8504638684815C15.3773,2.8504838684875,14.7776,3.0823438671875,14.3175,3.5007588671875C14.3175,3.5007588671875,16.3357,5.7204038671875,16.3357,5.7204038671875C16.3357,5.7204038671875,16.3357,5.7204038671875,16.3357,5.7204038671875ZM15.9993,5.8504638671875C15.8749,5.8504638671875,15.755,5.8041038671875,15.663,5.7204238671875C15.663,5.7204238671875,17.680999999999997,3.5006468671875,17.680999999999997,3.5006468671875C17.2208,3.0822638671875,16.6212,2.8504438684875,15.9992,2.8504638684815C15.9992,2.8504638684815,15.9993,5.8504638671875,15.9993,5.8504638671875C15.9993,5.8504638671875,15.9993,5.8504638671875,15.9993,5.8504638671875ZM15.663,5.7204238671875C15.663,5.7204238671875,25.6637,14.8123638671875,25.6637,14.8123638671875C25.6637,14.8123638671875,27.6817,12.5925338671875,27.6817,12.5925338671875C27.6817,12.5925338671875,17.680999999999997,3.5006468671875,17.680999999999997,3.5006468671875C17.680999999999997,3.5006468671875,15.663,5.7204238671875,15.663,5.7204238671875C15.663,5.7204238671875,15.663,5.7204238671875,15.663,5.7204238671875ZM25.6637,14.8123638671875C25.6121,14.7654638671875,25.5709,14.7083638671875,25.5427,14.6446638671875C25.5427,14.6446638671875,28.2863,13.4309638671875,28.2863,13.4309638671875C28.1454,13.1124638671875,27.9395,12.8268538671875,27.6817,12.5925338671875C27.6817,12.5925338671875,25.6637,14.8123638671875,25.6637,14.8123638671875C25.6637,14.8123638671875,25.6637,14.8123638671875,25.6637,14.8123638671875ZM25.5427,14.6446638671875C25.5146,14.5808638671875,25.5,14.5120638671875,25.5,14.4423638671875C25.5,14.4423638671875,28.5,14.4423638671875,28.5,14.4423638671875C28.5,14.0940638671875,28.4272,13.7495638671875,28.2863,13.4309638671875C28.2863,13.4309638671875,25.5427,14.6446638671875,25.5427,14.6446638671875C25.5427,14.6446638671875,25.5427,14.6446638671875,25.5427,14.6446638671875ZM25.5,14.4423638671875C25.5,14.4423638671875,25.5,25.9998638671875,25.5,25.9998638671875C25.5,25.9998638671875,28.5,25.9998638671875,28.5,25.9998638671875C28.5,25.9998638671875,28.5,14.4423638671875,28.5,14.4423638671875C28.5,14.4423638671875,25.5,14.4423638671875,25.5,14.4423638671875C25.5,14.4423638671875,25.5,14.4423638671875,25.5,14.4423638671875ZM25.5,25.9998638671875C25.5,25.9341638671875,25.5129,25.8691638671875,25.5381,25.8084638671875C25.5381,25.8084638671875,28.3097,26.9566638671875,28.3097,26.9566638671875C28.4353,26.6532638671875,28.5,26.3281638671875,28.5,25.9998638671875C28.5,25.9998638671875,25.5,25.9998638671875,25.5,25.9998638671875C25.5,25.9998638671875,25.5,25.9998638671875,25.5,25.9998638671875ZM25.5381,25.8084638671875C25.5632,25.7478638671875,25.6,25.6926638671875,25.6465,25.6462638671875C25.6465,25.6462638671875,27.7677,27.7677638671875,27.7677,27.7677638671875C27.9998,27.5355638671875,28.184,27.2599638671875,28.3097,26.9566638671875C28.3097,26.9566638671875,25.5381,25.8084638671875,25.5381,25.8084638671875C25.5381,25.8084638671875,25.5381,25.8084638671875,25.5381,25.8084638671875ZM25.6465,25.6462638671875C25.6929,25.5998638671875,25.748,25.5630638671875,25.8087,25.5378638671875C25.8087,25.5378638671875,26.9565,28.3096638671875,26.9565,28.3096638671875C27.2598,28.1840638671875,27.5355,27.9998638671875,27.7677,27.7677638671875C27.7677,27.7677638671875,25.6465,25.6462638671875,25.6465,25.6462638671875C25.6465,25.6462638671875,25.6465,25.6462638671875,25.6465,25.6462638671875ZM25.8087,25.5378638671875C25.8694,25.5127638671875,25.9344,25.4998638671875,26.0001,25.4998638671875C26.0001,25.4998638671875,25.9997,28.4998638671875,25.9997,28.4998638671875C26.328,28.4998638671875,26.6531,28.4352638671875,26.9565,28.3096638671875C26.9565,28.3096638671875,25.8087,25.5378638671875,25.8087,25.5378638671875C25.8087,25.5378638671875,25.8087,25.5378638671875,25.8087,25.5378638671875ZM26.0001,25.4998638671875C26.0001,25.4998638671875,19.9993,25.4990638671875,19.9993,25.4990638671875C19.9993,25.4990638671875,19.9989,28.4990638671875,19.9989,28.4990638671875C19.9989,28.4990638671875,25.9997,28.4998638671875,25.9997,28.4998638671875C25.9997,28.4998638671875,26.0001,25.4998638671875,26.0001,25.4998638671875C26.0001,25.4998638671875,26.0001,25.4998638671875,26.0001,25.4998638671875ZM19.9993,25.4990638671875C20.1319,25.4990638671875,20.2591,25.5517638671875,20.3528,25.6455638671875C20.3528,25.6455638671875,18.2314,27.7667638671875,18.2314,27.7667638671875C18.700200000000002,28.2355638671875,19.336,28.4989638671875,19.999,28.4990638671875C19.999,28.4990638671875,19.9993,25.4990638671875,19.9993,25.4990638671875C19.9993,25.4990638671875,19.9993,25.4990638671875,19.9993,25.4990638671875ZM20.3528,25.6455638671875C20.4466,25.7393638671875,20.4993,25.8664638671875,20.4993,25.9990638671875C20.4993,25.9990638671875,17.499299999999998,25.9990638671875,17.499299999999998,25.9990638671875C17.499299999999998,26.6620638671875,17.7626,27.2978638671875,18.2314,27.7667638671875C18.2314,27.7667638671875,20.3528,25.6455638671875,20.3528,25.6455638671875C20.3528,25.6455638671875,20.3528,25.6455638671875,20.3528,25.6455638671875Z" fill="#FFFFFF" fill-opacity="1"/></g></g></svg>