<svg xmlns="http://www.w3.org/2000/svg" xmlns:xlink="http://www.w3.org/1999/xlink" fill="none" version="1.1" width="32" height="32" viewBox="0 0 32 32"><g><g></g><g><ellipse cx="16" cy="16" rx="10" ry="10" fill="#FFFFFF" fill-opacity="1"/></g><g><path d="M28.2328,12.8519C27.7612,12.3602,27.2737,11.85193,27.0895,11.40649C26.9202,10.99732,26.9099,10.31958,26.9,9.66406C26.8816,8.44421,26.8607,7.06165,25.8995,6.10046C24.9384,5.139279999999999,23.5558,5.11841,22.3359,5.09998C21.6804,5.09009,21.0027,5.079829999999999,20.5935,4.91052C20.1482,4.726319999999999,19.6398,4.238770000000001,19.1481,3.76721C18.2844,2.938842,17.305300000000003,2,16,2C14.6947,2,13.7157,2.938842,12.8519,3.76721C12.3602,4.238770000000001,11.85193,4.726319999999999,11.40649,4.91052C10.99732,5.079829999999999,10.31958,5.09009,9.66406,5.09998C8.44421,5.11841,7.06165,5.139279999999999,6.10046,6.10046C5.139279999999999,7.06165,5.11841,8.44421,5.09998,9.66406C5.09009,10.31958,5.079829999999999,10.99731,4.91052,11.40649C4.726319999999999,11.85181,4.238770000000001,12.3602,3.76721,12.8519C2.938842,13.7156,2,14.6947,2,16C2,17.305300000000003,2.938842,18.2843,3.76721,19.1481C4.238770000000001,19.6398,4.726319999999999,20.1481,4.91052,20.5935C5.079829999999999,21.0027,5.09009,21.6804,5.09998,22.3359C5.11841,23.5558,5.139279999999999,24.9384,6.10046,25.8995C7.06165,26.8607,8.44421,26.8816,9.66406,26.9C10.31958,26.9099,10.99731,26.9202,11.40649,27.0895C11.85181,27.2737,12.3602,27.7612,12.8519,28.2328C13.7156,29.0612,14.6947,30,16,30C17.305300000000003,30,18.2843,29.0612,19.1481,28.2328C19.6398,27.7612,20.1481,27.2737,20.5935,27.0895C21.0027,26.9202,21.6804,26.9099,22.3359,26.9C23.5558,26.8816,24.9384,26.8607,25.8995,25.8995C26.8607,24.9384,26.8816,23.5558,26.9,22.3359C26.9099,21.6804,26.9202,21.0027,27.0895,20.5935C27.2737,20.1482,27.7612,19.6398,28.2328,19.1481C29.0612,18.2844,30,17.305300000000003,30,16C30,14.6947,29.0612,13.7157,28.2328,12.8519C28.2328,12.8519,28.2328,12.8519,28.2328,12.8519ZM22.1904,13.7234C22.1904,13.7234,14.8571,20.7234,14.8571,20.7234C14.671,20.9009,14.4238,21,14.1666,21C13.9095,21,13.6622,20.9009,13.4762,20.7234C13.4762,20.7234,9.80957,17.223399999999998,9.80957,17.223399999999998C9.71452,17.1327,9.638259999999999,17.0242,9.585139999999999,16.9041C9.532029999999999,16.784,9.50311,16.654600000000002,9.50002,16.5232C9.49694,16.3919,9.51975,16.2613,9.567160000000001,16.1388C9.61458,16.0163,9.68566,15.9043,9.77635,15.8093C9.86704,15.7143,9.97556,15.6381,10.09571,15.585C10.21587,15.5319,10.3453,15.5031,10.47661,15.5C10.60793,15.497,10.73856,15.5198,10.86104,15.5673C10.98351,15.6148,11.09544,15.6859,11.19043,15.7766C11.19043,15.7766,14.1666,18.6176,14.1666,18.6176C14.1666,18.6176,20.8096,12.2766,20.8096,12.2766C20.9046,12.1859,21.0165,12.1148,21.139,12.0673C21.2614,12.0198,21.3921,11.99699,21.5234,12C21.6547,12.0031,21.7841,12.0319,21.9043,12.085C22.0244,12.1381,22.133,12.2143,22.2236,12.3093C22.3143,12.4043,22.3854,12.5163,22.4328,12.6388C22.4802,12.7613,22.5031,12.8919,22.5,13.0232C22.4969,13.1546,22.468,13.284,22.4149,13.4041C22.3617,13.5242,22.2855,13.6327,22.1904,13.7234C22.1904,13.7234,22.1904,13.7234,22.1904,13.7234C22.1904,13.7234,22.1904,13.7234,22.1904,13.7234Z" fill="#1DB954" fill-opacity="1"/></g></g></svg>