<svg xmlns="http://www.w3.org/2000/svg" xmlns:xlink="http://www.w3.org/1999/xlink" fill="none" version="1.1" width="32" height="32" viewBox="0 0 32 32"><g><g></g><g><path d="M27,16C27,22.0751,22.0751,27,16,27C16,27,16,29,16,29C23.1797,29,29,23.1797,29,16C29,16,27,16,27,16C27,16,27,16,27,16ZM16,27C9.92487,27,5,22.0751,5,16C5,16,3,16,3,16C3,23.1797,8.8203,29,16,29C16,29,16,27,16,27C16,27,16,27,16,27ZM5,16C5,9.92487,9.92487,5,16,5C16,5,16,3,16,3C8.8203,3,3,8.8203,3,16C3,16,5,16,5,16C5,16,5,16,5,16ZM16,5C22.0751,5,27,9.92487,27,16C27,16,29,16,29,16C29,8.8203,23.1797,3,16,3C16,3,16,5,16,5C16,5,16,5,16,5Z" fill="#FFFFFF" fill-opacity="1"/></g><g><path d="M17,9C17,8.447715,16.55228,8,16,8C15.447715,8,15,8.447715,15,9C15,9,17,9,17,9C17,9,17,9,17,9ZM16,16C16,16,15,16,15,16C15,16.55228,15.447715,17,16,17C16,17,16,16,16,16C16,16,16,16,16,16ZM23,17C23.55228,17,24,16.55228,24,16C24,15.44772,23.55228,15,23,15C23,15,23,17,23,17C23,17,23,17,23,17ZM15,9C15,9,15,16,15,16C15,16,17,16,17,16C17,16,17,9,17,9C17,9,15,9,15,9C15,9,15,9,15,9ZM16,17C16,17,23,17,23,17C23,17,23,15,23,15C23,15,16,15,16,15C16,15,16,17,16,17C16,17,16,17,16,17Z" fill="#FFFFFF" fill-opacity="1"/></g></g></svg>