<svg xmlns="http://www.w3.org/2000/svg" xmlns:xlink="http://www.w3.org/1999/xlink" fill="none" version="1.1" width="32" height="32" viewBox="0 0 32 32"><g><g><path d="M2,13.097883795318603C2,13.490593795318604,2.431975,13.730013795318603,2.764999,13.521883795318603C2.764999,13.521883795318603,9.3216,9.424003795318605,9.3216,9.424003795318605C9.63494,9.228173795318604,9.63494,8.771833795318603,9.3216,8.576003795318604C9.3216,8.576003795318604,2.764998,4.478123995318604,2.764998,4.478123995318604C2.431974,4.269983795318604,2,4.509405795318603,2,4.902123795318603C2,4.902123795318603,2,13.097883795318603,2,13.097883795318603C2,13.097883795318603,2,13.097883795318603,2,13.097883795318603ZM16,10.999953795318604L16,10.999953795318604Q16,10.901463795318604,16.019199999999998,10.804863795318603Q16.0384,10.708263795318604,16.0761,10.617273795318603Q16.113799999999998,10.526273795318604,16.1685,10.444383795318604Q16.2232,10.362493795318603,16.2929,10.292853795318603Q16.3625,10.223203795318604,16.4444,10.168483795318604Q16.5263,10.113763795318604,16.6173,10.076073795318603Q16.7083,10.038383795318603,16.8049,10.019173795318604Q16.9015,9.999953795318604,17,9.999953795318604L29,9.999953795318604Q29.0985,9.999953795318604,29.1951,10.019173795318604Q29.2917,10.038383795318603,29.3827,10.076073795318603Q29.4737,10.113763795318604,29.5556,10.168483795318604Q29.6375,10.223203795318604,29.7071,10.292853795318603Q29.7767,10.362493795318603,29.8315,10.444383795318604Q29.8862,10.526273795318604,29.9239,10.617273795318603Q29.9616,10.708263795318604,29.9808,10.804863795318603Q30,10.901463795318604,30,10.999953795318604L30,10.999953795318604Q30,11.098443795318603,29.9808,11.195043795318604Q29.9616,11.291643795318603,29.9239,11.382643795318604Q29.8862,11.473633795318603,29.8315,11.555523795318603Q29.7767,11.637413795318604,29.7071,11.707063795318604Q29.6375,11.776703795318603,29.5556,11.831423795318603Q29.4737,11.886143795318603,29.3827,11.923833795318604Q29.2917,11.961523795318604,29.1951,11.980743795318602Q29.0985,11.999953795318604,29,11.999953795318604L17,11.999953795318604Q16.9015,11.999953795318604,16.8049,11.980743795318602Q16.7083,11.961523795318604,16.6173,11.923833795318604Q16.5263,11.886143795318603,16.4444,11.831423795318603Q16.3625,11.776703795318603,16.2929,11.707063795318604Q16.2232,11.637413795318604,16.1685,11.555523795318603Q16.113799999999998,11.473633795318603,16.0761,11.382643795318604Q16.0384,11.291643795318603,16.019199999999998,11.195043795318604Q16,11.098443795318603,16,10.999953795318604ZM2,18.9999237953186L2,18.9999237953186Q2,18.901423795318603,2.0192147,18.804823795318605Q2.0384294,18.708223795318602,2.0761205,18.6172237953186Q2.113811,18.526323795318604,2.16853,18.444423795318606Q2.223249,18.3625237953186,2.292893,18.292823795318604Q2.362537,18.223223795318603,2.44443,18.168523795318606Q2.526322,18.113723795318606,2.6173159999999998,18.0761237953186Q2.708311,18.038423795318604,2.80491,18.019123795318606Q2.901509,17.9999237953186,3,17.9999237953186L29,17.9999237953186Q29.0985,17.9999237953186,29.1951,18.019123795318606Q29.2917,18.038423795318604,29.3827,18.0761237953186Q29.4737,18.113723795318606,29.5556,18.168523795318606Q29.6375,18.223223795318603,29.7071,18.292823795318604Q29.7767,18.3625237953186,29.8315,18.444423795318606Q29.8862,18.526323795318604,29.9239,18.6172237953186Q29.9616,18.708223795318602,29.9808,18.804823795318605Q30,18.901423795318603,30,18.9999237953186L30,18.9999237953186Q30,19.098423795318602,29.9808,19.195023795318605Q29.9616,19.291623795318603,29.9239,19.3826237953186Q29.8862,19.473623795318602,29.8315,19.555523795318603Q29.7767,19.637423795318604,29.7071,19.707023795318605Q29.6375,19.776723795318603,29.5556,19.831423795318603Q29.4737,19.886123795318603,29.3827,19.923823795318604Q29.2917,19.961523795318605,29.1951,19.980723795318603Q29.0985,19.9999237953186,29,19.9999237953186L3,19.9999237953186Q2.901509,19.9999237953186,2.80491,19.980723795318603Q2.708311,19.961523795318605,2.6173159999999998,19.923823795318604Q2.526322,19.886123795318603,2.44443,19.831423795318603Q2.362537,19.776723795318603,2.292893,19.707023795318605Q2.223249,19.637423795318604,2.16853,19.555523795318603Q2.113811,19.473623795318602,2.0761205,19.3826237953186Q2.0384294,19.291623795318603,2.0192147,19.195023795318605Q2,19.098423795318602,2,18.9999237953186ZM2,26.999923795318605L2,26.999923795318605Q2,26.901423795318603,2.0192147,26.804823795318605Q2.0384294,26.708223795318602,2.0761205,26.617223795318605Q2.113811,26.526323795318604,2.16853,26.444423795318603Q2.223249,26.362523795318605,2.292893,26.292823795318604Q2.362537,26.223223795318603,2.44443,26.168523795318603Q2.526322,26.113723795318602,2.6173159999999998,26.076023795318605Q2.708311,26.038423795318604,2.80491,26.019123795318603Q2.901509,25.999923795318605,3,25.999923795318605L29,25.999923795318605Q29.0985,25.999923795318605,29.1951,26.019123795318603Q29.2917,26.038423795318604,29.3827,26.076023795318605Q29.4737,26.113723795318602,29.5556,26.168523795318603Q29.6375,26.223223795318603,29.7071,26.292823795318604Q29.7767,26.362523795318605,29.8315,26.444423795318603Q29.8862,26.526323795318604,29.9239,26.617223795318605Q29.9616,26.708223795318602,29.9808,26.804823795318605Q30,26.901423795318603,30,26.999923795318605L30,26.999923795318605Q30,27.098423795318602,29.9808,27.195023795318605Q29.9616,27.291623795318603,29.9239,27.382623795318604Q29.8862,27.473623795318602,29.8315,27.555523795318603Q29.7767,27.637423795318604,29.7071,27.707023795318605Q29.6375,27.776723795318603,29.5556,27.831423795318603Q29.4737,27.886123795318603,29.3827,27.923823795318604Q29.2917,27.9615237953186,29.1951,27.980723795318603Q29.0985,27.999923795318605,29,27.999923795318605L3,27.999923795318605Q2.901509,27.999923795318605,2.80491,27.980723795318603Q2.708311,27.9615237953186,2.6173159999999998,27.923823795318604Q2.526322,27.886123795318603,2.44443,27.831423795318603Q2.362537,27.776723795318603,2.292893,27.707023795318605Q2.223249,27.637423795318604,2.16853,27.555523795318603Q2.113811,27.473623795318602,2.0761205,27.382623795318604Q2.0384294,27.291623795318603,2.0192147,27.195023795318605Q2,27.098423795318602,2,26.999923795318605Z" fill="#FFFFFF" fill-opacity="1"/></g></g></svg>