<svg xmlns="http://www.w3.org/2000/svg" xmlns:xlink="http://www.w3.org/1999/xlink" fill="none" version="1.1" width="32" height="32" viewBox="0 0 32 32"><g><g></g><g><path d="M3,26C3,26.5523,3.447715,27,4,27C4.55228,27,5,26.5523,5,26C5,26,3,26,3,26C3,26,3,26,3,26ZM5,7C5,7,5,8,5,8C5,8,5,7,5,7C5,7,5,7,5,7ZM12.26667,7.2C12.26667,7.2,11.66667,8,11.66667,8C11.66667,8,11.66667,8,11.66667,8C11.66667,8,12.26667,7.2,12.26667,7.2C12.26667,7.2,12.26667,7.2,12.26667,7.2ZM15.7333,9.8C15.7333,9.8,16.3333,9,16.3333,9C16.3333,9,16.3333,9,16.3333,9C16.3333,9,15.7333,9.8,15.7333,9.8C15.7333,9.8,15.7333,9.8,15.7333,9.8ZM16.3333,10C16.3333,10,16.3333,9,16.3333,9C16.3333,9,16.3333,10,16.3333,10C16.3333,10,16.3333,10,16.3333,10ZM25,14C25,14.55228,25.4477,15,26,15C26.5523,15,27,14.55228,27,14C27,14,25,14,25,14C25,14,25,14,25,14ZM5,26C5,26,5,8,5,8C5,8,3,8,3,8C3,8,3,26,3,26C3,26,5,26,5,26C5,26,5,26,5,26ZM5,8C5,8,5,8,5,8C5,8,3.585787,6.585787,3.585787,6.585787C3.210714,6.960859,3,7.46957,3,8C3,8,5,8,5,8C5,8,5,8,5,8ZM5,8C5,8,5,8,5,8C5,8,5,6,5,6C4.46957,6,3.960859,6.210714,3.585787,6.585787C3.585787,6.585787,5,8,5,8C5,8,5,8,5,8ZM5,8C5,8,11.66667,8,11.66667,8C11.66667,8,11.66667,6,11.66667,6C11.66667,6,5,6,5,6C5,6,5,8,5,8C5,8,5,8,5,8ZM11.66667,8C11.66667,8,11.66667,8,11.66667,8C11.66667,8,12.86667,6.4,12.86667,6.4C12.52047,6.140355,12.09941,6,11.66667,6C11.66667,6,11.66667,8,11.66667,8C11.66667,8,11.66667,8,11.66667,8ZM11.66667,8C11.66667,8,15.1333,10.6,15.1333,10.6C15.1333,10.6,16.3333,9,16.3333,9C16.3333,9,12.86667,6.4,12.86667,6.4C12.86667,6.4,11.66667,8,11.66667,8C11.66667,8,11.66667,8,11.66667,8ZM15.1333,10.6C15.4795,10.85965,15.9006,11,16.3333,11C16.3333,11,16.3333,9,16.3333,9C16.3333,9,16.3333,9,16.3333,9C16.3333,9,15.1333,10.6,15.1333,10.6C15.1333,10.6,15.1333,10.6,15.1333,10.6ZM16.3333,11C16.3333,11,25,11,25,11C25,11,25,9,25,9C25,9,16.3333,9,16.3333,9C16.3333,9,16.3333,11,16.3333,11C16.3333,11,16.3333,11,16.3333,11ZM25,11C25,11,25,11,25,11C25,11,26.4142,9.58579,26.4142,9.58579C26.0391,9.21071,25.5304,9,25,9C25,9,25,11,25,11C25,11,25,11,25,11ZM25,11C25,11,25,11,25,11C25,11,27,11,27,11C27,10.469570000000001,26.7893,9.96086,26.4142,9.58579C26.4142,9.58579,25,11,25,11C25,11,25,11,25,11ZM25,11C25,11,25,14,25,14C25,14,27,14,27,14C27,14,27,11,27,11C27,11,25,11,25,11C25,11,25,11,25,11Z" fill="#FFFFFF" fill-opacity="1"/></g><g><path d="M3.999995708465576,26C3.999995708465576,26,3.071522908465576,25.6286,3.071522908465576,25.6286C2.948289908465576,25.936700000000002,2.985899908465576,26.285899999999998,3.171932708465576,26.5606C3.357962708465576,26.8354,3.668175708465576,27,3.999995708465576,27C3.999995708465576,27,3.999995708465576,26,3.999995708465576,26C3.999995708465576,26,3.999995708465576,26,3.999995708465576,26ZM7.7485557084655765,16.628610000000002C7.7485557084655765,16.628610000000002,6.820075708465576,16.25722,6.820075708465576,16.25722C6.820075708465576,16.25722,6.820075708465576,16.25722,6.820075708465576,16.25722C6.820075708465576,16.25722,7.7485557084655765,16.628610000000002,7.7485557084655765,16.628610000000002C7.7485557084655765,16.628610000000002,7.7485557084655765,16.628610000000002,7.7485557084655765,16.628610000000002ZM8.677025708465576,16C8.677025708465576,16,8.677025708465576,15,8.677025708465576,15C8.677025708465576,15,8.677025708465576,15,8.677025708465576,15C8.677025708465576,15,8.677025708465576,16,8.677025708465576,16C8.677025708465576,16,8.677025708465576,16,8.677025708465576,16ZM14.697195708465577,16C14.697195708465577,16,14.697195708465577,15,14.697195708465577,15C14.697195708465577,15,14.697195708465577,15,14.697195708465577,15C14.697195708465577,15,14.697195708465577,16,14.697195708465577,16C14.697195708465577,16,14.697195708465577,16,14.697195708465577,16ZM15.251895708465575,15.83205C15.251895708465575,15.83205,14.697195708465577,15,14.697195708465577,15C14.697195708465577,15,14.697195708465577,15,14.697195708465577,15C14.697195708465577,15,15.251895708465575,15.83205,15.251895708465575,15.83205C15.251895708465575,15.83205,15.251895708465575,15.83205,15.251895708465575,15.83205ZM17.748095708465577,14.16795C17.748095708465577,14.16795,18.302795708465574,15,18.302795708465574,15C18.302795708465574,15,18.302795708465574,15,18.302795708465574,15C18.302795708465574,15,17.748095708465577,14.16795,17.748095708465577,14.16795C17.748095708465577,14.16795,17.748095708465577,14.16795,17.748095708465577,14.16795ZM18.302795708465574,14C18.302795708465574,14,18.302795708465574,15,18.302795708465574,15C18.302795708465574,15,18.302795708465574,15,18.302795708465574,15C18.302795708465574,15,18.302795708465574,14,18.302795708465574,14C18.302795708465574,14,18.302795708465574,14,18.302795708465574,14ZM28.612595708465577,14C28.612595708465577,14,28.612595708465577,15,28.612595708465577,15C28.612595708465577,15,28.612595708465577,15,28.612595708465577,15C28.612595708465577,15,28.612595708465577,14,28.612595708465577,14C28.612595708465577,14,28.612595708465577,14,28.612595708465577,14ZM29.561295708465575,15.316230000000001C29.561295708465575,15.316230000000001,30.509895708465574,15.63246,30.509895708465574,15.63246C30.509895708465574,15.63246,30.509895708465574,15.63246,30.509895708465574,15.63246C30.509895708465574,15.63246,29.561295708465575,15.316230000000001,29.561295708465575,15.316230000000001C29.561295708465575,15.316230000000001,29.561295708465575,15.316230000000001,29.561295708465575,15.316230000000001ZM25.999995708465576,26C25.999995708465576,26,25.999995708465576,27,25.999995708465576,27C26.430395708465575,27,26.812595708465576,26.724600000000002,26.948695708465575,26.316200000000002C26.948695708465575,26.316200000000002,25.999995708465576,26,25.999995708465576,26C25.999995708465576,26,25.999995708465576,26,25.999995708465576,26ZM4.928475708465577,26.3714C4.928475708465577,26.3714,8.677025708465576,17,8.677025708465576,17C8.677025708465576,17,6.820075708465576,16.25722,6.820075708465576,16.25722C6.820075708465576,16.25722,3.071522908465576,25.6286,3.071522908465576,25.6286C3.071522908465576,25.6286,4.928475708465577,26.3714,4.928475708465577,26.3714C4.928475708465577,26.3714,4.928475708465577,26.3714,4.928475708465577,26.3714ZM8.677025708465576,17C8.677025708465576,17,8.677025708465576,17,8.677025708465576,17C8.677025708465576,17,7.555775708465577,15.34386,7.555775708465577,15.34386C7.224775708465576,15.56796,6.968525708465576,15.88609,6.820075708465576,16.25722C6.820075708465576,16.25722,8.677025708465576,17,8.677025708465576,17C8.677025708465576,17,8.677025708465576,17,8.677025708465576,17ZM8.677025708465576,17C8.677025708465576,17,8.677025708465576,17,8.677025708465576,17C8.677025708465576,17,8.677025708465576,15,8.677025708465576,15C8.277315708465576,15,7.8867657084655765,15.119769999999999,7.555775708465577,15.34386C7.555775708465577,15.34386,8.677025708465576,17,8.677025708465576,17C8.677025708465576,17,8.677025708465576,17,8.677025708465576,17ZM8.677025708465576,17C8.677025708465576,17,14.697195708465577,17,14.697195708465577,17C14.697195708465577,17,14.697195708465577,15,14.697195708465577,15C14.697195708465577,15,8.677025708465576,15,8.677025708465576,15C8.677025708465576,15,8.677025708465576,17,8.677025708465576,17C8.677025708465576,17,8.677025708465576,17,8.677025708465576,17ZM14.697195708465577,17C15.092095708465576,17,15.478095708465576,16.88313,15.806595708465576,16.6641C15.806595708465576,16.6641,14.697195708465577,15,14.697195708465577,15C14.697195708465577,15,14.697195708465577,15,14.697195708465577,15C14.697195708465577,15,14.697195708465577,17,14.697195708465577,17C14.697195708465577,17,14.697195708465577,17,14.697195708465577,17ZM15.806595708465576,16.6641C15.806595708465576,16.6641,18.302795708465574,15,18.302795708465574,15C18.302795708465574,15,17.193395708465577,13.335899,17.193395708465577,13.335899C17.193395708465577,13.335899,14.697195708465577,15,14.697195708465577,15C14.697195708465577,15,15.806595708465576,16.6641,15.806595708465576,16.6641C15.806595708465576,16.6641,15.806595708465576,16.6641,15.806595708465576,16.6641ZM18.302795708465574,15C18.302795708465574,15,18.302795708465574,15,18.302795708465574,15C18.302795708465574,15,18.302795708465574,13,18.302795708465574,13C17.907895708465574,13,17.52189570846558,13.116875,17.193395708465577,13.3359C17.193395708465577,13.3359,18.302795708465574,15,18.302795708465574,15C18.302795708465574,15,18.302795708465574,15,18.302795708465574,15ZM18.302795708465574,15C18.302795708465574,15,28.612595708465577,15,28.612595708465577,15C28.612595708465577,15,28.612595708465577,13,28.612595708465577,13C28.612595708465577,13,18.302795708465574,13,18.302795708465574,13C18.302795708465574,13,18.302795708465574,15,18.302795708465574,15C18.302795708465574,15,18.302795708465574,15,18.302795708465574,15ZM28.612595708465577,15C28.612595708465577,15,28.612595708465577,15,28.612595708465577,15C28.612595708465577,15,29.523895708465577,13.219713,29.523895708465577,13.219713C29.241795708465578,13.075306,28.929495708465577,13,28.612595708465577,13C28.612595708465577,13,28.612595708465577,15,28.612595708465577,15C28.612595708465577,15,28.612595708465577,15,28.612595708465577,15ZM28.612595708465577,15C28.612595708465577,15,28.612595708465577,15,28.612595708465577,15C28.612595708465577,15,30.235095708465575,13.830579,30.235095708465575,13.830579C30.049795708465577,13.573493,29.805995708465577,13.36412,29.523895708465577,13.219713C29.523895708465577,13.219713,28.612595708465577,15,28.612595708465577,15C28.612595708465577,15,28.612595708465577,15,28.612595708465577,15ZM28.612595708465577,15C28.612595708465577,15,28.612595708465577,15,28.612595708465577,15C28.612595708465577,15,30.589695708465577,14.69838,30.589695708465577,14.69838C30.541895708465574,14.3851,30.420395708465577,14.08767,30.235095708465575,13.830579C30.235095708465575,13.830579,28.612595708465577,15,28.612595708465577,15C28.612595708465577,15,28.612595708465577,15,28.612595708465577,15ZM28.612595708465577,15C28.612595708465577,15,28.612595708465577,15,28.612595708465577,15C28.612595708465577,15,30.509895708465574,15.63246,30.509895708465574,15.63246C30.610195708465575,15.33181,30.637495708465575,15.01166,30.589695708465577,14.69838C30.589695708465577,14.69838,28.612595708465577,15,28.612595708465577,15C28.612595708465577,15,28.612595708465577,15,28.612595708465577,15ZM28.612595708465577,15C28.612595708465577,15,25.051295708465577,25.683799999999998,25.051295708465577,25.683799999999998C25.051295708465577,25.683799999999998,26.948695708465575,26.316200000000002,26.948695708465575,26.316200000000002C26.948695708465575,26.316200000000002,30.509895708465574,15.63246,30.509895708465574,15.63246C30.509895708465574,15.63246,28.612595708465577,15,28.612595708465577,15C28.612595708465577,15,28.612595708465577,15,28.612595708465577,15ZM25.999995708465576,25C25.999995708465576,25,3.999995708465576,25,3.999995708465576,25C3.999995708465576,25,3.999995708465576,27,3.999995708465576,27C3.999995708465576,27,25.999995708465576,27,25.999995708465576,27C25.999995708465576,27,25.999995708465576,25,25.999995708465576,25C25.999995708465576,25,25.999995708465576,25,25.999995708465576,25Z" fill="#FFFFFF" fill-opacity="1"/></g></g></svg>