<svg xmlns="http://www.w3.org/2000/svg" xmlns:xlink="http://www.w3.org/1999/xlink" fill="none" version="1.1" width="32" height="32" viewBox="0 0 32 32"><g><g></g><g><path d="M12.99927,25.9990638671875C12.99927,25.9990638671875,11.99927,25.9990638671875,11.99927,25.9990638671875C11.99927,25.9990638671875,12.99927,25.9990638671875,12.99927,25.9990638671875C12.99927,25.9990638671875,12.99927,25.9990638671875,12.99927,25.9990638671875ZM11.99939,26.9990638671875C11.99939,26.9990638671875,11.99927,25.9990638671875,11.99927,25.9990638671875C11.99927,25.9990638671875,11.99926,25.9990638671875,11.99926,25.9990638671875C11.99926,25.9990638671875,11.99939,26.9990638671875,11.99939,26.9990638671875C11.99939,26.9990638671875,11.99939,26.9990638671875,11.99939,26.9990638671875ZM6.00012,26.9998638671875C6.00012,26.9998638671875,6.000249999999999,27.9998638671875,6.000249999999999,27.9998638671875C6.000249999999999,27.9998638671875,6.00026,27.9998638671875,6.00026,27.9998638671875C6.00026,27.9998638671875,6.00012,26.9998638671875,6.00012,26.9998638671875C6.00012,26.9998638671875,6.00012,26.9998638671875,6.00012,26.9998638671875ZM5,25.9998638671875C5,25.9998638671875,6,25.9998638671875,6,25.9998638671875C6,25.9998638671875,5,25.9998638671875,5,25.9998638671875C5,25.9998638671875,5,25.9998638671875,5,25.9998638671875ZM5,14.4422638671875C5,14.4422638671875,6,14.4422638671875,6,14.4422638671875C6,14.4422638671875,6,14.4422638671875,6,14.4422638671875C6,14.4422638671875,5,14.4422638671875,5,14.4422638671875C5,14.4422638671875,5,14.4422638671875,5,14.4422638671875ZM5.32726,13.7024638671875C5.32726,13.7024638671875,4.654528,12.9625438671875,4.654528,12.9625438671875C4.654528,12.9625438671875,4.654528,12.9625438671875,4.654528,12.9625438671875C4.654528,12.9625438671875,5.32726,13.7024638671875,5.32726,13.7024638671875C5.32726,13.7024638671875,5.32726,13.7024638671875,5.32726,13.7024638671875ZM15.3266,4.6105838671875C15.3266,4.6105838671875,15.9993,5.3504638671875,15.9993,5.3504638671875C15.9993,5.3504638671875,15.9993,5.3504638671875,15.9993,5.3504638671875C15.9993,5.3504638671875,15.3266,4.6105838671875,15.3266,4.6105838671875C15.3266,4.6105838671875,15.3266,4.6105838671875,15.3266,4.6105838671875ZM16.672,4.6105338671875C16.672,4.6105338671875,17.3447,3.8706098671875,17.3447,3.8706098671875C17.3447,3.8706098671875,16.672,4.6105338671875,16.672,4.6105338671875C16.672,4.6105338671875,16.672,4.6105338671875,16.672,4.6105338671875ZM26.6727,13.7024638671875C26.6727,13.7024638671875,27.3454,12.9624938671875,27.3454,12.9624938671875C27.3454,12.9624938671875,27.3454,12.9624938671875,27.3454,12.9624938671875C27.3454,12.9624938671875,26.6727,13.7024638671875,26.6727,13.7024638671875C26.6727,13.7024638671875,26.6727,13.7024638671875,26.6727,13.7024638671875ZM27,14.4423638671875C27,14.4423638671875,26,14.4423638671875,26,14.4423638671875C26,14.4423638671875,26,14.4423638671875,26,14.4423638671875C26,14.4423638671875,27,14.4423638671875,27,14.4423638671875C27,14.4423638671875,27,14.4423638671875,27,14.4423638671875ZM27,25.9998638671875C27,25.9998638671875,26,25.9998638671875,26,25.9998638671875C26,25.9998638671875,27,25.9998638671875,27,25.9998638671875C27,25.9998638671875,27,25.9998638671875,27,25.9998638671875ZM25.9999,26.9998638671875C25.9999,26.9998638671875,25.9997,27.9998638671875,25.9997,27.9998638671875C25.9997,27.9998638671875,25.9997,27.9998638671875,25.9997,27.9998638671875C25.9997,27.9998638671875,25.9999,26.9998638671875,25.9999,26.9998638671875C25.9999,26.9998638671875,25.9999,26.9998638671875,25.9999,26.9998638671875ZM19.9991,26.9990638671875C19.9991,26.9990638671875,19.999299999999998,25.9990638671875,19.999299999999998,25.9990638671875C19.999299999999998,25.9990638671875,19.999299999999998,25.9990638671875,19.999299999999998,25.9990638671875C19.999299999999998,25.9990638671875,19.9991,26.9990638671875,19.9991,26.9990638671875C19.9991,26.9990638671875,19.9991,26.9990638671875,19.9991,26.9990638671875ZM19.999299999999998,25.9990638671875C19.999299999999998,25.9990638671875,19.999299999999998,19.9989638671875,19.999299999999998,19.9989638671875C19.999299999999998,19.9989638671875,17.999299999999998,19.9989638671875,17.999299999999998,19.9989638671875C17.999299999999998,19.9989638671875,17.999299999999998,25.9990638671875,17.999299999999998,25.9990638671875C17.999299999999998,25.9990638671875,19.999299999999998,25.9990638671875,19.999299999999998,25.9990638671875C19.999299999999998,25.9990638671875,19.999299999999998,25.9990638671875,19.999299999999998,25.9990638671875ZM19.999299999999998,19.9989638671875C19.999299999999998,19.4684638671875,19.788600000000002,18.959763867187498,19.4135,18.584763867187498C19.4135,18.584763867187498,17.999299999999998,19.9989638671875,17.999299999999998,19.9989638671875C17.999299999999998,19.9989638671875,17.999299999999998,19.9989638671875,17.999299999999998,19.9989638671875C17.999299999999998,19.9989638671875,19.999299999999998,19.9989638671875,19.999299999999998,19.9989638671875C19.999299999999998,19.9989638671875,19.999299999999998,19.9989638671875,19.999299999999998,19.9989638671875ZM19.4135,18.584763867187498C19.0384,18.2096638671875,18.5297,17.9989638671875,17.999299999999998,17.9989638671875C17.999299999999998,17.9989638671875,17.999299999999998,19.9989638671875,17.999299999999998,19.9989638671875C17.999299999999998,19.9989638671875,17.999299999999998,19.9989638671875,17.999299999999998,19.9989638671875C17.999299999999998,19.9989638671875,19.4135,18.584763867187498,19.4135,18.584763867187498C19.4135,18.584763867187498,19.4135,18.584763867187498,19.4135,18.584763867187498ZM17.999299999999998,17.9989638671875C17.999299999999998,17.9989638671875,13.99927,17.9989638671875,13.99927,17.9989638671875C13.99927,17.9989638671875,13.99927,19.9989638671875,13.99927,19.9989638671875C13.99927,19.9989638671875,17.999299999999998,19.9989638671875,17.999299999999998,19.9989638671875C17.999299999999998,19.9989638671875,17.999299999999998,17.9989638671875,17.999299999999998,17.9989638671875C17.999299999999998,17.9989638671875,17.999299999999998,17.9989638671875,17.999299999999998,17.9989638671875ZM13.99927,17.9989638671875C13.46883,17.9989638671875,12.96012,18.2096638671875,12.58505,18.584763867187498C12.58505,18.584763867187498,13.99927,19.9989638671875,13.99927,19.9989638671875C13.99927,19.9989638671875,13.99927,19.9989638671875,13.99927,19.9989638671875C13.99927,19.9989638671875,13.99927,17.9989638671875,13.99927,17.9989638671875C13.99927,17.9989638671875,13.99927,17.9989638671875,13.99927,17.9989638671875ZM12.58505,18.584763867187498C12.20998,18.959763867187498,11.99927,19.4684638671875,11.99927,19.9989638671875C11.99927,19.9989638671875,13.99927,19.9989638671875,13.99927,19.9989638671875C13.99927,19.9989638671875,13.99927,19.9989638671875,13.99927,19.9989638671875C13.99927,19.9989638671875,12.58505,18.584763867187498,12.58505,18.584763867187498C12.58505,18.584763867187498,12.58505,18.584763867187498,12.58505,18.584763867187498ZM11.99927,19.9989638671875C11.99927,19.9989638671875,11.99927,25.9990638671875,11.99927,25.9990638671875C11.99927,25.9990638671875,13.99927,25.9990638671875,13.99927,25.9990638671875C13.99927,25.9990638671875,13.99927,19.9989638671875,13.99927,19.9989638671875C13.99927,19.9989638671875,11.99927,19.9989638671875,11.99927,19.9989638671875C11.99927,19.9989638671875,11.99927,19.9989638671875,11.99927,19.9989638671875ZM11.99927,25.9990638671875C11.99927,25.9990638671875,11.99927,25.9990638671875,11.99927,25.9990638671875C11.99927,25.9990638671875,13.41357,27.4131638671875,13.41357,27.4131638671875C13.78859,27.0381638671875,13.99927,26.5294638671875,13.99927,25.9990638671875C13.99927,25.9990638671875,11.99927,25.9990638671875,11.99927,25.9990638671875C11.99927,25.9990638671875,11.99927,25.9990638671875,11.99927,25.9990638671875ZM11.99927,25.9990638671875C11.99927,25.9990638671875,11.99927,25.9990638671875,11.99927,25.9990638671875C11.99927,25.9990638671875,11.99952,27.9990638671875,11.99952,27.9990638671875C12.52991,27.9989638671875,13.03855,27.7882638671875,13.41357,27.4131638671875C13.41357,27.4131638671875,11.99927,25.9990638671875,11.99927,25.9990638671875C11.99927,25.9990638671875,11.99927,25.9990638671875,11.99927,25.9990638671875ZM11.99926,25.9990638671875C11.99926,25.9990638671875,5.99999,25.9998638671875,5.99999,25.9998638671875C5.99999,25.9998638671875,6.00026,27.9998638671875,6.00026,27.9998638671875C6.00026,27.9998638671875,11.99952,27.9990638671875,11.99952,27.9990638671875C11.99952,27.9990638671875,11.99926,25.9990638671875,11.99926,25.9990638671875C11.99926,25.9990638671875,11.99926,25.9990638671875,11.99926,25.9990638671875ZM6,25.9998638671875C6,25.9998638671875,6,25.9998638671875,6,25.9998638671875C6,25.9998638671875,5.2348099999999995,27.8476638671875,5.2348099999999995,27.8476638671875C5.4774899999999995,27.9481638671875,5.73759,27.9998638671875,6.000249999999999,27.9998638671875C6.000249999999999,27.9998638671875,6,25.9998638671875,6,25.9998638671875C6,25.9998638671875,6,25.9998638671875,6,25.9998638671875ZM6,25.9998638671875C6,25.9998638671875,6,25.9998638671875,6,25.9998638671875C6,25.9998638671875,4.585875,27.4141638671875,4.585875,27.4141638671875C4.771618,27.5998638671875,4.992126,27.7471638671875,5.2348099999999995,27.8476638671875C5.2348099999999995,27.8476638671875,6,25.9998638671875,6,25.9998638671875C6,25.9998638671875,6,25.9998638671875,6,25.9998638671875ZM6,25.9998638671875C6,25.9998638671875,6,25.9998638671875,6,25.9998638671875C6,25.9998638671875,4.152265,26.7652638671875,4.152265,26.7652638671875C4.25279,27.0079638671875,4.400132,27.2284638671875,4.585875,27.4141638671875C4.585875,27.4141638671875,6,25.9998638671875,6,25.9998638671875C6,25.9998638671875,6,25.9998638671875,6,25.9998638671875ZM6,25.9998638671875C6,25.9998638671875,6,25.9998638671875,6,25.9998638671875C6,25.9998638671875,4,25.9998638671875,4,25.9998638671875C4,26.2625638671875,4.051739,26.5226638671875,4.152265,26.7652638671875C4.152265,26.7652638671875,6,25.9998638671875,6,25.9998638671875C6,25.9998638671875,6,25.9998638671875,6,25.9998638671875ZM6,25.9998638671875C6,25.9998638671875,6,14.4422638671875,6,14.4422638671875C6,14.4422638671875,4,14.4422638671875,4,14.4422638671875C4,14.4422638671875,4,25.9998638671875,4,25.9998638671875C4,25.9998638671875,6,25.9998638671875,6,25.9998638671875C6,25.9998638671875,6,25.9998638671875,6,25.9998638671875ZM6,14.4422638671875C6,14.4422638671875,6,14.4422638671875,6,14.4422638671875C6,14.4422638671875,4.170937,13.6332638671875,4.170937,13.6332638671875C4.058223,13.8880638671875,4,14.1636638671875,4,14.4422638671875C4,14.4422638671875,6,14.4422638671875,6,14.4422638671875C6,14.4422638671875,6,14.4422638671875,6,14.4422638671875ZM6,14.4422638671875C6,14.4422638671875,6,14.4422638671875,6,14.4422638671875C6,14.4422638671875,4.654528,12.9625438671875,4.654528,12.9625438671875C4.448367,13.1499938671875,4.28365,13.3784638671875,4.170937,13.6332638671875C4.170937,13.6332638671875,6,14.4422638671875,6,14.4422638671875C6,14.4422638671875,6,14.4422638671875,6,14.4422638671875ZM6,14.4422638671875C6,14.4422638671875,15.9993,5.3504638671875,15.9993,5.3504638671875C15.9993,5.3504638671875,14.6538,3.8706998671875,14.6538,3.8706998671875C14.6538,3.8706998671875,4.654528,12.9625438671875,4.654528,12.9625438671875C4.654528,12.9625438671875,6,14.4422638671875,6,14.4422638671875C6,14.4422638671875,6,14.4422638671875,6,14.4422638671875ZM15.9993,5.3504638671875C15.9993,5.3504638671875,15.9993,5.3504638671875,15.9993,5.3504638671875C15.9993,5.3504638671875,15.9992,3.35046386880495,15.9992,3.35046386880495C15.5017,3.3504808687875,15.022,3.5359678671875,14.6538,3.8706998671875C14.6538,3.8706998671875,15.9993,5.3504638671875,15.9993,5.3504638671875C15.9993,5.3504638671875,15.9993,5.3504638671875,15.9993,5.3504638671875ZM15.9993,5.3504638671875C15.9993,5.3504638671875,15.9993,5.3504638671875,15.9993,5.3504638671875C15.9993,5.3504638671875,17.3447,3.8706098671875,17.3447,3.8706098671875C16.9765,3.5359018671875,16.4968,3.3504438687875,15.9992,3.35046386880495C15.9992,3.35046386880495,15.9993,5.3504638671875,15.9993,5.3504638671875C15.9993,5.3504638671875,15.9993,5.3504638671875,15.9993,5.3504638671875ZM15.9993,5.3504638671875C15.9993,5.3504638671875,26,14.4423638671875,26,14.4423638671875C26,14.4423638671875,27.3454,12.9624938671875,27.3454,12.9624938671875C27.3454,12.9624938671875,17.3447,3.8706098671875,17.3447,3.8706098671875C17.3447,3.8706098671875,15.9993,5.3504638671875,15.9993,5.3504638671875C15.9993,5.3504638671875,15.9993,5.3504638671875,15.9993,5.3504638671875ZM26,14.4423638671875C26,14.4423638671875,26,14.4423638671875,26,14.4423638671875C26,14.4423638671875,27.829,13.6332638671875,27.829,13.6332638671875C27.7163,13.3784638671875,27.5516,13.1499538671875,27.3454,12.9624938671875C27.3454,12.9624938671875,26,14.4423638671875,26,14.4423638671875C26,14.4423638671875,26,14.4423638671875,26,14.4423638671875ZM26,14.4423638671875C26,14.4423638671875,26,14.4423638671875,26,14.4423638671875C26,14.4423638671875,28,14.4423638671875,28,14.4423638671875C28,14.1636638671875,27.9418,13.8880638671875,27.829,13.6332638671875C27.829,13.6332638671875,26,14.4423638671875,26,14.4423638671875C26,14.4423638671875,26,14.4423638671875,26,14.4423638671875ZM26,14.4423638671875C26,14.4423638671875,26,25.9998638671875,26,25.9998638671875C26,25.9998638671875,28,25.9998638671875,28,25.9998638671875C28,25.9998638671875,28,14.4423638671875,28,14.4423638671875C28,14.4423638671875,26,14.4423638671875,26,14.4423638671875C26,14.4423638671875,26,14.4423638671875,26,14.4423638671875ZM26,25.9998638671875C26,25.9998638671875,26,25.9998638671875,26,25.9998638671875C26,25.9998638671875,27.8477,26.7652638671875,27.8477,26.7652638671875C27.9483,26.5226638671875,28,26.2625638671875,28,25.9998638671875C28,25.9998638671875,26,25.9998638671875,26,25.9998638671875C26,25.9998638671875,26,25.9998638671875,26,25.9998638671875ZM26,25.9998638671875C26,25.9998638671875,26,25.9998638671875,26,25.9998638671875C26,25.9998638671875,27.4141,27.4141638671875,27.4141,27.4141638671875C27.5999,27.2284638671875,27.7472,27.0079638671875,27.8477,26.7652638671875C27.8477,26.7652638671875,26,25.9998638671875,26,25.9998638671875C26,25.9998638671875,26,25.9998638671875,26,25.9998638671875ZM26,25.9998638671875C26,25.9998638671875,26,25.9998638671875,26,25.9998638671875C26,25.9998638671875,26.7652,27.8476638671875,26.7652,27.8476638671875C27.0079,27.7471638671875,27.2284,27.5998638671875,27.4141,27.4141638671875C27.4141,27.4141638671875,26,25.9998638671875,26,25.9998638671875C26,25.9998638671875,26,25.9998638671875,26,25.9998638671875ZM26,25.9998638671875C26,25.9998638671875,26,25.9998638671875,26,25.9998638671875C26,25.9998638671875,25.9997,27.9998638671875,25.9997,27.9998638671875C26.2624,27.9998638671875,26.5225,27.9481638671875,26.7652,27.8476638671875C26.7652,27.8476638671875,26,25.9998638671875,26,25.9998638671875C26,25.9998638671875,26,25.9998638671875,26,25.9998638671875ZM26,25.9998638671875C26,25.9998638671875,19.999299999999998,25.9990638671875,19.999299999999998,25.9990638671875C19.999299999999998,25.9990638671875,19.999000000000002,27.9990638671875,19.999000000000002,27.9990638671875C19.999000000000002,27.9990638671875,25.9997,27.9998638671875,25.9997,27.9998638671875C25.9997,27.9998638671875,26,25.9998638671875,26,25.9998638671875C26,25.9998638671875,26,25.9998638671875,26,25.9998638671875ZM19.999299999999998,25.9990638671875C19.999299999999998,25.9990638671875,19.999299999999998,25.9990638671875,19.999299999999998,25.9990638671875C19.999299999999998,25.9990638671875,18.585,27.4131638671875,18.585,27.4131638671875C18.96,27.7882638671875,19.468600000000002,27.9989638671875,19.999000000000002,27.9990638671875C19.999000000000002,27.9990638671875,19.999299999999998,25.9990638671875,19.999299999999998,25.9990638671875C19.999299999999998,25.9990638671875,19.999299999999998,25.9990638671875,19.999299999999998,25.9990638671875ZM19.999299999999998,25.9990638671875C19.999299999999998,25.9990638671875,19.999299999999998,25.9990638671875,19.999299999999998,25.9990638671875C19.999299999999998,25.9990638671875,17.999299999999998,25.9990638671875,17.999299999999998,25.9990638671875C17.999299999999998,26.5294638671875,18.209899999999998,27.0381638671875,18.585,27.4131638671875C18.585,27.4131638671875,19.999299999999998,25.9990638671875,19.999299999999998,25.9990638671875C19.999299999999998,25.9990638671875,19.999299999999998,25.9990638671875,19.999299999999998,25.9990638671875Z" fill="#FFFFFF" fill-opacity="1"/></g></g></svg>