<svg xmlns="http://www.w3.org/2000/svg" xmlns:xlink="http://www.w3.org/1999/xlink" fill="none" version="1.1" width="32" height="32" viewBox="0 0 32 32"><g><g></g><g><path d="M28,25.1111C28,25.1111,29,25.1111,29,25.1111C29,25.1111,28,25.1111,28,25.1111C28,25.1111,28,25.1111,28,25.1111ZM5,7C5,7,5,8,5,8C5,8,5,7,5,7C5,7,5,7,5,7ZM12.26667,7.2C12.26667,7.2,11.66667,8,11.66667,8C11.66667,8,11.66667,8,11.66667,8C11.66667,8,12.26667,7.2,12.26667,7.2C12.26667,7.2,12.26667,7.2,12.26667,7.2ZM15.7333,9.8C15.7333,9.8,16.3333,9,16.3333,9C16.3333,9,16.3333,9,16.3333,9C16.3333,9,15.7333,9.8,15.7333,9.8C15.7333,9.8,15.7333,9.8,15.7333,9.8ZM16.3333,10C16.3333,10,16.3333,9,16.3333,9C16.3333,9,16.3333,10,16.3333,10C16.3333,10,16.3333,10,16.3333,10ZM27,11C27,11,27,25.1111,27,25.1111C27,25.1111,29,25.1111,29,25.1111C29,25.1111,29,11,29,11C29,11,27,11,27,11C27,11,27,11,27,11ZM27,25.1111C27,25.0816,27.0117,25.0534,27.0325,25.0325C27.0325,25.0325,28.4468,26.4468,28.4468,26.4468C28.801,26.0925,29,25.6121,29,25.1111C29,25.1111,27,25.1111,27,25.1111C27,25.1111,27,25.1111,27,25.1111ZM27.0325,25.0325C27.0534,25.0117,27.0816,25,27.1111,25C27.1111,25,27.1111,27,27.1111,27C27.6121,27,28.0925,26.801,28.4468,26.4468C28.4468,26.4468,27.0325,25.0325,27.0325,25.0325C27.0325,25.0325,27.0325,25.0325,27.0325,25.0325ZM27.1111,25C27.1111,25,5,25,5,25C5,25,5,27,5,27C5,27,27.1111,27,27.1111,27C27.1111,27,27.1111,25,27.1111,25C27.1111,25,27.1111,25,27.1111,25ZM5,25C5,25,5,25,5,25C5,25,3.585787,26.4142,3.585787,26.4142C3.960861,26.7893,4.46957,27,5,27C5,27,5,25,5,25C5,25,5,25,5,25ZM5,25C5,25,5,25,5,25C5,25,3,25,3,25C3,25.5304,3.210714,26.0391,3.585787,26.4142C3.585787,26.4142,5,25,5,25C5,25,5,25,5,25ZM5,25C5,25,5,8,5,8C5,8,3,8,3,8C3,8,3,25,3,25C3,25,5,25,5,25C5,25,5,25,5,25ZM5,8C5,8,5,8,5,8C5,8,3.585787,6.585787,3.585787,6.585787C3.210714,6.960859,3,7.46957,3,8C3,8,5,8,5,8C5,8,5,8,5,8ZM5,8C5,8,5,8,5,8C5,8,5,6,5,6C4.46957,6,3.960859,6.210714,3.585787,6.585787C3.585787,6.585787,5,8,5,8C5,8,5,8,5,8ZM5,8C5,8,11.66667,8,11.66667,8C11.66667,8,11.66667,6,11.66667,6C11.66667,6,5,6,5,6C5,6,5,8,5,8C5,8,5,8,5,8ZM11.66667,8C11.66667,8,11.66667,8,11.66667,8C11.66667,8,12.86667,6.4,12.86667,6.4C12.52047,6.140355,12.09941,6,11.66667,6C11.66667,6,11.66667,8,11.66667,8C11.66667,8,11.66667,8,11.66667,8ZM11.66667,8C11.66667,8,15.1333,10.6,15.1333,10.6C15.1333,10.6,16.3333,9,16.3333,9C16.3333,9,12.86667,6.4,12.86667,6.4C12.86667,6.4,11.66667,8,11.66667,8C11.66667,8,11.66667,8,11.66667,8ZM15.1333,10.6C15.4795,10.85965,15.9006,11,16.3333,11C16.3333,11,16.3333,9,16.3333,9C16.3333,9,16.3333,9,16.3333,9C16.3333,9,15.1333,10.6,15.1333,10.6C15.1333,10.6,15.1333,10.6,15.1333,10.6ZM16.3333,11C16.3333,11,27,11,27,11C27,11,27,9,27,9C27,9,16.3333,9,16.3333,9C16.3333,9,16.3333,11,16.3333,11C16.3333,11,16.3333,11,16.3333,11ZM27,11C27,11,27,11,27,11C27,11,28.4142,9.58579,28.4142,9.58579C28.0391,9.21071,27.5304,9,27,9C27,9,27,11,27,11C27,11,27,11,27,11ZM27,11C27,11,27,11,27,11C27,11,29,11,29,11C29,10.469570000000001,28.7893,9.96086,28.4142,9.58579C28.4142,9.58579,27,11,27,11C27,11,27,11,27,11Z" fill="#FFFFFF" fill-opacity="1"/></g></g></svg>