<svg xmlns="http://www.w3.org/2000/svg" xmlns:xlink="http://www.w3.org/1999/xlink" fill="none" version="1.1" width="32" height="32" viewBox="0 0 32 32"><g><g></g><g><path d="M6,19C6,19,26,19,26,19C26,19,26,17,26,17C26,17,6,17,6,17C6,17,6,19,6,19C6,19,6,19,6,19ZM26,19C26,19,28,19,28,19C28,17.89543,27.1046,17,26,17C26,17,26,19,26,19C26,19,26,19,26,19ZM26,19C26,19,26,24,26,24C26,24,28,24,28,24C28,24,28,19,28,19C28,19,26,19,26,19C26,19,26,19,26,19ZM26,24C26,24,26,26,26,26C27.1046,26,28,25.104570000000002,28,24C28,24,26,24,26,24C26,24,26,24,26,24ZM26,24C26,24,6,24,6,24C6,24,6,26,6,26C6,26,26,26,26,26C26,26,26,24,26,24C26,24,26,24,26,24ZM6,24C6,24,4,24,4,24C4,25.104570000000002,4.89543,26,6,26C6,26,6,24,6,24C6,24,6,24,6,24ZM6,24C6,24,6,19,6,19C6,19,4,19,4,19C4,19,4,24,4,24C4,24,6,24,6,24C6,24,6,24,6,24ZM6,19C6,19,6,17,6,17C4.89543,17,4,17.89543,4,19C4,19,6,19,6,19C6,19,6,19,6,19Z" fill="#FFFFFF" fill-opacity="1"/></g><g><path d="M6,8C6,8,26,8,26,8C26,8,26,6,26,6C26,6,6,6,6,6C6,6,6,8,6,8C6,8,6,8,6,8ZM26,8C26,8,28,8,28,8C28,6.89543,27.1046,6,26,6C26,6,26,8,26,8C26,8,26,8,26,8ZM26,8C26,8,26,13,26,13C26,13,28,13,28,13C28,13,28,8,28,8C28,8,26,8,26,8C26,8,26,8,26,8ZM26,13C26,13,26,15,26,15C27.1046,15,28,14.10457,28,13C28,13,26,13,26,13C26,13,26,13,26,13ZM26,13C26,13,6,13,6,13C6,13,6,15,6,15C6,15,26,15,26,15C26,15,26,13,26,13C26,13,26,13,26,13ZM6,13C6,13,4,13,4,13C4,14.10457,4.89543,15,6,15C6,15,6,13,6,13C6,13,6,13,6,13ZM6,13C6,13,6,8,6,8C6,8,4,8,4,8C4,8,4,13,4,13C4,13,6,13,6,13C6,13,6,13,6,13ZM6,8C6,8,6,6,6,6C4.89543,6,4,6.89543,4,8C4,8,6,8,6,8C6,8,6,8,6,8Z" fill="#FFFFFF" fill-opacity="1"/></g></g></svg>