<svg xmlns="http://www.w3.org/2000/svg" xmlns:xlink="http://www.w3.org/1999/xlink" fill="none" version="1.1" width="32" height="32" viewBox="0 0 32 32"><g><g></g><g><path d="M27,16C27,22.0751,22.0751,27,16,27C16,27,16,29,16,29C23.1797,29,29,23.1797,29,16C29,16,27,16,27,16C27,16,27,16,27,16ZM16,27C9.92487,27,5,22.0751,5,16C5,16,3,16,3,16C3,23.1797,8.8203,29,16,29C16,29,16,27,16,27C16,27,16,27,16,27ZM5,16C5,9.92487,9.92487,5,16,5C16,5,16,3,16,3C8.8203,3,3,8.8203,3,16C3,16,5,16,5,16C5,16,5,16,5,16ZM16,5C22.0751,5,27,9.92487,27,16C27,16,29,16,29,16C29,8.8203,23.1797,3,16,3C16,3,16,5,16,5C16,5,16,5,16,5Z" fill="#FFFFFF" fill-opacity="1"/></g><g><path d="M12.464435172424317,16.050262948791502C12.073905172424316,15.659740248791504,11.440741172424316,15.659740248791504,11.050217172424317,16.050262948791502C10.659694472424317,16.440787948791503,10.659694472424317,17.073950948791506,11.050217172424317,17.464480948791504C11.050217172424317,17.464480948791504,12.464435172424317,16.050262948791502,12.464435172424317,16.050262948791502C12.464435172424317,16.050262948791502,12.464435172424317,16.050262948791502,12.464435172424317,16.050262948791502ZM15.999955172424317,20.999990948791503C15.999955172424317,20.999990948791503,15.292845172424316,21.707100948791503,15.292845172424316,21.707100948791503C15.683365172424317,22.097630948791505,16.316535172424317,22.097630948791505,16.707055172424315,21.707100948791503C16.707055172424315,21.707100948791503,15.999955172424317,20.999990948791503,15.999955172424317,20.999990948791503C15.999955172424317,20.999990948791503,15.999955172424317,20.999990948791503,15.999955172424317,20.999990948791503ZM20.949725172424316,17.464480948791504C21.34022517242432,17.073950948791506,21.34022517242432,16.440786948791505,20.949725172424316,16.050262948791502C20.55915517242432,15.659740248791504,19.925995172424315,15.659740248791504,19.535465172424317,16.050262948791502C19.535465172424317,16.050262948791502,20.949725172424316,17.464480948791504,20.949725172424316,17.464480948791504C20.949725172424316,17.464480948791504,20.949725172424316,17.464480948791504,20.949725172424316,17.464480948791504ZM11.050217172424317,17.464480948791504C11.050217172424317,17.464480948791504,15.292845172424316,21.707100948791503,15.292845172424316,21.707100948791503C15.292845172424316,21.707100948791503,16.707055172424315,20.292890948791502,16.707055172424315,20.292890948791502C16.707055172424315,20.292890948791502,12.464435172424317,16.050262948791502,12.464435172424317,16.050262948791502C12.464435172424317,16.050262948791502,11.050217172424317,17.464480948791504,11.050217172424317,17.464480948791504C11.050217172424317,17.464480948791504,11.050217172424317,17.464480948791504,11.050217172424317,17.464480948791504ZM16.707055172424315,21.707100948791503C16.707055172424315,21.707100948791503,20.949725172424316,17.464480948791504,20.949725172424316,17.464480948791504C20.949725172424316,17.464480948791504,19.535465172424317,16.050262948791502,19.535465172424317,16.050262948791502C19.535465172424317,16.050262948791502,15.292845172424316,20.292890948791502,15.292845172424316,20.292890948791502C15.292845172424316,20.292890948791502,16.707055172424315,21.707100948791503,16.707055172424315,21.707100948791503C16.707055172424315,21.707100948791503,16.707055172424315,21.707100948791503,16.707055172424315,21.707100948791503Z" fill="#FFFFFF" fill-opacity="1"/></g><g><path d="M17,11C17,10.447715,16.55228,10,16,10C15.447715,10,15,10.447715,15,11C15,11,17,11,17,11C17,11,17,11,17,11ZM15,21C15,21.552300000000002,15.447715,22,16,22C16.55228,22,17,21.552300000000002,17,21C17,21,15,21,15,21C15,21,15,21,15,21ZM15,11C15,11,15,21,15,21C15,21,17,21,17,21C17,21,17,11,17,11C17,11,15,11,15,11C15,11,15,11,15,11Z" fill="#FFFFFF" fill-opacity="1"/></g></g></svg>