<svg xmlns="http://www.w3.org/2000/svg" xmlns:xlink="http://www.w3.org/1999/xlink" fill="none" version="1.1" width="32" height="32" viewBox="0 0 32 32"><g><g></g><g><path d="M24,14.5C24,19.7467,19.7467,24,14.5,24C14.5,24,14.5,26,14.5,26C20.8513,26,26,20.8513,26,14.5C26,14.5,24,14.5,24,14.5C24,14.5,24,14.5,24,14.5ZM14.5,24C9.25329,24,5,19.7467,5,14.5C5,14.5,3,14.5,3,14.5C3,20.8513,8.14873,26,14.5,26C14.5,26,14.5,24,14.5,24C14.5,24,14.5,24,14.5,24ZM5,14.5C5,9.25329,9.25329,5,14.5,5C14.5,5,14.5,3,14.5,3C8.14873,3,3,8.14873,3,14.5C3,14.5,5,14.5,5,14.5C5,14.5,5,14.5,5,14.5ZM14.5,5C19.7467,5,24,9.25329,24,14.5C24,14.5,26,14.5,26,14.5C26,8.14873,20.8513,3,14.5,3C14.5,3,14.5,5,14.5,5C14.5,5,14.5,5,14.5,5Z" fill="#FFFFFF" fill-opacity="1"/></g><g><path d="M22.63142640625,21.217940828125C22.240896406250002,20.827418128125,21.60773240625,20.827418128125,21.21720840625,21.217940828125C20.82668570625,21.608464828125,20.82668570625,22.241628828125002,21.21720840625,22.632158828125C21.21720840625,22.632158828125,22.63142640625,21.217940828125,22.63142640625,21.217940828125C22.63142640625,21.217940828125,22.63142640625,21.217940828125,22.63142640625,21.217940828125ZM27.29228640625,28.707228828125C27.682806406250002,29.097748828125,28.31597640625,29.097748828125,28.70649640625,28.707228828125C29.09701640625,28.316708828125,29.09701640625,27.683538828125002,28.70649640625,27.293018828125C28.70649640625,27.293018828125,27.29228640625,28.707228828125,27.29228640625,28.707228828125C27.29228640625,28.707228828125,27.29228640625,28.707228828125,27.29228640625,28.707228828125ZM21.21720840625,22.632158828125C21.21720840625,22.632158828125,27.29228640625,28.707228828125,27.29228640625,28.707228828125C27.29228640625,28.707228828125,28.70649640625,27.293018828125,28.70649640625,27.293018828125C28.70649640625,27.293018828125,22.63142640625,21.217940828125,22.63142640625,21.217940828125C22.63142640625,21.217940828125,21.21720840625,22.632158828125,21.21720840625,22.632158828125C21.21720840625,22.632158828125,21.21720840625,22.632158828125,21.21720840625,22.632158828125Z" fill="#FFFFFF" fill-opacity="1"/></g></g></svg>