<svg xmlns="http://www.w3.org/2000/svg" xmlns:xlink="http://www.w3.org/1999/xlink" fill="none" version="1.1" width="32" height="32" viewBox="0 0 32 32"><defs><clipPath id="master_svg0_0_291"><rect x="0" y="0" width="32" height="32" rx="0"/></clipPath></defs><g clip-path="url(#master_svg0_0_291)"><g><path d="M28.333366746139525,15.999966746139526C28.333366746139525,22.811466746139526,22.811466746139526,28.333366746139525,15.999966746139526,28.333366746139525C15.999966746139526,28.333366746139525,15.999966746139526,30.333366746139525,15.999966746139526,30.333366746139525C23.916066746139528,30.333366746139525,30.333366746139525,23.916066746139528,30.333366746139525,15.999966746139526C30.333366746139525,15.999966746139526,28.333366746139525,15.999966746139526,28.333366746139525,15.999966746139526C28.333366746139525,15.999966746139526,28.333366746139525,15.999966746139526,28.333366746139525,15.999966746139526ZM15.999966746139526,28.333366746139525C9.188486746139526,28.333366746139525,3.6666667461395264,22.811466746139526,3.6666667461395264,15.999966746139526C3.6666667461395264,15.999966746139526,1.6666667461395264,15.999966746139526,1.6666667461395264,15.999966746139526C1.6666667461395264,23.916066746139528,8.083916746139526,30.333366746139525,15.999966746139526,30.333366746139525C15.999966746139526,30.333366746139525,15.999966746139526,28.333366746139525,15.999966746139526,28.333366746139525C15.999966746139526,28.333366746139525,15.999966746139526,28.333366746139525,15.999966746139526,28.333366746139525ZM3.6666667461395264,15.999966746139526C3.6666667461395264,9.188486746139526,9.188486746139526,3.6666667461395264,15.999966746139526,3.6666667461395264C15.999966746139526,3.6666667461395264,15.999966746139526,1.6666667461395264,15.999966746139526,1.6666667461395264C8.083916746139526,1.6666667461395264,1.6666667461395264,8.083916746139526,1.6666667461395264,15.999966746139526C1.6666667461395264,15.999966746139526,3.6666667461395264,15.999966746139526,3.6666667461395264,15.999966746139526C3.6666667461395264,15.999966746139526,3.6666667461395264,15.999966746139526,3.6666667461395264,15.999966746139526ZM15.999966746139526,3.6666667461395264C22.811466746139526,3.6666667461395264,28.333366746139525,9.188486746139526,28.333366746139525,15.999966746139526C28.333366746139525,15.999966746139526,30.333366746139525,15.999966746139526,30.333366746139525,15.999966746139526C30.333366746139525,8.083916746139526,23.916066746139528,1.6666667461395264,15.999966746139526,1.6666667461395264C15.999966746139526,1.6666667461395264,15.999966746139526,3.6666667461395264,15.999966746139526,3.6666667461395264C15.999966746139526,3.6666667461395264,15.999966746139526,3.6666667461395264,15.999966746139526,3.6666667461395264Z" fill="#FFFFFF" fill-opacity="1"/></g><g><path d="M19,16C19,17.65685,17.65685,19,16,19C16,19,16,21,16,21C18.76142,21,21,18.76142,21,16C21,16,19,16,19,16C19,16,19,16,19,16ZM16,19C14.34315,19,13,17.65685,13,16C13,16,11,16,11,16C11,18.76142,13.238579999999999,21,16,21C16,21,16,19,16,19C16,19,16,19,16,19ZM13,16C13,14.34315,14.34315,13,16,13C16,13,16,11,16,11C13.238579999999999,11,11,13.238579999999999,11,16C11,16,13,16,13,16C13,16,13,16,13,16ZM16,13C17.65685,13,19,14.34315,19,16C19,16,21,16,21,16C21,13.238579999999999,18.76142,11,16,11C16,11,16,13,16,13C16,13,16,13,16,13Z" fill="#FFFFFF" fill-opacity="1"/></g></g></svg>