<svg xmlns="http://www.w3.org/2000/svg" xmlns:xlink="http://www.w3.org/1999/xlink" fill="none" version="1.1" width="32" height="32" viewBox="0 0 32 32"><g><g></g><g><path d="M25,25.1111C25,25.1111,26,25.1111,26,25.1111C26,25.1111,25,25.1111,25,25.1111C25,25.1111,25,25.1111,25,25.1111ZM11.26667,10.2C11.26667,10.2,10.66667,11,10.66667,11C10.66667,11,10.66667,11,10.66667,11C10.66667,11,11.26667,10.2,11.26667,10.2C11.26667,10.2,11.26667,10.2,11.26667,10.2ZM14.7333,12.8C14.7333,12.8,15.3333,12,15.3333,12C15.3333,12,15.3333,12,15.3333,12C15.3333,12,14.7333,12.8,14.7333,12.8C14.7333,12.8,14.7333,12.8,14.7333,12.8ZM24,13C24,13,24,12,24,12C24,12,24,13,24,13C24,13,24,13,24,13ZM24,14C24,14,24,25.1111,24,25.1111C24,25.1111,26,25.1111,26,25.1111C26,25.1111,26,14,26,14C26,14,24,14,24,14C24,14,24,14,24,14ZM24,25.1111C24,25.0816,24.0117,25.0534,24.0325,25.0325C24.0325,25.0325,25.4468,26.4468,25.4468,26.4468C25.801,26.0925,26,25.6121,26,25.1111C26,25.1111,24,25.1111,24,25.1111C24,25.1111,24,25.1111,24,25.1111ZM24.0325,25.0325C24.0534,25.0117,24.0816,25,24.1111,25C24.1111,25,24.1111,27,24.1111,27C24.6121,27,25.0925,26.801,25.4468,26.4468C25.4468,26.4468,24.0325,25.0325,24.0325,25.0325C24.0325,25.0325,24.0325,25.0325,24.0325,25.0325ZM24.1111,25C24.1111,25,5,25,5,25C5,25,5,27,5,27C5,27,24.1111,27,24.1111,27C24.1111,27,24.1111,25,24.1111,25C24.1111,25,24.1111,25,24.1111,25ZM5,25C5,25,5,25,5,25C5,25,3.585787,26.4142,3.585787,26.4142C3.960861,26.7893,4.46957,27,5,27C5,27,5,25,5,25C5,25,5,25,5,25ZM5,25C5,25,5,25,5,25C5,25,3,25,3,25C3,25.5304,3.210714,26.0391,3.585787,26.4142C3.585787,26.4142,5,25,5,25C5,25,5,25,5,25ZM5,25C5,25,5,11,5,11C5,11,3,11,3,11C3,11,3,25,3,25C3,25,5,25,5,25C5,25,5,25,5,25ZM5,11C5,11,5,11,5,11C5,11,3.585787,9.585787,3.585787,9.585787C3.210714,9.960859,3,10.469570000000001,3,11C3,11,5,11,5,11C5,11,5,11,5,11ZM5,11C5,11,5,11,5,11C5,11,5,9,5,9C4.46957,9,3.960859,9.210714,3.585787,9.585787C3.585787,9.585787,5,11,5,11C5,11,5,11,5,11ZM5,11C5,11,10.66667,11,10.66667,11C10.66667,11,10.66667,9,10.66667,9C10.66667,9,5,9,5,9C5,9,5,11,5,11C5,11,5,11,5,11ZM10.66667,11C10.66667,11,10.66667,11,10.66667,11C10.66667,11,11.86667,9.4,11.86667,9.4C11.52047,9.140355,11.09941,9,10.66667,9C10.66667,9,10.66667,11,10.66667,11C10.66667,11,10.66667,11,10.66667,11ZM10.66667,11C10.66667,11,14.1333,13.6,14.1333,13.6C14.1333,13.6,15.3333,12,15.3333,12C15.3333,12,11.86667,9.4,11.86667,9.4C11.86667,9.4,10.66667,11,10.66667,11C10.66667,11,10.66667,11,10.66667,11ZM14.1333,13.6C14.4795,13.85965,14.9006,14,15.3333,14C15.3333,14,15.3333,12,15.3333,12C15.3333,12,15.3333,12,15.3333,12C15.3333,12,14.1333,13.6,14.1333,13.6C14.1333,13.6,14.1333,13.6,14.1333,13.6ZM15.3333,14C15.3333,14,24,14,24,14C24,14,24,12,24,12C24,12,15.3333,12,15.3333,12C15.3333,12,15.3333,14,15.3333,14C15.3333,14,15.3333,14,15.3333,14ZM24,14C24,14,24,14,24,14C24,14,25.4142,12.58579,25.4142,12.58579C25.0391,12.21071,24.5304,12,24,12C24,12,24,14,24,14C24,14,24,14,24,14ZM24,14C24,14,24,14,24,14C24,14,26,14,26,14C26,13.469570000000001,25.7893,12.96086,25.4142,12.58579C25.4142,12.58579,24,14,24,14C24,14,24,14,24,14Z" fill="#FFFFFF" fill-opacity="1"/></g><g><path d="M25,25.1111C25,25.1111,26,25.1111,26,25.1111C26,25.1111,25,25.1111,25,25.1111C25,25.1111,25,25.1111,25,25.1111ZM11.26667,10.2C11.26667,10.2,10.66667,11,10.66667,11C10.66667,11,10.66667,11,10.66667,11C10.66667,11,11.26667,10.2,11.26667,10.2C11.26667,10.2,11.26667,10.2,11.26667,10.2ZM14.7333,12.8C14.7333,12.8,15.3333,12,15.3333,12C15.3333,12,15.3333,12,15.3333,12C15.3333,12,14.7333,12.8,14.7333,12.8C14.7333,12.8,14.7333,12.8,14.7333,12.8ZM24,13C24,13,24,12,24,12C24,12,24,13,24,13C24,13,24,13,24,13ZM24,14C24,14,24,25.1111,24,25.1111C24,25.1111,26,25.1111,26,25.1111C26,25.1111,26,14,26,14C26,14,24,14,24,14C24,14,24,14,24,14ZM24,25.1111C24,25.0816,24.0117,25.0534,24.0325,25.0325C24.0325,25.0325,25.4468,26.4468,25.4468,26.4468C25.801,26.0925,26,25.6121,26,25.1111C26,25.1111,24,25.1111,24,25.1111C24,25.1111,24,25.1111,24,25.1111ZM24.0325,25.0325C24.0534,25.0117,24.0816,25,24.1111,25C24.1111,25,24.1111,27,24.1111,27C24.6121,27,25.0925,26.801,25.4468,26.4468C25.4468,26.4468,24.0325,25.0325,24.0325,25.0325C24.0325,25.0325,24.0325,25.0325,24.0325,25.0325ZM24.1111,25C24.1111,25,5,25,5,25C5,25,5,27,5,27C5,27,24.1111,27,24.1111,27C24.1111,27,24.1111,25,24.1111,25C24.1111,25,24.1111,25,24.1111,25ZM5,25C5,25,5,25,5,25C5,25,3.585787,26.4142,3.585787,26.4142C3.960861,26.7893,4.46957,27,5,27C5,27,5,25,5,25C5,25,5,25,5,25ZM5,25C5,25,5,25,5,25C5,25,3,25,3,25C3,25.5304,3.210714,26.0391,3.585787,26.4142C3.585787,26.4142,5,25,5,25C5,25,5,25,5,25ZM5,25C5,25,5,11,5,11C5,11,3,11,3,11C3,11,3,25,3,25C3,25,5,25,5,25C5,25,5,25,5,25ZM5,11C5,11,5,11,5,11C5,11,3.585787,9.585787,3.585787,9.585787C3.210714,9.960859,3,10.469570000000001,3,11C3,11,5,11,5,11C5,11,5,11,5,11ZM5,11C5,11,5,11,5,11C5,11,5,9,5,9C4.46957,9,3.960859,9.210714,3.585787,9.585787C3.585787,9.585787,5,11,5,11C5,11,5,11,5,11ZM5,11C5,11,10.66667,11,10.66667,11C10.66667,11,10.66667,9,10.66667,9C10.66667,9,5,9,5,9C5,9,5,11,5,11C5,11,5,11,5,11ZM10.66667,11C10.66667,11,10.66667,11,10.66667,11C10.66667,11,11.86667,9.4,11.86667,9.4C11.52047,9.140355,11.09941,9,10.66667,9C10.66667,9,10.66667,11,10.66667,11C10.66667,11,10.66667,11,10.66667,11ZM10.66667,11C10.66667,11,14.1333,13.6,14.1333,13.6C14.1333,13.6,15.3333,12,15.3333,12C15.3333,12,11.86667,9.4,11.86667,9.4C11.86667,9.4,10.66667,11,10.66667,11C10.66667,11,10.66667,11,10.66667,11ZM14.1333,13.6C14.4795,13.85965,14.9006,14,15.3333,14C15.3333,14,15.3333,12,15.3333,12C15.3333,12,15.3333,12,15.3333,12C15.3333,12,14.1333,13.6,14.1333,13.6C14.1333,13.6,14.1333,13.6,14.1333,13.6ZM15.3333,14C15.3333,14,24,14,24,14C24,14,24,12,24,12C24,12,15.3333,12,15.3333,12C15.3333,12,15.3333,14,15.3333,14C15.3333,14,15.3333,14,15.3333,14ZM24,14C24,14,24,14,24,14C24,14,25.4142,12.58579,25.4142,12.58579C25.0391,12.21071,24.5304,12,24,12C24,12,24,14,24,14C24,14,24,14,24,14ZM24,14C24,14,24,14,24,14C24,14,26,14,26,14C26,13.469570000000001,25.7893,12.96086,25.4142,12.58579C25.4142,12.58579,24,14,24,14C24,14,24,14,24,14Z" fill="#FFFFFF" fill-opacity="1"/></g><g><path d="M7,10C7,10.55228,7.447715,11,8,11C8.55228,11,9,10.55228,9,10C9,10,7,10,7,10C7,10,7,10,7,10ZM8,7C8,7,9,7,9,7C9,7,8,7,8,7C8,7,8,7,8,7ZM9,6C9,6,9,7,9,7C9,7,9,6,9,6C9,6,9,6,9,6ZM14.66667,6C14.66667,6,14.66667,5,14.66667,5C14.66667,5,14.66667,6,14.66667,6C14.66667,6,14.66667,6,14.66667,6ZM15.26667,6.2C15.26667,6.2,14.66667,7,14.66667,7C14.66667,7,14.66667,7,14.66667,7C14.66667,7,15.26667,6.2,15.26667,6.2C15.26667,6.2,15.26667,6.2,15.26667,6.2ZM18.7333,8.8C18.7333,8.8,19.3333,8,19.3333,8C19.3333,8,19.3333,8,19.3333,8C19.3333,8,18.7333,8.8,18.7333,8.8C18.7333,8.8,18.7333,8.8,18.7333,8.8ZM19.3333,9C19.3333,9,19.3333,8,19.3333,8C19.3333,8,19.3333,9,19.3333,9C19.3333,9,19.3333,9,19.3333,9ZM28.1111,22C28.1111,22,28.1111,23,28.1111,23C28.1111,23,28.1111,22,28.1111,22C28.1111,22,28.1111,22,28.1111,22ZM25,21C24.4477,21,24,21.4477,24,22C24,22.5523,24.4477,23,25,23C25,23,25,21,25,21C25,21,25,21,25,21ZM9,10C9,10,9,7,9,7C9,7,7,7,7,7C7,7,7,10,7,10C7,10,9,10,9,10C9,10,9,10,9,10ZM9,7C9,7,9,7,9,7C9,7,7.585787,5.585787,7.585787,5.585787C7.210714,5.960859,7,6.46957,7,7C7,7,9,7,9,7C9,7,9,7,9,7ZM9,7C9,7,9,7,9,7C9,7,9,5,9,5C8.469570000000001,5,7.960859,5.210714,7.585787,5.585787C7.585787,5.585787,9,7,9,7C9,7,9,7,9,7ZM9,7C9,7,14.66667,7,14.66667,7C14.66667,7,14.66667,5,14.66667,5C14.66667,5,9,5,9,5C9,5,9,7,9,7C9,7,9,7,9,7ZM14.66667,7C14.66667,7,14.66667,7,14.66667,7C14.66667,7,15.86667,5.4,15.86667,5.4C15.52047,5.140355,15.09941,5,14.66667,5C14.66667,5,14.66667,7,14.66667,7C14.66667,7,14.66667,7,14.66667,7ZM14.66667,7C14.66667,7,18.1333,9.6,18.1333,9.6C18.1333,9.6,19.3333,8,19.3333,8C19.3333,8,15.86667,5.4,15.86667,5.4C15.86667,5.4,14.66667,7,14.66667,7C14.66667,7,14.66667,7,14.66667,7ZM18.1333,9.6C18.4795,9.85965,18.9006,10,19.3333,10C19.3333,10,19.3333,8,19.3333,8C19.3333,8,19.3333,8,19.3333,8C19.3333,8,18.1333,9.6,18.1333,9.6C18.1333,9.6,18.1333,9.6,18.1333,9.6ZM19.3333,10C19.3333,10,28,10,28,10C28,10,28,8,28,8C28,8,19.3333,8,19.3333,8C19.3333,8,19.3333,10,19.3333,10C19.3333,10,19.3333,10,19.3333,10ZM28,10C28,10,28,10,28,10C28,10,29.4142,8.58579,29.4142,8.58579C29.0391,8.21071,28.5304,8,28,8C28,8,28,10,28,10C28,10,28,10,28,10ZM28,10C28,10,28,10,28,10C28,10,30,10,30,10C30,9.469570000000001,29.7893,8.96086,29.4142,8.58579C29.4142,8.58579,28,10,28,10C28,10,28,10,28,10ZM28,10C28,10,28,21.1111,28,21.1111C28,21.1111,30,21.1111,30,21.1111C30,21.1111,30,10,30,10C30,10,28,10,28,10C28,10,28,10,28,10ZM28,21.1111C28,21.0965,28.0029,21.0821,28.0085,21.0686C28.0085,21.0686,29.8562,21.834,29.8562,21.834C29.9511,21.6048,30,21.3592,30,21.1111C30,21.1111,28,21.1111,28,21.1111C28,21.1111,28,21.1111,28,21.1111ZM28.0085,21.0686C28.014,21.0551,28.0222,21.0429,28.0325,21.0325C28.0325,21.0325,29.4468,22.4468,29.4468,22.4468C29.6222,22.2714,29.7613,22.0631,29.8562,21.834C29.8562,21.834,28.0085,21.0686,28.0085,21.0686C28.0085,21.0686,28.0085,21.0686,28.0085,21.0686ZM28.0325,21.0325C28.0429,21.0222,28.0551,21.014,28.0686,21.0085C28.0686,21.0085,28.834,22.8562,28.834,22.8562C29.0631,22.7613,29.2714,22.6222,29.4468,22.4468C29.4468,22.4468,28.0325,21.0325,28.0325,21.0325C28.0325,21.0325,28.0325,21.0325,28.0325,21.0325ZM28.0686,21.0085C28.0821,21.0029,28.0965,21,28.1111,21C28.1111,21,28.1111,23,28.1111,23C28.3592,23,28.6048,22.9511,28.834,22.8562C28.834,22.8562,28.0686,21.0085,28.0686,21.0085C28.0686,21.0085,28.0686,21.0085,28.0686,21.0085ZM28.1111,21C28.1111,21,25,21,25,21C25,21,25,23,25,23C25,23,28.1111,23,28.1111,23C28.1111,23,28.1111,21,28.1111,21C28.1111,21,28.1111,21,28.1111,21Z" fill="#FFFFFF" fill-opacity="1"/></g></g></svg>