<svg xmlns="http://www.w3.org/2000/svg" xmlns:xlink="http://www.w3.org/1999/xlink" fill="none" version="1.1" width="32" height="32" viewBox="0 0 32 32"><g><g></g><g><path d="M5.26073956489563,5C4.70845956489563,5,4.26073956489563,5.447715,4.26073956489563,6C4.26073956489563,6.55228,4.70845956489563,7,5.26073956489563,7C5.26073956489563,7,5.26073956489563,5,5.26073956489563,5C5.26073956489563,5,5.26073956489563,5,5.26073956489563,5ZM26.73963956489563,6C26.73963956489563,6,26.73963956489563,5,26.73963956489563,5C26.73963956489563,5,26.73963956489563,5,26.73963956489563,5C26.73963956489563,5,26.73963956489563,6,26.73963956489563,6C26.73963956489563,6,26.73963956489563,6,26.73963956489563,6ZM27.47953956489563,7.67267C27.47953956489563,7.67267,28.21953956489563,8.34535,28.21953956489563,8.34535C28.21953956489563,8.34535,28.21953956489563,8.34534,28.21953956489563,8.34534C28.21953956489563,8.34534,27.47953956489563,7.67267,27.47953956489563,7.67267C27.47953956489563,7.67267,27.47953956489563,7.67267,27.47953956489563,7.67267ZM19.260239564895627,16.713900000000002C19.260239564895627,16.713900000000002,20.00013956489563,17.3866,20.00013956489563,17.3866C20.00013956489563,17.3866,20.00013956489563,17.3866,20.00013956489563,17.3866C20.00013956489563,17.3866,19.260239564895627,16.713900000000002,19.260239564895627,16.713900000000002C19.260239564895627,16.713900000000002,19.260239564895627,16.713900000000002,19.260239564895627,16.713900000000002ZM19.00013956489563,17.3866C19.00013956489563,17.3866,18.00013956489563,17.3866,18.00013956489563,17.3866C18.00013956489563,17.3866,18.00013956489563,17.3866,18.00013956489563,17.3866C18.00013956489563,17.3866,19.00013956489563,17.3866,19.00013956489563,17.3866C19.00013956489563,17.3866,19.00013956489563,17.3866,19.00013956489563,17.3866ZM19.00013956489563,24.4648C19.00013956489563,24.4648,20.00013956489563,24.4648,20.00013956489563,24.4648C20.00013956489563,24.4648,20.00013956489563,24.4648,20.00013956489563,24.4648C20.00013956489563,24.4648,19.00013956489563,24.4648,19.00013956489563,24.4648C19.00013956489563,24.4648,19.00013956489563,24.4648,19.00013956489563,24.4648ZM18.55493956489563,25.2969C18.55493956489563,25.2969,18.00023956489563,24.4648,18.00023956489563,24.4648C18.00023956489563,24.4648,18.00023956489563,24.4648,18.00023956489563,24.4648C18.00023956489563,24.4648,18.55493956489563,25.2969,18.55493956489563,25.2969C18.55493956489563,25.2969,18.55493956489563,25.2969,18.55493956489563,25.2969ZM14.55483956489563,27.9635C14.55483956489563,27.9635,15.10953956489563,28.7956,15.10953956489563,28.7956C15.10953956489563,28.7956,15.10953956489563,28.7956,15.10953956489563,28.7956C15.10953956489563,28.7956,14.55483956489563,27.9635,14.55483956489563,27.9635C14.55483956489563,27.9635,14.55483956489563,27.9635,14.55483956489563,27.9635ZM13.00018956489563,27.1315C13.00018956489563,27.1315,14.00023956489563,27.1315,14.00023956489563,27.1315C14.00023956489563,27.1315,14.00023956489563,27.1315,14.00023956489563,27.1315C14.00023956489563,27.1315,13.00018956489563,27.1315,13.00018956489563,27.1315C13.00018956489563,27.1315,13.00018956489563,27.1315,13.00018956489563,27.1315ZM13.00018956489563,17.3866C13.00018956489563,17.3866,14.00023956489563,17.3866,14.00023956489563,17.3866C14.00023956489563,17.3866,14.00023956489563,17.3866,14.00023956489563,17.3866C14.00023956489563,17.3866,13.00018956489563,17.3866,13.00018956489563,17.3866C13.00018956489563,17.3866,13.00018956489563,17.3866,13.00018956489563,17.3866ZM12.74012956489563,16.713900000000002C12.74012956489563,16.713900000000002,12.00018956489563,17.3866,12.00018956489563,17.3866C12.00018956489563,17.3866,12.00018956489563,17.3866,12.00018956489563,17.3866C12.00018956489563,17.3866,12.74012956489563,16.713900000000002,12.74012956489563,16.713900000000002C12.74012956489563,16.713900000000002,12.74012956489563,16.713900000000002,12.74012956489563,16.713900000000002ZM4.52079956489563,7.67267C4.52079956489563,7.67267,3.7808625648956298,8.34534,3.7808625648956298,8.34534C3.7808625648956298,8.34534,3.7808625648956298,8.34535,3.7808625648956298,8.34535C3.7808625648956298,8.34535,4.52079956489563,7.67267,4.52079956489563,7.67267C4.52079956489563,7.67267,4.52079956489563,7.67267,4.52079956489563,7.67267ZM5.26073956489563,7C5.26073956489563,7,26.73963956489563,7,26.73963956489563,7C26.73963956489563,7,26.73963956489563,5,26.73963956489563,5C26.73963956489563,5,5.26073956489563,5,5.26073956489563,5C5.26073956489563,5,5.26073956489563,7,5.26073956489563,7C5.26073956489563,7,5.26073956489563,7,5.26073956489563,7ZM26.73963956489563,7C26.73963956489563,7,26.73963956489563,7,26.73963956489563,7C26.73963956489563,7,27.83093956489563,5.323961,27.83093956489563,5.323961C27.50623956489563,5.112546,27.12713956489563,5,26.73963956489563,5C26.73963956489563,5,26.73963956489563,7,26.73963956489563,7C26.73963956489563,7,26.73963956489563,7,26.73963956489563,7ZM26.73963956489563,7C26.73963956489563,7,26.73963956489563,7,26.73963956489563,7C26.73963956489563,7,28.56863956489563,6.19089,28.56863956489563,6.19089C28.41193956489563,5.836555,28.15563956489563,5.535376,27.83093956489563,5.323961C27.83093956489563,5.323961,26.73963956489563,7,26.73963956489563,7C26.73963956489563,7,26.73963956489563,7,26.73963956489563,7ZM26.73963956489563,7C26.73963956489563,7,26.73963956489563,7,26.73963956489563,7C26.73963956489563,7,28.71383956489563,7.31994,28.71383956489563,7.31994C28.77583956489563,6.93747,28.72543956489563,6.54523,28.56863956489563,6.19089C28.56863956489563,6.19089,26.73963956489563,7,26.73963956489563,7C26.73963956489563,7,26.73963956489563,7,26.73963956489563,7ZM26.73963956489563,7C26.73963956489563,7,26.73963956489563,7,26.73963956489563,7C26.73963956489563,7,28.21953956489563,8.34534,28.21953956489563,8.34534C28.48013956489563,8.05865,28.65193956489563,7.70241,28.71383956489563,7.31994C28.71383956489563,7.31994,26.73963956489563,7,26.73963956489563,7C26.73963956489563,7,26.73963956489563,7,26.73963956489563,7ZM26.73963956489563,7C26.73963956489563,7,18.52033956489563,16.0413,18.52033956489563,16.0413C18.52033956489563,16.0413,20.00013956489563,17.3866,20.00013956489563,17.3866C20.00013956489563,17.3866,28.21953956489563,8.34535,28.21953956489563,8.34535C28.21953956489563,8.34535,26.73963956489563,7,26.73963956489563,7C26.73963956489563,7,26.73963956489563,7,26.73963956489563,7ZM18.52033956489563,16.0413C18.18563956489563,16.409399999999998,18.00013956489563,16.8891,18.00013956489563,17.3866C18.00013956489563,17.3866,20.00013956489563,17.3866,20.00013956489563,17.3866C20.00013956489563,17.3866,20.00013956489563,17.3866,20.00013956489563,17.3866C20.00013956489563,17.3866,18.52033956489563,16.0413,18.52033956489563,16.0413C18.52033956489563,16.0413,18.52033956489563,16.0413,18.52033956489563,16.0413ZM18.00013956489563,17.3866C18.00013956489563,17.3866,18.00013956489563,24.4648,18.00013956489563,24.4648C18.00013956489563,24.4648,20.00013956489563,24.4648,20.00013956489563,24.4648C20.00013956489563,24.4648,20.00013956489563,17.3866,20.00013956489563,17.3866C20.00013956489563,17.3866,18.00013956489563,17.3866,18.00013956489563,17.3866C18.00013956489563,17.3866,18.00013956489563,17.3866,18.00013956489563,17.3866ZM18.00013956489563,24.4648C18.00013956489563,24.4648,18.00013956489563,24.4648,18.00013956489563,24.4648C18.00013956489563,24.4648,19.76353956489563,25.4085,19.76353956489563,25.4085C19.91893956489563,25.1182,20.00013956489563,24.7941,20.00013956489563,24.4648C20.00013956489563,24.4648,18.00013956489563,24.4648,18.00013956489563,24.4648C18.00013956489563,24.4648,18.00013956489563,24.4648,18.00013956489563,24.4648ZM18.00013956489563,24.4648C18.00013956489563,24.4648,18.00023956489563,24.4648,18.00023956489563,24.4648C18.00023956489563,24.4648,19.10963956489563,26.1289,19.10963956489563,26.1289C19.38353956489563,25.9463,19.60813956489563,25.6988,19.76353956489563,25.4085C19.76353956489563,25.4085,18.00013956489563,24.4648,18.00013956489563,24.4648C18.00013956489563,24.4648,18.00013956489563,24.4648,18.00013956489563,24.4648ZM18.00023956489563,24.4648C18.00023956489563,24.4648,14.00023956489563,27.1315,14.00023956489563,27.1315C14.00023956489563,27.1315,15.10953956489563,28.7956,15.10953956489563,28.7956C15.10953956489563,28.7956,19.10963956489563,26.1289,19.10963956489563,26.1289C19.10963956489563,26.1289,18.00023956489563,24.4648,18.00023956489563,24.4648C18.00023956489563,24.4648,18.00023956489563,24.4648,18.00023956489563,24.4648ZM14.00023956489563,27.1315C14.00023956489563,27.1315,14.00023956489563,27.1315,14.00023956489563,27.1315C14.00023956489563,27.1315,14.09673956489563,29.1292,14.09673956489563,29.1292C14.45833956489563,29.1117,14.80843956489563,28.9964,15.10953956489563,28.7956C15.10953956489563,28.7956,14.00023956489563,27.1315,14.00023956489563,27.1315C14.00023956489563,27.1315,14.00023956489563,27.1315,14.00023956489563,27.1315ZM14.00023956489563,27.1315C14.00023956489563,27.1315,14.00023956489563,27.1315,14.00023956489563,27.1315C14.00023956489563,27.1315,13.05646956489563,28.8948,13.05646956489563,28.8948C13.37563956489563,29.0656,13.73513956489563,29.1466,14.09673956489563,29.1292C14.09673956489563,29.1292,14.00023956489563,27.1315,14.00023956489563,27.1315C14.00023956489563,27.1315,14.00023956489563,27.1315,14.00023956489563,27.1315ZM14.00023956489563,27.1315C14.00023956489563,27.1315,14.00023956489563,27.1315,14.00023956489563,27.1315C14.00023956489563,27.1315,12.28445956489563,28.1592,12.28445956489563,28.1592C12.47048956489563,28.4698,12.73730956489563,28.724,13.05646956489563,28.8948C13.05646956489563,28.8948,14.00023956489563,27.1315,14.00023956489563,27.1315C14.00023956489563,27.1315,14.00023956489563,27.1315,14.00023956489563,27.1315ZM14.00023956489563,27.1315C14.00023956489563,27.1315,14.00023956489563,27.1315,14.00023956489563,27.1315C14.00023956489563,27.1315,12.00018956489563,27.1315,12.00018956489563,27.1315C12.00018956489563,27.4935,12.09843956489563,27.8487,12.28445956489563,28.1592C12.28445956489563,28.1592,14.00023956489563,27.1315,14.00023956489563,27.1315C14.00023956489563,27.1315,14.00023956489563,27.1315,14.00023956489563,27.1315ZM14.00023956489563,27.1315C14.00023956489563,27.1315,14.00023956489563,17.3866,14.00023956489563,17.3866C14.00023956489563,17.3866,12.00018956489563,17.3866,12.00018956489563,17.3866C12.00018956489563,17.3866,12.00018956489563,27.1315,12.00018956489563,27.1315C12.00018956489563,27.1315,14.00023956489563,27.1315,14.00023956489563,27.1315C14.00023956489563,27.1315,14.00023956489563,27.1315,14.00023956489563,27.1315ZM14.00023956489563,17.3866C14.00023956489563,16.8891,13.81473956489563,16.409399999999998,13.48003956489563,16.0413C13.48003956489563,16.0413,12.00018956489563,17.3866,12.00018956489563,17.3866C12.00018956489563,17.3866,12.00018956489563,17.3866,12.00018956489563,17.3866C12.00018956489563,17.3866,14.00023956489563,17.3866,14.00023956489563,17.3866C14.00023956489563,17.3866,14.00023956489563,17.3866,14.00023956489563,17.3866ZM13.48003956489563,16.0413C13.48003956489563,16.0413,5.26073956489563,7,5.26073956489563,7C5.26073956489563,7,3.7808625648956298,8.34535,3.7808625648956298,8.34535C3.7808625648956298,8.34535,12.00018956489563,17.3866,12.00018956489563,17.3866C12.00018956489563,17.3866,13.48003956489563,16.0413,13.48003956489563,16.0413C13.48003956489563,16.0413,13.48003956489563,16.0413,13.48003956489563,16.0413ZM5.26073956489563,7C5.26073956489563,7,5.26073956489563,7,5.26073956489563,7C5.26073956489563,7,3.28649916489563,7.31994,3.28649916489563,7.31994C3.3484821648956298,7.70242,3.5202285648956297,8.05865,3.7808625648956298,8.34534C3.7808625648956298,8.34534,5.26073956489563,7,5.26073956489563,7C5.26073956489563,7,5.26073956489563,7,5.26073956489563,7ZM5.26073956489563,7C5.26073956489563,7,5.26073956489563,7,5.26073956489563,7C5.26073956489563,7,3.4317145648956298,6.19089,3.4317145648956298,6.19089C3.27496616489563,6.54523,3.22451216489563,6.93747,3.28649916489563,7.31994C3.28649916489563,7.31994,5.26073956489563,7,5.26073956489563,7C5.26073956489563,7,5.26073956489563,7,5.26073956489563,7ZM5.26073956489563,7C5.26073956489563,7,5.26073956489563,7,5.26073956489563,7C5.26073956489563,7,4.16946256489563,5.323961,4.16946256489563,5.323961C3.84476256489563,5.535376,3.58846356489563,5.836554,3.4317145648956298,6.19089C3.4317145648956298,6.19089,5.26073956489563,7,5.26073956489563,7C5.26073956489563,7,5.26073956489563,7,5.26073956489563,7ZM5.26073956489563,7C5.26073956489563,7,5.26073956489563,7,5.26073956489563,7C5.26073956489563,7,5.26073956489563,5,5.26073956489563,5C4.87327956489563,5,4.49415956489563,5.112547,4.16946256489563,5.323961C4.16946256489563,5.323961,5.26073956489563,7,5.26073956489563,7C5.26073956489563,7,5.26073956489563,7,5.26073956489563,7Z" fill="#FFFFFF" fill-opacity="1"/></g></g></svg>