<svg xmlns="http://www.w3.org/2000/svg" xmlns:xlink="http://www.w3.org/1999/xlink" fill="none" version="1.1" width="32" height="32" viewBox="0 0 32 32"><g><g></g><g><path d="M7.025228758087158,13.000012029571533C7.025228758087158,13.000012029571533,8.025228758087158,13.000022029571534,8.025228758087158,13.000022029571534C8.025228758087158,13.000022029571534,8.025228758087158,12.998622029571534,8.025228758087158,12.998622029571534C8.025228758087158,12.998622029571534,7.025228758087158,13.000012029571533,7.025228758087158,13.000012029571533C7.025228758087158,13.000012029571533,7.025228758087158,13.000012029571533,7.025228758087158,13.000012029571533ZM16.06838875808716,4.000262029571533C16.06838875808716,4.000262029571533,16.075788758087157,3.000291555571533,16.075788758087157,3.000291555571533C16.075788758087157,3.000291555571533,16.07458875808716,3.0002845555715334,16.07458875808716,3.0002845555715334C16.07458875808716,3.0002845555715334,16.06838875808716,4.000262029571533,16.06838875808716,4.000262029571533C16.06838875808716,4.000262029571533,16.06838875808716,4.000262029571533,16.06838875808716,4.000262029571533ZM26.737088758087157,22.494792029571535C26.737088758087157,22.494792029571535,25.87238875808716,22.997192029571533,25.87238875808716,22.997192029571533C25.87238875808716,22.997192029571533,25.874188758087158,23.000192029571533,25.874188758087158,23.000192029571533C25.874188758087158,23.000192029571533,26.737088758087157,22.494792029571535,26.737088758087157,22.494792029571535C26.737088758087157,22.494792029571535,26.737088758087157,22.494792029571535,26.737088758087157,22.494792029571535ZM25.87688875808716,23.999992029571533C25.87688875808716,23.999992029571533,25.87688875808716,24.999992029571533,25.87688875808716,24.999992029571533C25.87688875808716,24.999992029571533,25.87948875808716,24.999992029571533,25.87948875808716,24.999992029571533C25.87948875808716,24.999992029571533,25.87688875808716,23.999992029571533,25.87688875808716,23.999992029571533C25.87688875808716,23.999992029571533,25.87688875808716,23.999992029571533,25.87688875808716,23.999992029571533ZM6.122798758087158,23.999992029571533C6.122798758087158,23.999992029571533,6.120228758087158,24.999992029571533,6.120228758087158,24.999992029571533C6.120228758087158,24.999992029571533,6.122798758087158,24.999992029571533,6.122798758087158,24.999992029571533C6.122798758087158,24.999992029571533,6.122798758087158,23.999992029571533,6.122798758087158,23.999992029571533C6.122798758087158,23.999992029571533,6.122798758087158,23.999992029571533,6.122798758087158,23.999992029571533ZM5.262718758087158,22.494592029571532C5.262718758087158,22.494592029571532,6.125478758087159,23.000192029571533,6.125478758087159,23.000192029571533C6.125478758087159,23.000192029571533,6.127268758087158,22.997092029571533,6.127268758087158,22.997092029571533C6.127268758087158,22.997092029571533,5.262718758087158,22.494592029571532,5.262718758087158,22.494592029571532C5.262718758087158,22.494592029571532,5.262718758087158,22.494592029571532,5.262718758087158,22.494592029571532ZM7.025218758087158,13.999992029571533C7.025218758087158,13.999992029571533,6.025218758087158,13.999992029571533,6.025218758087158,13.999992029571533C6.025218758087158,13.999992029571533,6.025218758087158,13.999992029571533,6.025218758087158,13.999992029571533C6.025218758087158,13.999992029571533,7.025218758087158,13.999992029571533,7.025218758087158,13.999992029571533C7.025218758087158,13.999992029571533,7.025218758087158,13.999992029571533,7.025218758087158,13.999992029571533ZM8.025228758087158,12.998622029571534C8.023748758087159,11.944592029571533,8.230908758087157,10.900692029571534,8.634768758087159,9.927102029571532C8.634768758087159,9.927102029571532,6.787388758087158,9.160802029571533,6.787388758087158,9.160802029571533C6.282418758087158,10.378182029571533,6.023388758087158,11.683462029571533,6.025228758087158,13.001392029571534C6.025228758087158,13.001392029571534,8.025228758087158,12.998622029571534,8.025228758087158,12.998622029571534C8.025228758087158,12.998622029571534,8.025228758087158,12.998622029571534,8.025228758087158,12.998622029571534ZM8.634768758087159,9.927102029571532C9.038618758087157,8.953512029571534,9.631168758087158,8.069482029571533,10.378268758087158,7.325962029571533C10.378268758087158,7.325962029571533,8.967468758087158,5.9083520295715335,8.967468758087158,5.9083520295715335C8.033288758087158,6.838042029571533,7.292368758087158,7.943432029571533,6.787388758087158,9.160802029571533C6.787388758087158,9.160802029571533,8.634768758087159,9.927102029571532,8.634768758087159,9.927102029571532C8.634768758087159,9.927102029571532,8.634768758087159,9.927102029571532,8.634768758087159,9.927102029571532ZM10.378268758087158,7.325962029571533C11.125378758087159,6.582452029571533,12.012248758087157,5.994152029571533,12.987768758087158,5.594992029571533C12.987768758087158,5.594992029571533,12.230368758087158,3.743957029571533,12.230368758087158,3.743957029571533C11.010578758087158,4.243062029571533,9.90163875808716,4.978662029571533,8.967468758087158,5.9083520295715335C8.967468758087158,5.9083520295715335,10.378268758087158,7.325962029571533,10.378268758087158,7.325962029571533C10.378268758087158,7.325962029571533,10.378268758087158,7.325962029571533,10.378268758087158,7.325962029571533ZM12.987768758087158,5.594992029571533C13.963298758087157,5.195832029571533,15.008188758087158,4.9937020295715335,16.06218875808716,5.000242029571533C16.06218875808716,5.000242029571533,16.07458875808716,3.0002845555715334,16.07458875808716,3.0002845555715334C14.756688758087158,2.992101559571533,13.450158758087158,3.244849029571533,12.230368758087158,3.743957029571533C12.230368758087158,3.743957029571533,12.987768758087158,5.594992029571533,12.987768758087158,5.594992029571533C12.987768758087158,5.594992029571533,12.987768758087158,5.594992029571533,12.987768758087158,5.594992029571533ZM16.060988758087156,5.000242029571533C20.441388758087157,5.032802029571533,23.97548875808716,8.680732029571534,23.97548875808716,13.112992029571533C23.97548875808716,13.112992029571533,25.97548875808716,13.112992029571533,25.97548875808716,13.112992029571533C25.97548875808716,7.620132029571534,21.59278875808716,3.0413065295715334,16.075788758087157,3.000292555571533C16.075788758087157,3.000292555571533,16.060988758087156,5.000242029571533,16.060988758087156,5.000242029571533C16.060988758087156,5.000242029571533,16.060988758087156,5.000242029571533,16.060988758087156,5.000242029571533ZM23.97548875808716,13.112992029571533C23.97548875808716,13.112992029571533,23.97548875808716,13.999992029571533,23.97548875808716,13.999992029571533C23.97548875808716,13.999992029571533,25.97548875808716,13.999992029571533,25.97548875808716,13.999992029571533C25.97548875808716,13.999992029571533,25.97548875808716,13.112992029571533,25.97548875808716,13.112992029571533C25.97548875808716,13.112992029571533,23.97548875808716,13.112992029571533,23.97548875808716,13.112992029571533C23.97548875808716,13.112992029571533,23.97548875808716,13.112992029571533,23.97548875808716,13.112992029571533ZM23.97548875808716,13.999992029571533C23.97548875808716,18.617992029571532,24.942588758087158,21.396692029571533,25.87238875808716,22.997192029571533C25.87238875808716,22.997192029571533,27.601688758087157,21.992392029571533,27.601688758087157,21.992392029571533C26.881688758087158,20.753092029571533,25.97548875808716,18.335992029571536,25.97548875808716,13.999992029571533C25.97548875808716,13.999992029571533,23.97548875808716,13.999992029571533,23.97548875808716,13.999992029571533C23.97548875808716,13.999992029571533,23.97548875808716,13.999992029571533,23.97548875808716,13.999992029571533ZM25.874188758087158,23.000192029571533C25.874188758087158,23.000192029571533,25.874188758087158,23.000192029571533,25.874188758087158,23.000192029571533C25.874188758087158,23.000192029571533,27.874188758087158,22.989492029571533,27.874188758087158,22.989492029571533C27.87228875808716,22.637792029571532,27.77768875808716,22.292792029571533,27.599988758087157,21.989392029571533C27.599988758087157,21.989392029571533,25.874188758087158,23.000192029571533,25.874188758087158,23.000192029571533C25.874188758087158,23.000192029571533,25.874188758087158,23.000192029571533,25.874188758087158,23.000192029571533ZM25.874188758087158,23.000192029571533C25.874188758087158,23.000192029571533,25.874188758087158,23.000092029571533,25.874188758087158,23.000092029571533C25.874188758087158,23.000092029571533,27.610688758087157,23.992392029571533,27.610688758087157,23.992392029571533C27.78518875808716,23.687092029571534,27.876088758087157,23.341092029571534,27.874188758087158,22.989492029571533C27.874188758087158,22.989492029571533,25.874188758087158,23.000192029571533,25.874188758087158,23.000192029571533C25.874188758087158,23.000192029571533,25.874188758087158,23.000192029571533,25.874188758087158,23.000192029571533ZM25.874188758087158,23.000092029571533C25.874188758087158,23.000092029571533,25.874288758087157,22.999992029571533,25.874288758087157,22.999992029571533C25.874288758087157,22.999992029571533,26.880288758087158,24.728592029571534,26.880288758087158,24.728592029571534C27.18428875808716,24.551692029571534,27.43618875808716,24.297792029571532,27.610688758087157,23.992392029571533C27.610688758087157,23.992392029571533,25.874188758087158,23.000092029571533,25.874188758087158,23.000092029571533C25.874188758087158,23.000092029571533,25.874188758087158,23.000092029571533,25.874188758087158,23.000092029571533ZM25.874288758087157,22.999992029571533C25.874288758087157,22.999992029571533,25.874288758087157,22.999992029571533,25.874288758087157,22.999992029571533C25.874288758087157,22.999992029571533,25.87948875808716,24.999992029571533,25.87948875808716,24.999992029571533C26.231088758087157,24.999092029571532,26.57638875808716,24.905492029571533,26.880288758087158,24.728592029571534C26.880288758087158,24.728592029571534,25.874288758087157,22.999992029571533,25.874288758087157,22.999992029571533C25.874288758087157,22.999992029571533,25.874288758087157,22.999992029571533,25.874288758087157,22.999992029571533ZM25.87688875808716,22.999992029571533C25.87688875808716,22.999992029571533,6.122798758087158,22.999992029571533,6.122798758087158,22.999992029571533C6.122798758087158,22.999992029571533,6.122798758087158,24.999992029571533,6.122798758087158,24.999992029571533C6.122798758087158,24.999992029571533,25.87688875808716,24.999992029571533,25.87688875808716,24.999992029571533C25.87688875808716,24.999992029571533,25.87688875808716,22.999992029571533,25.87688875808716,22.999992029571533C25.87688875808716,22.999992029571533,25.87688875808716,22.999992029571533,25.87688875808716,22.999992029571533ZM6.125368758087158,22.999992029571533C6.125368758087158,22.999992029571533,6.125428758087159,22.999992029571533,6.125428758087159,22.999992029571533C6.125428758087159,22.999992029571533,5.1192767580871585,24.728492029571534,5.1192767580871585,24.728492029571534C5.4232487580871584,24.905492029571533,5.768508758087158,24.999092029571532,6.120228758087158,24.999992029571533C6.120228758087158,24.999992029571533,6.125368758087158,22.999992029571533,6.125368758087158,22.999992029571533C6.125368758087158,22.999992029571533,6.125368758087158,22.999992029571533,6.125368758087158,22.999992029571533ZM6.125428758087159,22.999992029571533C6.125428758087159,22.999992029571533,6.125468758087158,23.000092029571533,6.125468758087158,23.000092029571533C6.125468758087158,23.000092029571533,4.388898758087159,23.992192029571534,4.388898758087159,23.992192029571534C4.563375758087158,24.297592029571533,4.815307758087158,24.551592029571534,5.1192767580871585,24.728492029571534C5.1192767580871585,24.728492029571534,6.125428758087159,22.999992029571533,6.125428758087159,22.999992029571533C6.125428758087159,22.999992029571533,6.125428758087159,22.999992029571533,6.125428758087159,22.999992029571533ZM6.125468758087158,23.000092029571533C6.125468758087158,23.000092029571533,6.125488758087158,23.000092029571533,6.125488758087158,23.000092029571533C6.125488758087158,23.000092029571533,4.125519221187158,22.989092029571534,4.125519221187158,22.989092029571534C4.123578218087158,23.34079202957153,4.214424258087158,23.68679202957153,4.388898758087159,23.992192029571534C4.388898758087159,23.992192029571534,6.125468758087158,23.000092029571533,6.125468758087158,23.000092029571533C6.125468758087158,23.000092029571533,6.125468758087158,23.000092029571533,6.125468758087158,23.000092029571533ZM6.125488758087158,23.000092029571533C6.125488758087158,23.000092029571533,6.125468758087158,23.000192029571533,6.125468758087158,23.000192029571533C6.125468758087158,23.000192029571533,4.399965758087158,21.988892029571534,4.399965758087158,21.988892029571534C4.222127258087158,22.292392029571534,4.127461218087158,22.637392029571533,4.125519221187158,22.989092029571534C4.125519221187158,22.989092029571534,6.125488758087158,23.000092029571533,6.125488758087158,23.000092029571533C6.125488758087158,23.000092029571533,6.125488758087158,23.000092029571533,6.125488758087158,23.000092029571533ZM6.127268758087158,22.997092029571533C7.057648758087158,21.396592029571533,8.025218758087158,18.617892029571536,8.025218758087158,13.999992029571533C8.025218758087158,13.999992029571533,6.025218758087158,13.999992029571533,6.025218758087158,13.999992029571533C6.025218758087158,18.335592029571533,5.118606758087158,20.752692029571534,4.398173758087158,21.991992029571534C4.398173758087158,21.991992029571534,6.127268758087158,22.997092029571533,6.127268758087158,22.997092029571533C6.127268758087158,22.997092029571533,6.127268758087158,22.997092029571533,6.127268758087158,22.997092029571533ZM8.025218758087158,13.999992029571533C8.025218758087158,13.999992029571533,8.025228758087158,13.000022029571534,8.025228758087158,13.000022029571534C8.025228758087158,13.000022029571534,6.025228758087158,13.000012029571533,6.025228758087158,13.000012029571533C6.025228758087158,13.000012029571533,6.025218758087158,13.999992029571533,6.025218758087158,13.999992029571533C6.025218758087158,13.999992029571533,8.025218758087158,13.999992029571533,8.025218758087158,13.999992029571533C8.025218758087158,13.999992029571533,8.025218758087158,13.999992029571533,8.025218758087158,13.999992029571533Z" fill="#FFFFFF" fill-opacity="1"/></g><g><path d="M13,24C13,23.447715,12.55228,23,12,23C11.447715,23,11,23.447715,11,24C11,24,13,24,13,24C13,24,13,24,13,24ZM12,25C12,25,11,25,11,25C11,25,12,25,12,25C12,25,12,25,12,25ZM21,24C21,23.447715,20.55229,23,20,23C19.44772,23,19,23.447715,19,24C19,24,21,24,21,24C21,24,21,24,21,24ZM11,24C11,24,11,25,11,25C11,25,13,25,13,25C13,25,13,24,13,24C13,24,11,24,11,24C11,24,11,24,11,24ZM11,25C11,26.32608,11.526784,27.59785,12.46447,28.53553C12.46447,28.53553,13.87868,27.12132,13.87868,27.12132C13.31607,26.55871,13,25.795650000000002,13,25C13,25,11,25,11,25C11,25,11,25,11,25ZM12.46447,28.53553C13.402149999999999,29.47321,14.673919999999999,30,16,30C16,30,16,28,16,28C15.20435,28,14.44129,27.68393,13.87868,27.12132C13.87868,27.12132,12.46447,28.53553,12.46447,28.53553C12.46447,28.53553,12.46447,28.53553,12.46447,28.53553ZM16,30C17.32608,30,18.59785,29.47321,19.53553,28.53553C19.53553,28.53553,18.12132,27.12132,18.12132,27.12132C17.558709999999998,27.68393,16.795650000000002,28,16,28C16,28,16,30,16,30C16,30,16,30,16,30ZM19.53553,28.53553C20.47321,27.59785,21,26.32608,21,25C21,25,19,25,19,25C19,25.795650000000002,18.68393,26.55871,18.12132,27.12132C18.12132,27.12132,19.53553,28.53553,19.53553,28.53553C19.53553,28.53553,19.53553,28.53553,19.53553,28.53553ZM21,25C21,25,21,24,21,24C21,24,19,24,19,24C19,24,19,25,19,25C19,25,21,25,21,25C21,25,21,25,21,25Z" fill="#FFFFFF" fill-opacity="1"/></g></g></svg>