<svg xmlns="http://www.w3.org/2000/svg" xmlns:xlink="http://www.w3.org/1999/xlink" fill="none" version="1.1" width="32" height="32" viewBox="0 0 32 32"><g><g></g><g><path d="M6.739941893768311,4.32750999923706C6.36843189376831,3.9188530992370607,5.73598489376831,3.8887329992370607,5.32732689376831,4.260242999237061C4.918669993768311,4.63174999923706,4.88854989376831,5.264194999237061,5.260059893768311,5.67285499923706C5.260059893768311,5.67285499923706,6.739941893768311,4.32750999923706,6.739941893768311,4.32750999923706C6.739941893768311,4.32750999923706,6.739941893768311,4.32750999923706,6.739941893768311,4.32750999923706ZM25.260091893768312,27.67287499923706C25.63159189376831,28.08147499923706,26.26399189376831,28.11157499923706,26.67269189376831,27.74007499923706C27.08129189376831,27.36857499923706,27.11139189376831,26.73617499923706,26.73989189376831,26.32747499923706C26.73989189376831,26.32747499923706,25.260091893768312,27.67287499923706,25.260091893768312,27.67287499923706C25.260091893768312,27.67287499923706,25.260091893768312,27.67287499923706,25.260091893768312,27.67287499923706ZM5.260059893768311,5.67285499923706C5.260059893768311,5.67285499923706,25.260091893768312,27.67287499923706,25.260091893768312,27.67287499923706C25.260091893768312,27.67287499923706,26.73989189376831,26.32747499923706,26.73989189376831,26.32747499923706C26.73989189376831,26.32747499923706,6.739941893768311,4.32750999923706,6.739941893768311,4.32750999923706C6.739941893768311,4.32750999923706,5.260059893768311,5.67285499923706,5.260059893768311,5.67285499923706C5.260059893768311,5.67285499923706,5.260059893768311,5.67285499923706,5.260059893768311,5.67285499923706Z" fill="#FFFFFF" fill-opacity="1"/></g><g><path d="M20.035943186950682,20.439860270690918C20.444643186950685,20.06839027069092,20.474843186950686,19.435950270690917,20.10334318695068,19.027260270690917C19.731873186950683,18.618560270690917,19.099423186950684,18.58839027069092,18.690733186950684,18.959860270690918C18.690733186950684,18.959860270690918,20.035943186950682,20.439860270690918,20.035943186950682,20.439860270690918C20.035943186950682,20.439860270690918,20.035943186950682,20.439860270690918,20.035943186950682,20.439860270690918ZM13.309303186950684,13.040290270690917C13.717933186950685,12.668750270690918,13.747993186950684,12.036300270690917,13.376443186950684,11.627676270690918C13.004903186950683,11.219054770690917,12.372453186950683,11.188995270690919,11.963823186950684,11.560535270690918C11.963823186950684,11.560535270690918,13.309303186950684,13.040290270690917,13.309303186950684,13.040290270690917C13.309303186950684,13.040290270690917,13.309303186950684,13.040290270690917,13.309303186950684,13.040290270690917ZM18.690733186950684,18.959860270690918C17.905733186950684,19.673370270690917,16.869453186950683,20.045840270690917,15.809843186950683,19.995330270690918C15.809843186950683,19.995330270690918,15.714623186950684,21.99311027069092,15.714623186950684,21.99311027069092C17.304033186950683,22.068810270690918,18.858443186950684,21.510110270690916,20.035943186950682,20.439860270690918C20.035943186950682,20.439860270690918,18.690733186950684,18.959860270690918,18.690733186950684,18.959860270690918C18.690733186950684,18.959860270690918,18.690733186950684,18.959860270690918,18.690733186950684,18.959860270690918ZM15.809843186950683,19.995330270690918C14.750233186950684,19.944830270690918,13.754073186950684,19.47549027069092,13.040503186950684,18.690550270690917C13.040503186950684,18.690550270690917,11.560623186950684,20.035900270690917,11.560623186950684,20.035900270690917C12.630983186950683,21.21330027069092,14.125213186950685,21.91731027069092,15.714623186950684,21.99311027069092C15.714623186950684,21.99311027069092,15.809843186950683,19.995330270690918,15.809843186950683,19.995330270690918C15.809843186950683,19.995330270690918,15.809843186950683,19.995330270690918,15.809843186950683,19.995330270690918ZM13.040503186950684,18.690550270690917C12.326913186950684,17.905610270690918,11.954363186950683,16.86937027069092,12.004763186950683,15.809750270690918C12.004763186950683,15.809750270690918,10.007028186950684,15.714710270690919,10.007028186950684,15.714710270690919C9.931414186950684,17.30413027069092,10.490252186950684,18.85849027069092,11.560623186950684,20.035900270690917C11.560623186950684,20.035900270690917,13.040503186950684,18.690550270690917,13.040503186950684,18.690550270690917C13.040503186950684,18.690550270690917,13.040503186950684,18.690550270690917,13.040503186950684,18.690550270690917ZM12.004763186950683,15.809750270690918C12.055173186950684,14.750140270690919,12.524433186950684,13.753940270690919,13.309303186950684,13.040290270690917C13.309303186950684,13.040290270690917,11.963823186950684,11.560535270690918,11.963823186950684,11.560535270690918C10.786520186950684,12.631010270690918,10.082643186950683,14.125290270690918,10.007028186950684,15.714710270690919C10.007028186950684,15.714710270690919,12.004763186950683,15.809750270690918,12.004763186950683,15.809750270690918C12.004763186950683,15.809750270690918,12.004763186950683,15.809750270690918,12.004763186950683,15.809750270690918Z" fill="#FFFFFF" fill-opacity="1"/></g><g><path d="M9.70107964237213,9.46647576675415C10.193789642372131,9.21696576675415,10.390949642372131,8.61527576675415,10.14143964237213,8.12256576675415C9.891929642372132,7.6298546667541505,9.290239642372132,7.4327007667541505,8.797529642372131,7.68220876675415C8.797529642372131,7.68220876675415,9.70107964237213,9.46647576675415,9.70107964237213,9.46647576675415C9.70107964237213,9.46647576675415,9.70107964237213,9.46647576675415,9.70107964237213,9.46647576675415ZM1.9999996423721313,16.00013576675415C1.9999996423721313,16.00013576675415,1.0861720423721313,15.59403576675415,1.0861720423721313,15.59403576675415C0.9712600423721314,15.85261576675415,0.9712800423721314,16.147765766754148,1.0862050423721314,16.40632576675415C1.0862050423721314,16.40632576675415,1.9999996423721313,16.00013576675415,1.9999996423721313,16.00013576675415C1.9999996423721313,16.00013576675415,1.9999996423721313,16.00013576675415,1.9999996423721313,16.00013576675415ZM15.999999642372131,24.99912576675415C15.999999642372131,24.99912576675415,16.00799964237213,23.99912576675415,16.00799964237213,23.99912576675415C16.00799964237213,23.99912576675415,15.999999642372131,23.99912576675415,15.999999642372131,23.99912576675415C15.999999642372131,23.99912576675415,15.999999642372131,24.99912576675415,15.999999642372131,24.99912576675415C15.999999642372131,24.99912576675415,15.999999642372131,24.99912576675415,15.999999642372131,24.99912576675415ZM23.199199642372133,24.31812576675415C23.69259964237213,24.06982576675415,23.891199642372133,23.46862576675415,23.642999642372132,22.97532576675415C23.39469964237213,22.481925766754152,22.793499642372133,22.28332576675415,22.300099642372132,22.53152576675415C22.300099642372132,22.53152576675415,23.199199642372133,24.31812576675415,23.199199642372133,24.31812576675415C23.199199642372133,24.31812576675415,23.199199642372133,24.31812576675415,23.199199642372133,24.31812576675415ZM8.797529642372131,7.68220876675415C6.077019642372131,9.05987576675415,4.155819642372132,11.03371576675415,2.9198196423721314,12.64677576675415C2.3001596423721313,13.455485766754151,1.8471106423721313,14.18078576675415,1.5469696423721313,14.708115766754151C1.3967476423721314,14.97203576675415,1.2843816423721313,15.18716576675415,1.2082176423721314,15.33935576675415C1.1701226423721314,15.41546576675415,1.1410456423721314,15.47591576675415,1.1207816423721313,15.51893576675415C1.1106486423721313,15.54043576675415,1.1027156423721314,15.557595766754151,1.0969570423721313,15.57019576675415C1.0940770423721313,15.57647576675415,1.0917410423721314,15.58163576675415,1.0899450423721313,15.58561576675415C1.0890470423721315,15.58760576675415,1.0882830423721312,15.58931576675415,1.0876550423721314,15.590715766754151C1.0873400423721313,15.59141576675415,1.0870600423721313,15.59205576675415,1.0868130423721314,15.592595766754151C1.0866890423721314,15.592875766754151,1.0865290423721314,15.59323576675415,1.0864670423721314,15.59337576675415C1.0863150423721313,15.593725766754151,1.0861720423721313,15.59403576675415,1.9999996423721313,16.00013576675415C2.9138296423721313,16.40624576675415,2.9136996423721313,16.40653576675415,2.9135796423721314,16.40679576675415C2.913549642372131,16.40686576675415,2.9134396423721314,16.40710576675415,2.913389642372131,16.407235766754148C2.913269642372131,16.407495766754153,2.9131896423721315,16.40768576675415,2.9131396423721316,16.40780576675415C2.9130296423721314,16.40803576675415,2.913059642372131,16.40797576675415,2.9132196423721313,16.40762576675415C2.913529642372131,16.40692576675415,2.9143596423721316,16.40509576675415,2.915709642372131,16.402145766754153C2.918409642372131,16.396235766754153,2.9231896423721313,16.38588576675415,2.930069642372131,16.37126576675415C2.9438296423721315,16.34205576675415,2.965989642372131,16.29588576675415,2.9967296423721312,16.23447576675415C3.0582196423721313,16.11161576675415,3.1538796423721314,15.92804576675415,3.2851396423721315,15.69743576675415C3.547969642372131,15.23565576675415,3.9517196423721312,14.58838576675415,4.507359642372132,13.86321576675415C5.621979642372131,12.408555766754152,7.325439642372132,10.66950576675415,9.70107964237213,9.46647576675415C9.70107964237213,9.46647576675415,8.797529642372131,7.68220876675415,8.797529642372131,7.68220876675415C8.797529642372131,7.68220876675415,8.797529642372131,7.68220876675415,8.797529642372131,7.68220876675415ZM1.9999996423721313,16.00013576675415C1.0862050423721314,16.40632576675415,1.0864050423721314,16.40677576675415,1.0866200423721313,16.40725576675415C1.0867120423721313,16.40745576675415,1.0869430423721314,16.40797576675415,1.0871280423721315,16.40838576675415C1.0874980423721314,16.40922576675415,1.0879310423721313,16.41019576675415,1.0884260423721313,16.41128576675415C1.0894160423721313,16.413495766754153,1.0906560423721314,16.41624576675415,1.0921480423721313,16.41954576675415C1.0951320423721314,16.42611576675415,1.0991210423721314,16.43485576675415,1.1041236423721315,16.44566576675415C1.1141286423721313,16.46730576675415,1.1281926423721313,16.49729576675415,1.1463796423721313,16.535055766754148C1.1827476423721313,16.61058576675415,1.2356466423721313,16.71734576675415,1.3055946423721314,16.85086576675415C1.4454186423721314,17.11776576675415,1.6538226423721314,17.49250576675415,1.9350436423721313,17.939125766754152C2.4964996423721315,18.83072576675415,3.3538996423721312,20.01792576675415,4.5429296423721315,21.20682576675415C6.926769642372132,23.59032576675415,10.667459642372132,25.99912576675415,15.999999642372131,25.99912576675415C15.999999642372131,25.99912576675415,15.999999642372131,23.99912576675415,15.999999642372131,23.99912576675415C11.332499642372131,23.99912576675415,8.07322964237213,21.90842576675415,5.957069642372131,19.792525766754153C4.896099642372132,18.73162576675415,4.128499642372131,17.669025766754153,3.6274596423721315,16.87338576675415C3.3774296423721313,16.476315766754148,3.1952096423721312,16.14799576675415,3.0772196423721314,15.92277576675415C3.0182596423721315,15.81022576675415,2.9754596423721313,15.723645766754151,2.9483496423721314,15.667345766754151C2.9347996423721314,15.63921576675415,2.9251796423721315,15.61865576675415,2.919439642372131,15.60623576675415C2.9165696423721315,15.60004576675415,2.9146696423721314,15.59586576675415,2.9137296423721315,15.59378576675415C2.9132596423721315,15.59275576675415,2.9130296423721314,15.59224576675415,2.9130396423721314,15.59228576675415C2.9130496423721315,15.59228576675415,2.9131096423721314,15.59244576675415,2.9132396423721314,15.59271576675415C2.9132996423721313,15.59285576675415,2.9134396423721314,15.59316576675415,2.9134696423721316,15.59323576675415C2.9136296423721313,15.59358576675415,2.9137996423721315,15.59397576675415,1.9999996423721313,16.00013576675415C1.9999996423721313,16.00013576675415,1.9999996423721313,16.00013576675415,1.9999996423721313,16.00013576675415ZM15.991999642372132,25.99912576675415C18.49379964237213,26.01902576675415,20.964399642372133,25.44282576675415,23.199199642372133,24.31812576675415C23.199199642372133,24.31812576675415,22.300099642372132,22.53152576675415,22.300099642372132,22.53152576675415C20.34909964237213,23.51352576675415,18.19209964237213,24.01662576675415,16.00799964237213,23.99922576675415C16.00799964237213,23.99922576675415,15.991999642372132,25.99912576675415,15.991999642372132,25.99912576675415C15.991999642372132,25.99912576675415,15.991999642372132,25.99912576675415,15.991999642372132,25.99912576675415Z" fill="#FFFFFF" fill-opacity="1"/></g><g><path d="M25.409140426635744,20.39264503097534C24.997740426635744,20.761145030975342,24.96294042663574,21.39334503097534,25.331440426635744,21.80474503097534C25.699840426635742,22.21614503097534,26.332140426635743,22.25094503097534,26.743440426635743,21.88244503097534C26.743440426635743,21.88244503097534,25.409140426635744,20.39264503097534,25.409140426635744,20.39264503097534C25.409140426635744,20.39264503097534,25.409140426635744,20.39264503097534,25.409140426635744,20.39264503097534ZM30.000140426635742,16.00014503097534C30.000140426635742,16.00014503097534,30.913940426635744,16.40634503097534,30.913940426635744,16.40634503097534C31.028840426635742,16.147745030975344,31.028840426635742,15.852615030975342,30.913940426635744,15.594045030975343C30.913940426635744,15.594045030975343,30.000140426635742,16.00014503097534,30.000140426635742,16.00014503097534C30.000140426635742,16.00014503097534,30.000140426635742,16.00014503097534,30.000140426635742,16.00014503097534ZM16.00007042663574,6.999165030975342C16.00007042663574,6.999165030975342,15.998430426635743,7.999165030975342,15.998430426635743,7.999165030975342C15.998430426635743,7.999165030975342,16.00007042663574,7.999165030975342,16.00007042663574,7.999165030975342C16.00007042663574,7.999165030975342,16.00007042663574,6.999165030975342,16.00007042663574,6.999165030975342C16.00007042663574,6.999165030975342,16.00007042663574,6.999165030975342,16.00007042663574,6.999165030975342ZM13.251394426635741,6.223124030975342C12.706532426635743,6.313367030975342,12.337994526635741,6.828222030975342,12.428234526635743,7.373085030975342C12.518478426635742,7.917945030975342,13.033332426635742,8.286485030975342,13.578190426635743,8.19624503097534C13.578190426635743,8.19624503097534,13.251394426635741,6.223124030975342,13.251394426635741,6.223124030975342C13.251394426635741,6.223124030975342,13.251394426635741,6.223124030975342,13.251394426635741,6.223124030975342ZM26.743440426635743,21.88244503097534C28.18624042663574,20.590245030975343,29.22164042663574,19.233845030975342,29.897140426635744,18.20074503097534C30.235540426635744,17.683245030975343,30.485640426635744,17.24374503097534,30.65284042663574,16.929645030975344C30.73654042663574,16.772545030975344,30.799740426635744,16.64654503097534,30.842940426635742,16.55734503097534C30.86454042663574,16.512845030975342,30.881240426635742,16.477445030975343,30.893040426635743,16.45204503097534C30.898940426635743,16.439345030975343,30.903640426635743,16.42914503097534,30.907140426635742,16.42144503097534C30.90884042663574,16.417645030975343,30.910240426635742,16.414445030975344,30.911440426635743,16.411945030975343C30.91194042663574,16.410645030975342,30.912440426635744,16.40954503097534,30.912840426635743,16.408645030975343C30.913140426635742,16.40814503097534,30.913240426635742,16.40774503097534,30.91344042663574,16.407345030975343C30.91354042663574,16.407145030975343,30.91364042663574,16.406945030975344,30.91374042663574,16.40684503097534C30.91384042663574,16.406545030975344,30.913940426635744,16.40634503097534,30.000140426635742,16.00014503097534C29.086340426635743,15.593965030975342,29.086440426635743,15.593755030975341,29.086540426635743,15.593545030975342C29.086540426635743,15.593485030975343,29.086640426635743,15.593295030975343,29.086640426635743,15.593185030975341C29.086740426635743,15.592965030975341,29.086840426635742,15.592785030975342,29.086940426635742,15.592645030975342C29.087040426635742,15.592365030975342,29.08714042663574,15.592245030975342,29.087040426635742,15.592285030975342C29.087040426635742,15.592365030975342,29.086740426635743,15.593085030975342,29.086140426635744,15.594435030975342C29.084840426635743,15.597135030975341,29.08254042663574,15.602355030975342,29.078940426635743,15.609995030975341C29.07184042663574,15.625275030975342,29.06014042663574,15.650235030975342,29.043640426635744,15.684175030975341C29.010740426635742,15.752065030975341,28.958840426635742,15.855745030975342,28.88764042663574,15.989545030975341C28.745040426635743,16.257345030975344,28.52514042663574,16.644545030975344,28.22324042663574,17.106245030975344C27.618040426635744,18.031745030975344,26.691640426635743,19.24394503097534,25.409140426635744,20.39264503097534C25.409140426635744,20.39264503097534,26.743440426635743,21.88244503097534,26.743440426635743,21.88244503097534C26.743440426635743,21.88244503097534,26.743440426635743,21.88244503097534,26.743440426635743,21.88244503097534ZM30.000140426635742,16.00014503097534C30.913940426635744,15.594045030975343,30.91374042663574,15.593595030975342,30.91354042663574,15.593105030975341C30.91344042663574,15.592905030975341,30.913240426635742,15.592385030975342,30.913040426635742,15.591965030975341C30.912640426635743,15.591145030975342,30.91224042663574,15.590175030975342,30.911740426635742,15.589075030975343C30.91074042663574,15.586865030975341,30.909540426635743,15.584115030975342,30.908040426635743,15.580825030975342C30.905040426635743,15.574235030975341,30.901040426635742,15.565505030975341,30.896040426635743,15.554685030975342C30.88604042663574,15.533045030975341,30.871940426635742,15.503055030975341,30.853740426635742,15.465285030975341C30.81744042663574,15.389745030975341,30.764540426635744,15.282965030975342,30.694540426635744,15.149415030975343C30.554740426635743,14.882455030975342,30.34634042663574,14.507655030975341,30.065140426635743,14.060965030975343C29.50364042663574,13.169155030975343,28.646240426635742,11.981735030975342,27.457240426635742,10.792585030975342C25.07344042663574,8.408515030975341,21.33268042663574,5.999166466575342,16.00007042663574,5.999166466575342C16.00007042663574,5.999166466575342,16.00007042663574,7.999165030975342,16.00007042663574,7.999165030975342C20.667450426635742,7.999165030975342,23.926740426635742,10.090305030975342,26.04294042663574,12.206725030975342C27.10394042663574,13.267815030975342,27.87154042663574,14.330645030975342,28.37264042663574,15.126515030975343C28.62264042663574,15.523665030975343,28.804840426635742,15.852065030975341,28.92284042663574,16.077345030975344C28.981840426635742,16.18994503097534,29.02464042663574,16.276545030975342,29.051740426635742,16.332845030975342C29.065240426635743,16.360945030975344,29.07494042663574,16.381545030975342,29.080640426635743,16.393945030975342C29.083540426635743,16.40014503097534,29.085440426635742,16.404345030975342,29.086340426635743,16.40644503097534C29.086840426635742,16.407445030975342,29.087040426635742,16.40794503097534,29.087040426635742,16.40794503097534C29.087040426635742,16.40794503097534,29.086940426635742,16.40774503097534,29.086840426635742,16.407445030975342C29.086740426635743,16.407345030975343,29.086640426635743,16.40704503097534,29.086640426635743,16.406945030975344C29.086440426635743,16.40664503097534,29.086240426635744,16.40624503097534,30.000140426635742,16.00014503097534C30.000140426635742,16.00014503097534,30.000140426635742,16.00014503097534,30.000140426635742,16.00014503097534ZM16.001700426635743,5.999167466575342C15.080320426635742,5.997655470975342,14.160400426635743,6.072569430975342,13.251394426635741,6.223124030975342C13.251394426635741,6.223124030975342,13.578190426635743,8.19624503097534,13.578190426635743,8.19624503097534C14.378110426635743,8.063755030975342,15.187620426635743,7.997835030975342,15.998430426635743,7.999165030975342C15.998430426635743,7.999165030975342,16.001700426635743,5.999167466575342,16.001700426635743,5.999167466575342C16.001700426635743,5.999167466575342,16.001700426635743,5.999167466575342,16.001700426635743,5.999167466575342Z" fill="#FFFFFF" fill-opacity="1"/></g><g><path d="M17.129492955932616,10.106565234057618C16.587118955932617,10.002413234057617,16.063007955932616,10.357670034057618,15.958860155932618,10.900046034057617C15.854708155932617,11.442418034057617,16.209964955932616,11.966538034057617,16.752340955932617,12.070678034057618C16.752340955932617,12.070678034057618,17.129492955932616,10.106565234057618,17.129492955932616,10.106565234057618C17.129492955932616,10.106565234057618,17.129492955932616,10.106565234057618,17.129492955932616,10.106565234057618ZM19.982612955932616,15.624098034057617C20.034742955932618,16.173908034057618,20.522702955932616,16.577368034057617,21.072522955932616,16.525258034057618C21.622352955932616,16.473138034057616,22.025812955932615,15.985168034057617,21.973692955932616,15.435348034057618C21.973692955932616,15.435348034057618,19.982612955932616,15.624098034057617,19.982612955932616,15.624098034057617C19.982612955932616,15.624098034057617,19.982612955932616,15.624098034057617,19.982612955932616,15.624098034057617ZM16.752340955932617,12.070678034057618C17.602642955932616,12.233958034057617,18.377082955932618,12.668528034057617,18.959502955932617,13.309208034057617C18.959502955932617,13.309208034057617,20.439402955932618,11.963878034057617,20.439402955932618,11.963878034057617C19.566002955932618,11.003108034057616,18.404632955932616,10.351418034057618,17.129492955932616,10.106565234057618C17.129492955932616,10.106565234057618,16.752340955932617,12.070678034057618,16.752340955932617,12.070678034057618C16.752340955932617,12.070678034057618,16.752340955932617,12.070678034057618,16.752340955932617,12.070678034057618ZM18.959502955932617,13.309208034057617C19.541912955932617,13.949888034057617,19.90090295593262,14.762128034057618,19.982612955932616,15.624098034057617C19.982612955932616,15.624098034057617,21.973692955932616,15.435348034057618,21.973692955932616,15.435348034057618C21.85115295593262,14.142718034057618,21.312802955932618,12.924658034057618,20.439402955932618,11.963878034057617C20.439402955932618,11.963878034057617,18.959502955932617,13.309208034057617,18.959502955932617,13.309208034057617C18.959502955932617,13.309208034057617,18.959502955932617,13.309208034057617,18.959502955932617,13.309208034057617Z" fill="#FFFFFF" fill-opacity="1"/></g></g></svg>