<svg xmlns="http://www.w3.org/2000/svg" xmlns:xlink="http://www.w3.org/1999/xlink" fill="none" version="1.1" width="32" height="32" viewBox="0 0 32 32"><g><g></g><g><path d="M20,17.5C20,19.709139999999998,18.209139999999998,21.5,16,21.5C16,21.5,16,23.5,16,23.5C19.31371,23.5,22,20.81371,22,17.5C22,17.5,20,17.5,20,17.5C20,17.5,20,17.5,20,17.5ZM16,21.5C13.79086,21.5,12,19.709139999999998,12,17.5C12,17.5,10,17.5,10,17.5C10,20.81371,12.68629,23.5,16,23.5C16,23.5,16,21.5,16,21.5C16,21.5,16,21.5,16,21.5ZM12,17.5C12,15.29086,13.79086,13.5,16,13.5C16,13.5,16,11.5,16,11.5C12.68629,11.5,10,14.18629,10,17.5C10,17.5,12,17.5,12,17.5C12,17.5,12,17.5,12,17.5ZM16,13.5C18.209139999999998,13.5,20,15.29086,20,17.5C20,17.5,22,17.5,22,17.5C22,14.18629,19.31371,11.5,16,11.5C16,11.5,16,13.5,16,13.5C16,13.5,16,13.5,16,13.5Z" fill="#FFFFFF" fill-opacity="1"/></g><g><path d="M24.499168,13.50000296412C23.946883,13.500462964,23.499540354,13.948551,23.500000354443,14.50084C23.500460354,15.05312,23.948548,15.50046,24.50083,15.5C24.50083,15.5,24.499168,13.50000296412,24.499168,13.50000296412C24.499168,13.50000296412,24.499168,13.50000296412,24.499168,13.50000296412ZM29.69974,18.09893C30.03082,18.54097,30.65756,18.63094,31.09961,18.29986C31.54166,17.96879,31.631619999999998,17.34205,31.300539999999998,16.9C31.300539999999998,16.9,29.69974,18.09893,29.69974,18.09893C29.69974,18.09893,29.69974,18.09893,29.69974,18.09893ZM24.50083,15.5C25.50981,15.49916,26.50507,15.73363,27.40756,16.18479C27.40756,16.18479,28.30184,14.395858,28.30184,14.395858C27.12118,13.805646,25.81914,13.49889996,24.499168,13.50000296412C24.499168,13.50000296412,24.50083,15.5,24.50083,15.5C24.50083,15.5,24.50083,15.5,24.50083,15.5ZM27.40756,16.18479C28.31005,16.63594,29.0949,17.291339999999998,29.69974,18.09893C29.69974,18.09893,31.300539999999998,16.9,31.300539999999998,16.9C30.50927,15.84349,29.48251,14.98607,28.30184,14.395858C28.30184,14.395858,27.40756,16.18479,27.40756,16.18479C27.40756,16.18479,27.40756,16.18479,27.40756,16.18479Z" fill="#FFFFFF" fill-opacity="1"/></g><g><path d="M0.6990814088840485,16.90032C0.36803140888404845,17.34238,0.4580217088840485,17.96912,0.9000844088840485,18.30017C1.3421494088840484,18.631230000000002,1.9688844088840485,18.54123,2.2999444088840484,18.09917C2.2999444088840484,18.09917,0.6990814088840485,16.90032,0.6990814088840485,16.90032C0.6990814088840485,16.90032,0.6990814088840485,16.90032,0.6990814088840485,16.90032ZM7.499034408884048,15.5C8.05132440888405,15.50046,8.499404408884049,15.05312,8.499864408884049,14.50084C8.50032440888405,13.948551,8.052984408884049,13.500462964,7.500704408884048,13.50000296382C7.500704408884048,13.50000296382,7.499034408884048,15.5,7.499034408884048,15.5C7.499034408884048,15.5,7.499034408884048,15.5,7.499034408884048,15.5ZM2.2999444088840484,18.09917C2.9047844088840487,17.29152,3.6896444088840483,16.63605,4.592164408884049,16.18485C4.592164408884049,16.18485,3.6978444088840483,14.395947,3.6978444088840483,14.395947C2.5171344088840484,14.98622,1.4903484088840484,15.84372,0.6990814088840485,16.90032C0.6990814088840485,16.90032,2.2999444088840484,18.09917,2.2999444088840484,18.09917C2.2999444088840484,18.09917,2.2999444088840484,18.09917,2.2999444088840484,18.09917ZM4.592164408884049,16.18485C5.494694408884048,15.73366,6.490014408884049,15.49916,7.499034408884048,15.5C7.499034408884048,15.5,7.500704408884048,13.50000296382,7.500704408884048,13.50000296382C6.1806644088840486,13.49889996,4.878554408884049,13.805677,3.6978444088840483,14.395947C3.6978444088840483,14.395947,4.592164408884049,16.18485,4.592164408884049,16.18485C4.592164408884049,16.18485,4.592164408884049,16.18485,4.592164408884049,16.18485Z" fill="#FFFFFF" fill-opacity="1"/></g><g><path d="M7.905098767425537,26.56215C7.663339767425537,27.058709999999998,7.869898267425537,27.65723,8.366458767425538,27.89899C8.863021767425536,28.14075,9.461541767425537,27.93419,9.703301767425536,27.43763C9.703301767425536,27.43763,7.905098767425537,26.56215,7.905098767425537,26.56215C7.905098767425537,26.56215,7.905098767425537,26.56215,7.905098767425537,26.56215ZM22.296471767425537,27.4376C22.538271767425535,27.93415,23.136771767425536,28.14071,23.633371767425537,27.89895C24.129871767425538,27.65719,24.336471767425536,27.05866,24.094671767425538,26.5621C24.094671767425538,26.5621,22.296471767425537,27.4376,22.296471767425537,27.4376C22.296471767425537,27.4376,22.296471767425537,27.4376,22.296471767425537,27.4376ZM9.703301767425536,27.43763C10.278121767425537,26.25697,11.173311767425536,25.26171,12.286681767425538,24.56546C12.286681767425538,24.56546,11.226241767425538,22.86974,11.226241767425538,22.86974C9.794911767425537,23.76483,8.644076767425537,25.04432,7.905098767425537,26.56215C7.905098767425537,26.56215,9.703301767425536,27.43763,9.703301767425536,27.43763C9.703301767425536,27.43763,9.703301767425536,27.43763,9.703301767425536,27.43763ZM12.286681767425538,24.56546C13.400051767425538,23.8692,14.686741767425538,23.5,15.999891767425536,23.5C15.999891767425536,23.5,15.999891767425536,21.5,15.999891767425536,21.5C14.311721767425537,21.500005,12.657571767425537,21.974642,11.226241767425538,22.86974C11.226241767425538,22.86974,12.286681767425538,24.56546,12.286681767425538,24.56546C12.286681767425538,24.56546,12.286681767425538,24.56546,12.286681767425538,24.56546ZM15.999891767425536,23.5C17.31304176742554,23.5,18.599771767425537,23.86919,19.71307176742554,24.56544C19.71307176742554,24.56544,20.773471767425537,22.86971,20.773471767425537,22.86971C19.342171767425537,21.974624,17.688051767425538,21.5,15.999891767425536,21.5C15.999891767425536,21.5,15.999891767425536,23.5,15.999891767425536,23.5C15.999891767425536,23.5,15.999891767425536,23.5,15.999891767425536,23.5ZM19.71307176742554,24.56544C20.826471767425538,25.26169,21.721671767425537,26.25694,22.296471767425537,27.4376C22.296471767425537,27.4376,24.094671767425538,26.5621,24.094671767425538,26.5621C23.355671767425537,25.04428,22.204871767425537,23.7648,20.773471767425537,22.86971C20.773471767425537,22.86971,19.71307176742554,24.56544,19.71307176742554,24.56544C19.71307176742554,24.56544,19.71307176742554,24.56544,19.71307176742554,24.56544Z" fill="#FFFFFF" fill-opacity="1"/></g><g><path d="M7.500044893569946,15.500000476837158C8.052324893569946,15.500100476837158,8.500124893569946,15.052470476837158,8.500224893569946,14.500190476837158C8.500334893569946,13.947900476837159,8.052704893569945,13.500100476837158,7.500414893569946,13.500000476837158C7.500414893569946,13.500000476837158,7.500044893569946,15.500000476837158,7.500044893569946,15.500000476837158C7.500044893569946,15.500000476837158,7.500044893569946,15.500000476837158,7.500044893569946,15.500000476837158ZM10.447634893569946,9.936790476837158C10.551314893569947,10.479260476837158,11.075124893569946,10.834960476837157,11.617594893569946,10.731270476837159C12.160054893569946,10.627590476837158,12.515774893569946,10.103780476837159,12.412074893569946,9.561320476837158C12.412074893569946,9.561320476837158,10.447634893569946,9.936790476837158,10.447634893569946,9.936790476837158C10.447634893569946,9.936790476837158,10.447634893569946,9.936790476837158,10.447634893569946,9.936790476837158ZM7.500414893569946,13.500000476837158C6.931204893569946,13.499890476837159,6.3737648935699465,13.337850476837158,5.893194893569946,13.032790476837159C5.893194893569946,13.032790476837159,4.821344893569947,14.721320476837159,4.821344893569947,14.721320476837159C5.622294893569946,15.229750476837157,6.551354893569946,15.499820476837158,7.500044893569946,15.500000476837158C7.500044893569946,15.500000476837158,7.500414893569946,13.500000476837158,7.500414893569946,13.500000476837158C7.500414893569946,13.500000476837158,7.500414893569946,13.500000476837158,7.500414893569946,13.500000476837158ZM5.893194893569946,13.032790476837159C5.412634893569946,12.727740476837159,5.028764893569946,12.292260476837157,4.786434893569947,11.777200476837159C4.786434893569947,11.777200476837159,2.9767378935699464,12.628670476837158,2.9767378935699464,12.628670476837158C3.3806288935699462,13.487090476837158,4.0203948935699465,14.212890476837158,4.821344893569947,14.721320476837159C4.821344893569947,14.721320476837159,5.893194893569946,13.032790476837159,5.893194893569946,13.032790476837159C5.893194893569946,13.032790476837159,5.893194893569946,13.032790476837159,5.893194893569946,13.032790476837159ZM4.786434893569947,11.777200476837159C4.544094893569946,11.262150476837158,4.453294893569947,10.68878047683716,4.524624893569946,10.124060476837158C4.524624893569946,10.124060476837158,2.540393493569946,9.873430476837157,2.540393493569946,9.873430476837157C2.421506493569946,10.814640476837159,2.572847493569946,11.770250476837159,2.9767378935699464,12.628670476837158C2.9767378935699464,12.628670476837158,4.786434893569947,11.777200476837159,4.786434893569947,11.777200476837159C4.786434893569947,11.777200476837159,4.786434893569947,11.777200476837159,4.786434893569947,11.777200476837159ZM4.524624893569946,10.124060476837158C4.595954893569946,9.559330476837157,4.826474893569946,9.026550476837158,5.189274893569946,8.587930476837158C5.189274893569946,8.587930476837158,3.6481348935699462,7.3132204768371585,3.6481348935699462,7.3132204768371585C3.0434798935699465,8.044250476837158,2.6592788935699465,8.93222047683716,2.540393493569946,9.873430476837157C2.540393493569946,9.873430476837157,4.524624893569946,10.124060476837158,4.524624893569946,10.124060476837158C4.524624893569946,10.124060476837158,4.524624893569946,10.124060476837158,4.524624893569946,10.124060476837158ZM5.189274893569946,8.587930476837158C5.552064893569947,8.149310476837158,6.032154893569946,7.822960476837158,6.573484893569947,7.646980476837158C6.573484893569947,7.646980476837158,5.955154893569946,5.744959476837158,5.955154893569946,5.744959476837158C5.052934893569946,6.0382614768371585,4.252784893569946,6.582190476837158,3.6481348935699462,7.3132204768371585C3.6481348935699462,7.3132204768371585,5.189274893569946,8.587930476837158,5.189274893569946,8.587930476837158C5.189274893569946,8.587930476837158,5.189274893569946,8.587930476837158,5.189274893569946,8.587930476837158ZM6.573484893569947,7.646980476837158C7.114804893569946,7.470990476837159,7.695034893569947,7.452650476837158,8.246394893569946,7.594080476837158C8.246394893569946,7.594080476837158,8.743334893569946,5.6568054768371585,8.743334893569946,5.6568054768371585C7.824404893569946,5.421080176837158,6.8573648935699465,5.451660176837159,5.955154893569946,5.744959476837158C5.955154893569946,5.744959476837158,6.573484893569947,7.646980476837158,6.573484893569947,7.646980476837158C6.573484893569947,7.646980476837158,6.573484893569947,7.646980476837158,6.573484893569947,7.646980476837158ZM8.246394893569946,7.594080476837158C8.797754893569946,7.735520476837158,9.297504893569947,8.030890476837158,9.687284893569945,8.445720476837158C9.687284893569945,8.445720476837158,11.144814893569947,7.076200476837158,11.144814893569947,7.076200476837158C10.495194893569947,6.384822476837158,9.662274893569947,5.892529476837158,8.743334893569946,5.6568054768371585C8.743334893569946,5.6568054768371585,8.246394893569946,7.594080476837158,8.246394893569946,7.594080476837158C8.246394893569946,7.594080476837158,8.246394893569946,7.594080476837158,8.246394893569946,7.594080476837158ZM9.687284893569945,8.445720476837158C10.077054893569947,8.860540476837159,10.340774893569947,9.377700476837159,10.447634893569946,9.936790476837158C10.447634893569946,9.936790476837158,12.412074893569946,9.561320476837158,12.412074893569946,9.561320476837158C12.233974893569947,8.629500476837158,11.794444893569946,7.767570476837158,11.144814893569947,7.076200476837158C11.144814893569947,7.076200476837158,9.687284893569945,8.445720476837158,9.687284893569945,8.445720476837158C9.687284893569945,8.445720476837158,9.687284893569945,8.445720476837158,9.687284893569945,8.445720476837158Z" fill="#FFFFFF" fill-opacity="1"/></g><g><path d="M19.58807059453125,9.56150861328125C19.48445259453125,10.103988613281249,19.84021639453125,10.62774861328125,20.38269339453125,10.73136861328125C20.92516939453125,10.83498861328125,21.44893939453125,10.47922861328125,21.55255939453125,9.93674861328125C21.55255939453125,9.93674861328125,19.58807059453125,9.56150861328125,19.58807059453125,9.56150861328125C19.58807059453125,9.56150861328125,19.58807059453125,9.56150861328125,19.58807059453125,9.56150861328125ZM24.49985939453125,13.50000861328125C23.94757939453125,13.50004861328125,23.49989939453125,13.94779861328125,23.49994939453125,14.50008861328125C23.49998939453125,15.05236861328125,23.94774939453125,15.50002861328125,24.50002939453125,15.50002861328125C24.50002939453125,15.50002861328125,24.49985939453125,13.50000861328125,24.49985939453125,13.50000861328125C24.49985939453125,13.50000861328125,24.49985939453125,13.50000861328125,24.49985939453125,13.50000861328125ZM21.55255939453125,9.93674861328125C21.65935939453125,9.377548613281249,21.92306939453125,8.86028861328125,22.31286939453125,8.44535861328125C22.31286939453125,8.44535861328125,20.85520939453125,7.07596861328125,20.85520939453125,7.07596861328125C20.20557239453125,7.76748861328125,19.76608339453125,8.629558613281251,19.58807059453125,9.56150861328125C19.58807059453125,9.56150861328125,21.55255939453125,9.93674861328125,21.55255939453125,9.93674861328125C21.55255939453125,9.93674861328125,21.55255939453125,9.93674861328125,21.55255939453125,9.93674861328125ZM22.31286939453125,8.44535861328125C22.70266939453125,8.03042861328125,23.20247939453125,7.7349586132812505,23.753919394531252,7.5934686132812494C23.753919394531252,7.5934686132812494,23.25684939453125,5.65622461328125,23.25684939453125,5.65622461328125C22.33781939453125,5.89203461328125,21.50484939453125,6.38445261328125,20.85520939453125,7.07596861328125C20.85520939453125,7.07596861328125,22.31286939453125,8.44535861328125,22.31286939453125,8.44535861328125C22.31286939453125,8.44535861328125,22.31286939453125,8.44535861328125,22.31286939453125,8.44535861328125ZM23.753919394531252,7.5934686132812494C24.30535939453125,7.45197861328125,24.88567939453125,7.47029861328125,25.42710939453125,7.64628861328125C25.42710939453125,7.64628861328125,26.04536939453125,5.74424761328125,26.04536939453125,5.74424761328125C25.14303939453125,5.45093851328125,24.17587939453125,5.42041851328125,23.25684939453125,5.65622461328125C23.25684939453125,5.65622461328125,23.753919394531252,7.5934686132812494,23.753919394531252,7.5934686132812494C23.753919394531252,7.5934686132812494,23.753919394531252,7.5934686132812494,23.753919394531252,7.5934686132812494ZM25.42710939453125,7.64628861328125C25.96852939453125,7.8222786132812505,26.44869939453125,8.14867861328125,26.81155939453125,8.58735861328125C26.81155939453125,8.58735861328125,28.35268939453125,7.3126386132812495,28.35268939453125,7.3126386132812495C27.74794939453125,6.58151861328125,26.94769939453125,6.03755061328125,26.04536939453125,5.74424761328125C26.04536939453125,5.74424761328125,25.42710939453125,7.64628861328125,25.42710939453125,7.64628861328125C25.42710939453125,7.64628861328125,25.42710939453125,7.64628861328125,25.42710939453125,7.64628861328125ZM26.81155939453125,8.58735861328125C27.17440939453125,9.026048613281251,27.40496939453125,9.55891861328125,27.47629939453125,10.123738613281251C27.47629939453125,10.123738613281251,29.46053939453125,9.87314861328125,29.46053939453125,9.87314861328125C29.34165939453125,8.93181861328125,28.95741939453125,8.04374861328125,28.35268939453125,7.3126386132812495C28.35268939453125,7.3126386132812495,26.81155939453125,8.58735861328125,26.81155939453125,8.58735861328125C26.81155939453125,8.58735861328125,26.81155939453125,8.58735861328125,26.81155939453125,8.58735861328125ZM27.47629939453125,10.123738613281251C27.54762939453125,10.68855861328125,27.45679939453125,11.26201861328125,27.21439939453125,11.777138613281249C27.21439939453125,11.777138613281249,29.02405939453125,12.62869861328125,29.02405939453125,12.62869861328125C29.42802939453125,11.770188613281249,29.57942939453125,10.81446861328125,29.46053939453125,9.87314861328125C29.46053939453125,9.87314861328125,27.47629939453125,10.123738613281251,27.47629939453125,10.123738613281251C27.47629939453125,10.123738613281251,27.47629939453125,10.123738613281251,27.47629939453125,10.123738613281251ZM27.21439939453125,11.777138613281249C26.97199939453125,12.29226861328125,26.58804939453125,12.72779861328125,26.10737939453125,13.03286861328125C26.10737939453125,13.03286861328125,27.17910939453125,14.72147861328125,27.17910939453125,14.72147861328125C27.98017939453125,14.21304861328125,28.620079394531253,13.487198613281251,29.02405939453125,12.62869861328125C29.02405939453125,12.62869861328125,27.21439939453125,11.777138613281249,27.21439939453125,11.777138613281249C27.21439939453125,11.777138613281249,27.21439939453125,11.777138613281249,27.21439939453125,11.777138613281249ZM26.10737939453125,13.03286861328125C25.62670939453125,13.33793861328125,25.06916939453125,13.49995861328125,24.49985939453125,13.50000861328125C24.49985939453125,13.50000861328125,24.50002939453125,15.50002861328125,24.50002939453125,15.50002861328125C25.448829394531252,15.49992861328125,26.37802939453125,15.22989861328125,27.17910939453125,14.72147861328125C27.17910939453125,14.72147861328125,26.10737939453125,13.03286861328125,26.10737939453125,13.03286861328125C26.10737939453125,13.03286861328125,26.10737939453125,13.03286861328125,26.10737939453125,13.03286861328125Z" fill="#FFFFFF" fill-opacity="1"/></g></g></svg>