<svg xmlns="http://www.w3.org/2000/svg" xmlns:xlink="http://www.w3.org/1999/xlink" fill="none" version="1.1" width="32" height="32" viewBox="0 0 32 32"><g><g></g><g><path d="M19,13C18.447715,13,18,13.447715,18,14C18,14.55228,18.447715,15,19,15C19,15,19,13,19,13C19,13,19,13,19,13ZM24,15C24.55228,15,25,14.55228,25,14C25,13.447715,24.55228,13,24,13C24,13,24,15,24,15C24,15,24,15,24,15ZM19,15C19,15,24,15,24,15C24,15,24,13,24,13C24,13,19,13,19,13C19,13,19,15,19,15C19,15,19,15,19,15Z" fill="#FFFFFF" fill-opacity="1"/></g><g><path d="M19,17C18.447715,17,18,17.447715,18,18C18,18.55228,18.447715,19,19,19C19,19,19,17,19,17C19,17,19,17,19,17ZM24,19C24.55228,19,25,18.55228,25,18C25,17.447715,24.55228,17,24,17C24,17,24,19,24,19C24,19,24,19,24,19ZM19,19C19,19,24,19,24,19C24,19,24,17,24,17C24,17,19,17,19,17C19,17,19,19,19,19C19,19,19,19,19,19Z" fill="#FFFFFF" fill-opacity="1"/></g><g><path d="M13.5126953125,15C13.5126953125,16.10457,12.617265312499999,17,11.5126953125,17C11.5126953125,17,11.5126953125,19,11.5126953125,19C13.7218353125,19,15.5126953125,17.209139999999998,15.5126953125,15C15.5126953125,15,13.5126953125,15,13.5126953125,15C13.5126953125,15,13.5126953125,15,13.5126953125,15ZM11.5126953125,17C10.408125312500001,17,9.5126953125,16.10457,9.5126953125,15C9.5126953125,15,7.5126953125,15,7.5126953125,15C7.5126953125,17.209139999999998,9.3035553125,19,11.5126953125,19C11.5126953125,19,11.5126953125,17,11.5126953125,17C11.5126953125,17,11.5126953125,17,11.5126953125,17ZM9.5126953125,15C9.5126953125,13.895430000000001,10.408125312500001,13,11.5126953125,13C11.5126953125,13,11.5126953125,11,11.5126953125,11C9.3035553125,11,7.5126953125,12.79086,7.5126953125,15C7.5126953125,15,9.5126953125,15,9.5126953125,15C9.5126953125,15,9.5126953125,15,9.5126953125,15ZM11.5126953125,13C12.617265312499999,13,13.5126953125,13.895430000000001,13.5126953125,15C13.5126953125,15,15.5126953125,15,15.5126953125,15C15.5126953125,12.79086,13.7218353125,11,11.5126953125,11C11.5126953125,11,11.5126953125,13,11.5126953125,13C11.5126953125,13,11.5126953125,13,11.5126953125,13Z" fill="#FFFFFF" fill-opacity="1"/></g><g><path d="M6.670491918560791,20.74969C6.532282118560791,21.284399999999998,6.853705118560791,21.829909999999998,7.388415118560791,21.96812C7.923130118560791,22.10634,8.46864011856079,21.78491,8.606850118560791,21.2502C8.606850118560791,21.2502,6.670491918560791,20.74969,6.670491918560791,20.74969C6.670491918560791,20.74969,6.670491918560791,20.74969,6.670491918560791,20.74969ZM14.41837011856079,21.25C14.55662011856079,21.7847,15.102160118560791,22.106090000000002,15.636860118560792,21.96784C16.17156011856079,21.82959,16.492950118560792,21.28405,16.354700118560793,20.74935C16.354700118560793,20.74935,14.41837011856079,21.25,14.41837011856079,21.25C14.41837011856079,21.25,14.41837011856079,21.25,14.41837011856079,21.25ZM8.606850118560791,21.2502C8.773320118560791,20.60615,9.14905011856079,20.03565,9.675000118560792,19.62835C9.675000118560792,19.62835,8.450440118560792,18.04707,8.450440118560792,18.04707C7.574012118560791,18.72579,6.947904118560791,19.67645,6.670491918560791,20.74969C6.670491918560791,20.74969,8.606850118560791,21.2502,8.606850118560791,21.2502C8.606850118560791,21.2502,8.606850118560791,21.2502,8.606850118560791,21.2502ZM9.675000118560792,19.62835C10.20095011856079,19.221049999999998,10.847310118560792,19.00002,11.512530118560791,19C11.512530118560791,19,11.512460118560792,17.00000000325839,11.512460118560792,17.00000000325839C10.403960118560791,17.0000380033,9.326870118560791,17.368353,8.450440118560792,18.04707C8.450440118560792,18.04707,9.675000118560792,19.62835,9.675000118560792,19.62835C9.675000118560792,19.62835,9.675000118560792,19.62835,9.675000118560792,19.62835ZM11.512530118560791,19C12.177750118560791,18.99998,12.824130118560792,19.220959999999998,13.350110118560792,19.62822C13.350110118560792,19.62822,14.574560118560791,18.04686,14.574560118560791,18.04686C13.698080118560792,17.368201,12.620970118560791,16.9999600033,11.512460118560792,17.00000000325839C11.512460118560792,17.00000000325839,11.512530118560791,19,11.512530118560791,19C11.512530118560791,19,11.512530118560791,19,11.512530118560791,19ZM13.350110118560792,19.62822C13.876080118560791,20.03549,14.25185011856079,20.60596,14.41837011856079,21.25C14.41837011856079,21.25,16.354700118560793,20.74935,16.354700118560793,20.74935C16.077210118560792,19.67613,15.45104011856079,18.72552,14.574560118560791,18.04686C14.574560118560791,18.04686,13.350110118560792,19.62822,13.350110118560792,19.62822C13.350110118560792,19.62822,13.350110118560792,19.62822,13.350110118560792,19.62822Z" fill="#FFFFFF" fill-opacity="1"/></g><g><path d="M5,7C5,7,27,7,27,7C27,7,27,5,27,5C27,5,5,5,5,5C5,5,5,7,5,7C5,7,5,7,5,7ZM27,7C27,7,29,7,29,7C29,5.89543,28.1046,5,27,5C27,5,27,7,27,7C27,7,27,7,27,7ZM27,7C27,7,27,25,27,25C27,25,29,25,29,25C29,25,29,7,29,7C29,7,27,7,27,7C27,7,27,7,27,7ZM27,25C27,25,27,27,27,27C28.1046,27,29,26.1046,29,25C29,25,27,25,27,25C27,25,27,25,27,25ZM27,25C27,25,5,25,5,25C5,25,5,27,5,27C5,27,27,27,27,27C27,27,27,25,27,25C27,25,27,25,27,25ZM5,25C5,25,3,25,3,25C3,26.1046,3.89543,27,5,27C5,27,5,25,5,25C5,25,5,25,5,25ZM5,25C5,25,5,7,5,7C5,7,3,7,3,7C3,7,3,25,3,25C3,25,5,25,5,25C5,25,5,25,5,25ZM5,7C5,7,5,5,5,5C3.89543,5,3,5.89543,3,7C3,7,5,7,5,7C5,7,5,7,5,7Z" fill="#FFFFFF" fill-opacity="1"/></g></g></svg>