<svg xmlns="http://www.w3.org/2000/svg" xmlns:xlink="http://www.w3.org/1999/xlink" fill="none" version="1.1" width="32" height="32" viewBox="0 0 32 32"><g><g></g><g><path d="M1.9999996423721313,16.000023437499998C1.9999996423721313,16.000023437499998,1.0861720423721313,15.5939034375,1.0861720423721313,15.5939034375C0.9712600423721314,15.8524734375,0.9712800423721314,16.147623437500002,1.0862050423721314,16.4062234375C1.0862050423721314,16.4062234375,1.9999996423721313,16.000023437499998,1.9999996423721313,16.000023437499998C1.9999996423721313,16.000023437499998,1.9999996423721313,16.000023437499998,1.9999996423721313,16.000023437499998ZM29.99999964237213,16.000023437499998C29.99999964237213,16.000023437499998,30.91379964237213,16.4062234375,30.91379964237213,16.4062234375C31.028699642372132,16.147623437500002,31.028699642372132,15.8524734375,30.91379964237213,15.5939034375C30.91379964237213,15.5939034375,29.99999964237213,16.000023437499998,29.99999964237213,16.000023437499998C29.99999964237213,16.000023437499998,29.99999964237213,16.000023437499998,29.99999964237213,16.000023437499998ZM15.999999642372131,5.9990234375C10.667379642372131,5.9990234375,6.926669642372131,8.4083734375,4.542849642372131,10.792443437500001C3.353829642372131,11.981593437499999,2.496439642372131,13.1690134375,1.9349906423721315,14.0608234375C1.6537746423721313,14.5075134375,1.4453736423721313,14.8823134375,1.3055536423721312,15.1492734375C1.2356066423721312,15.2828234375,1.1827096423721313,15.3896034375,1.1463426423721312,15.4651334375C1.1281566423721314,15.5029134375,1.1140926423721313,15.5329034375,1.1040886423721314,15.5545434375C1.0990860423721314,15.5653634375,1.0950980423721313,15.5740934375,1.0921140423721314,15.5806834375C1.0906230423721313,15.5839734375,1.0893820423721314,15.5867234375,1.0883920423721314,15.5889334375C1.0878970423721313,15.5900334375,1.0874650423721313,15.5910034375,1.0870950423721313,15.5918234375C1.0869100423721314,15.5922434375,1.0866790423721313,15.5927634375,1.0865870423721313,15.5929634375C1.0863720423721313,15.5934534375,1.0861720423721313,15.5939034375,1.9999996423721313,16.000023437499998C2.9138296423721313,16.4061234375,2.9136596423721315,16.4065234375,2.9135096423721314,16.4068234375C2.9134696423721316,16.406923437499998,2.9133296423721315,16.4072234375,2.913269642372131,16.4073234375C2.9131496423721313,16.4076234375,2.9130796423721312,16.4078234375,2.9130696423721316,16.4078234375C2.913059642372131,16.4078234375,2.9132896423721313,16.4073234375,2.9137596423721313,16.4063234375C2.914699642372131,16.4042234375,2.916599642372131,16.4000234375,2.9194696423721314,16.3938234375C2.925209642372131,16.3814234375,2.934829642372131,16.360823437500002,2.9483796423721316,16.3327234375C2.975489642372131,16.2764234375,3.0182996423721313,16.1898234375,3.0772596423721312,16.077223437500002C3.1952496423721315,15.8519234375,3.377479642372131,15.5235234375,3.6275096423721314,15.1263734375C4.128559642372132,14.3305034375,4.896169642372131,13.267673437500001,5.957149642372132,12.2065834375C8.073329642372132,10.0901634375,11.33259964237213,7.9990234375,15.999999642372131,7.9990234375C15.999999642372131,7.9990234375,15.999999642372131,5.9990234375,15.999999642372131,5.9990234375C15.999999642372131,5.9990234375,15.999999642372131,5.9990234375,15.999999642372131,5.9990234375ZM1.9999996423721313,16.000023437499998C1.0862050423721314,16.4062234375,1.0864050423721314,16.406623437500002,1.0866200423721313,16.407123437499997C1.0867120423721313,16.4073234375,1.0869430423721314,16.4078234375,1.0871280423721315,16.4082234375C1.0874980423721314,16.4091234375,1.0879310423721313,16.4100234375,1.0884260423721313,16.411123437500002C1.0894160423721313,16.4133234375,1.0906560423721314,16.416123437499998,1.0921480423721313,16.4194234375C1.0951320423721314,16.4260234375,1.0991210423721314,16.4347234375,1.1041236423721315,16.4455234375C1.1141286423721313,16.4671234375,1.1281926423721313,16.4971234375,1.1463796423721313,16.534923437499998C1.1827476423721313,16.6104234375,1.2356466423721313,16.7172234375,1.3055946423721314,16.8507234375C1.4454186423721314,17.1176234375,1.6538226423721314,17.492323437499998,1.9350436423721313,17.9389234375C2.4964996423721315,18.8306234375,3.3538996423721312,20.017723437500003,4.5429296423721315,21.2066234375C6.926769642372132,23.5902234375,10.667459642372132,25.9990234375,15.999999642372131,25.9990234375C15.999999642372131,25.9990234375,15.999999642372131,23.9990234375,15.999999642372131,23.9990234375C11.332499642372131,23.9990234375,8.07322964237213,21.9083234375,5.957069642372131,19.792323437500002C4.896099642372132,18.7315234375,4.128499642372131,17.6689234375,3.6274596423721315,16.873223437500002C3.3774296423721313,16.4762234375,3.1952096423721312,16.1478234375,3.0772196423721314,15.9226334375C3.0182596423721315,15.8100834375,2.9754596423721313,15.7235034375,2.9483496423721314,15.6672134375C2.9347996423721314,15.6390734375,2.9251796423721315,15.6185134375,2.919439642372131,15.6061034375C2.9165696423721315,15.5998934375,2.9146696423721314,15.5957234375,2.9137296423721315,15.5936534375C2.9132596423721315,15.5926134375,2.9130296423721314,15.5921034375,2.9130396423721314,15.5921334375C2.9130496423721315,15.5921434375,2.9131096423721314,15.5922934375,2.9132396423721314,15.5925734375C2.9132996423721313,15.5927134375,2.9134396423721314,15.5930234375,2.9134696423721316,15.5931034375C2.9136296423721313,15.5934434375,2.9137996423721315,15.5938234375,1.9999996423721313,16.000023437499998C1.9999996423721313,16.000023437499998,1.9999996423721313,16.000023437499998,1.9999996423721313,16.000023437499998ZM15.999999642372131,25.9990234375C21.33249964237213,25.9990234375,25.07319964237213,23.5902234375,27.457099642372132,21.2066234375C28.646099642372132,20.017723437500003,29.50349964237213,18.8306234375,30.064999642372133,17.9389234375C30.34619964237213,17.492323437499998,30.554599642372132,17.1176234375,30.694399642372133,16.8507234375C30.76439964237213,16.7172234375,30.81729964237213,16.6104234375,30.85359964237213,16.534923437499998C30.87179964237213,16.4971234375,30.88589964237213,16.4671234375,30.895899642372132,16.4455234375C30.90089964237213,16.4347234375,30.904899642372133,16.4260234375,30.907899642372133,16.4194234375C30.909299642372133,16.416123437499998,30.91059964237213,16.4133234375,30.91159964237213,16.411123437500002C30.91209964237213,16.4100234375,30.912499642372133,16.4091234375,30.912899642372132,16.4082234375C30.91309964237213,16.4078234375,30.91329964237213,16.4073234375,30.91339964237213,16.407123437499997C30.91359964237213,16.406623437500002,30.91379964237213,16.4062234375,29.99999964237213,16.000023437499998C29.086199642372133,15.5938234375,29.086399642372132,15.5934434375,29.086499642372132,15.5931034375C29.086599642372132,15.5930234375,29.086699642372132,15.5927134375,29.08679964237213,15.5925734375C29.08689964237213,15.5922934375,29.08699964237213,15.5921434375,29.08699964237213,15.5921334375C29.08699964237213,15.5921034375,29.086699642372132,15.5926134375,29.086299642372133,15.5936534375C29.08529964237213,15.5957234375,29.083399642372132,15.5998934375,29.080599642372132,15.6061034375C29.07479964237213,15.6185134375,29.065199642372132,15.6390734375,29.05169964237213,15.6672134375C29.02449964237213,15.7235034375,28.98169964237213,15.8100834375,28.92279964237213,15.9226334375C28.80479964237213,16.1478234375,28.62259964237213,16.4762234375,28.37249964237213,16.873223437500002C27.871499642372132,17.6689234375,27.10389964237213,18.7315234375,26.04289964237213,19.792323437500002C23.92679964237213,21.9083234375,20.66749964237213,23.9990234375,15.999999642372131,23.9990234375C15.999999642372131,23.9990234375,15.999999642372131,25.9990234375,15.999999642372131,25.9990234375C15.999999642372131,25.9990234375,15.999999642372131,25.9990234375,15.999999642372131,25.9990234375ZM29.99999964237213,16.000023437499998C30.91379964237213,15.5939034375,30.91359964237213,15.5934534375,30.91339964237213,15.5929634375C30.91329964237213,15.5927634375,30.91309964237213,15.5922434375,30.912899642372132,15.5918234375C30.912499642372133,15.5910034375,30.91209964237213,15.5900334375,30.91159964237213,15.5889334375C30.91059964237213,15.5867234375,30.909399642372133,15.5839734375,30.907899642372133,15.5806834375C30.904899642372133,15.5740934375,30.90089964237213,15.5653634375,30.895899642372132,15.5545434375C30.88589964237213,15.5329034375,30.87179964237213,15.5029134375,30.85369964237213,15.4651334375C30.81729964237213,15.3896034375,30.76439964237213,15.2828234375,30.694399642372133,15.1492734375C30.554599642372132,14.8823134375,30.34619964237213,14.5075134375,30.064999642372133,14.0608234375C29.50359964237213,13.1690134375,28.64619964237213,11.981593437499999,27.457099642372132,10.792443437500001C25.07329964237213,8.4083734375,21.33259964237213,5.9990234375,15.999999642372131,5.9990234375C15.999999642372131,5.9990234375,15.999999642372131,7.9990234375,15.999999642372131,7.9990234375C20.667399642372132,7.9990234375,23.92669964237213,10.0901634375,26.04289964237213,12.2065834375C27.10379964237213,13.267673437500001,27.871399642372133,14.3305034375,28.37249964237213,15.1263734375C28.62249964237213,15.5235234375,28.80469964237213,15.8519234375,28.92269964237213,16.077223437500002C28.98169964237213,16.1898234375,29.02449964237213,16.2764234375,29.051599642372132,16.3327234375C29.065199642372132,16.360823437500002,29.07479964237213,16.3814234375,29.080499642372132,16.3938234375C29.083399642372132,16.4000234375,29.08529964237213,16.4042234375,29.086199642372133,16.4063234375C29.086699642372132,16.4073234375,29.08689964237213,16.4078234375,29.08689964237213,16.4078234375C29.08689964237213,16.4078234375,29.08689964237213,16.4076234375,29.086699642372132,16.4073234375C29.086699642372132,16.4072234375,29.086499642372132,16.406923437499998,29.086499642372132,16.4068234375C29.086299642372133,16.4065234375,29.086199642372133,16.4061234375,29.99999964237213,16.000023437499998C29.99999964237213,16.000023437499998,29.99999964237213,16.000023437499998,29.99999964237213,16.000023437499998Z" fill="#FFFFFF" fill-opacity="1"/></g><g><path d="M20,16.00006103515625C20,18.209201035156248,18.209139999999998,20.00006103515625,16,20.00006103515625C16,20.00006103515625,16,22.00006103515625,16,22.00006103515625C19.31371,22.00006103515625,22,19.31377103515625,22,16.00006103515625C22,16.00006103515625,20,16.00006103515625,20,16.00006103515625C20,16.00006103515625,20,16.00006103515625,20,16.00006103515625ZM16,20.00006103515625C13.79086,20.00006103515625,12,18.209201035156248,12,16.00006103515625C12,16.00006103515625,10,16.00006103515625,10,16.00006103515625C10,19.31377103515625,12.68629,22.00006103515625,16,22.00006103515625C16,22.00006103515625,16,20.00006103515625,16,20.00006103515625C16,20.00006103515625,16,20.00006103515625,16,20.00006103515625ZM12,16.00006103515625C12,13.79092103515625,13.79086,12.00006103515625,16,12.00006103515625C16,12.00006103515625,16,10.00006103515625,16,10.00006103515625C12.68629,10.00006103515625,10,12.68635103515625,10,16.00006103515625C10,16.00006103515625,12,16.00006103515625,12,16.00006103515625C12,16.00006103515625,12,16.00006103515625,12,16.00006103515625ZM16,12.00006103515625C18.209139999999998,12.00006103515625,20,13.79092103515625,20,16.00006103515625C20,16.00006103515625,22,16.00006103515625,22,16.00006103515625C22,12.68635103515625,19.31371,10.00006103515625,16,10.00006103515625C16,10.00006103515625,16,12.00006103515625,16,12.00006103515625C16,12.00006103515625,16,12.00006103515625,16,12.00006103515625Z" fill="#FFFFFF" fill-opacity="1"/></g></g></svg>