<svg xmlns="http://www.w3.org/2000/svg" xmlns:xlink="http://www.w3.org/1999/xlink" fill="none" version="1.1" width="32" height="32" viewBox="0 0 32 32"><g><g></g><g><path d="M16.5,13.5C16.5,16.537599999999998,14.0376,19,11,19C11,19,11,21,11,21C15.1421,21,18.5,17.6421,18.5,13.5C18.5,13.5,16.5,13.5,16.5,13.5C16.5,13.5,16.5,13.5,16.5,13.5ZM11,19C7.96243,19,5.5,16.537599999999998,5.5,13.5C5.5,13.5,3.5,13.5,3.5,13.5C3.5,17.6421,6.8578600000000005,21,11,21C11,21,11,19,11,19C11,19,11,19,11,19ZM5.5,13.5C5.5,10.462430000000001,7.96243,8,11,8C11,8,11,6,11,6C6.8578600000000005,6,3.5,9.35786,3.5,13.5C3.5,13.5,5.5,13.5,5.5,13.5C5.5,13.5,5.5,13.5,5.5,13.5ZM11,8C14.0376,8,16.5,10.462430000000001,16.5,13.5C16.5,13.5,18.5,13.5,18.5,13.5C18.5,9.35786,15.1421,6,11,6C11,6,11,8,11,8C11,8,11,8,11,8Z" fill="#FFFFFF" fill-opacity="1"/></g><g><path d="M19.155322087158204,6.279622586761475C18.623734087158205,6.429397586761475,18.314213087158205,6.981751586761474,18.4639882871582,7.513336586761475C18.613762087158204,8.044926586761475,19.166116087158205,8.354446586761474,19.697708087158205,8.204676586761474C19.697708087158205,8.204676586761474,19.155322087158204,6.279622586761475,19.155322087158204,6.279622586761475C19.155322087158204,6.279622586761475,19.155322087158204,6.279622586761475,19.155322087158204,6.279622586761475ZM21.190098087158205,19.000036586761475C20.6378180871582,19.000136586761474,20.190148087158203,19.447836586761476,20.190208087158204,20.000136586761474C20.1902780871582,20.552436586761473,20.638048087158204,21.000136586761474,21.190328087158203,21.000036586761475C21.190328087158203,21.000036586761475,21.190098087158205,19.000036586761475,21.190098087158205,19.000036586761475C21.190098087158205,19.000036586761475,21.190098087158205,19.000036586761475,21.190098087158205,19.000036586761475ZM19.697708087158205,8.204676586761474C20.454208087158204,7.991526586761474,21.247598087158202,7.942976586761475,22.024448087158202,8.062276586761474C22.024448087158202,8.062276586761474,22.328028087158202,6.085453186761475,22.328028087158202,6.085453186761475C21.268738087158205,5.922775186761474,20.186878087158203,5.988985166761474,19.155322087158204,6.279622586761475C19.155322087158204,6.279622586761475,19.697708087158205,8.204676586761474,19.697708087158205,8.204676586761474C19.697708087158205,8.204676586761474,19.697708087158205,8.204676586761474,19.697708087158205,8.204676586761474ZM22.024448087158202,8.062276586761474C22.801288087158202,8.181576586761475,23.543548087158204,8.465966586761475,24.201228087158203,8.896296586761475C24.201228087158203,8.896296586761475,25.296258087158204,7.222706586761475,25.296258087158204,7.222706586761475C24.3994580871582,6.635923586761475,23.387328087158203,6.248132586761475,22.328028087158202,6.085453186761475C22.328028087158202,6.085453186761475,22.024448087158202,8.062276586761474,22.024448087158202,8.062276586761474C22.024448087158202,8.062276586761474,22.024448087158202,8.062276586761474,22.024448087158202,8.062276586761474ZM24.201228087158203,8.896296586761475C24.858908087158202,9.326616586761475,25.416728087158205,9.892886586761474,25.837138087158202,10.556946586761475C25.837138087158202,10.556946586761475,27.526968087158203,9.487146586761474,27.526968087158203,9.487146586761474C26.9536980871582,8.581636586761475,26.193068087158203,7.809486586761475,25.296258087158204,7.222706586761475C25.296258087158204,7.222706586761475,24.201228087158203,8.896296586761475,24.201228087158203,8.896296586761475C24.201228087158203,8.896296586761475,24.201228087158203,8.896296586761475,24.201228087158203,8.896296586761475ZM25.837138087158202,10.556946586761475C26.257528087158203,11.221006586761476,26.530758087158205,11.967456586761475,26.638378087158202,12.745996586761475C26.638378087158202,12.745996586761475,28.619558087158204,12.472116586761475,28.619558087158204,12.472116586761475C28.472758087158205,11.410496586761475,28.100228087158204,10.392656586761476,27.526968087158203,9.487146586761474C27.526968087158203,9.487146586761474,25.837138087158202,10.556946586761475,25.837138087158202,10.556946586761475C25.837138087158202,10.556946586761475,25.837138087158202,10.556946586761475,25.837138087158202,10.556946586761475ZM26.638378087158202,12.745996586761475C26.746018087158205,13.524546586761474,26.685558087158203,14.317116586761475,26.461088087158203,15.070336586761474C26.461088087158203,15.070336586761474,28.377778087158205,15.641546586761475,28.377778087158205,15.641546586761475C28.683858087158203,14.614476586761475,28.766258087158203,13.533736586761474,28.619558087158204,12.472116586761475C28.619558087158204,12.472116586761475,26.638378087158202,12.745996586761475,26.638378087158202,12.745996586761475C26.638378087158202,12.745996586761475,26.638378087158202,12.745996586761475,26.638378087158202,12.745996586761475ZM26.461088087158203,15.070336586761474C26.236608087158203,15.823546586761475,25.853338087158203,16.519936586761474,25.3370680871582,17.112536586761475C25.3370680871582,17.112536586761475,26.845088087158203,18.426236586761476,26.845088087158203,18.426236586761476C27.5490580871582,17.618136586761473,28.071678087158205,16.668636586761473,28.377778087158205,15.641546586761475C28.377778087158205,15.641546586761475,26.461088087158203,15.070336586761474,26.461088087158203,15.070336586761474C26.461088087158203,15.070336586761474,26.461088087158203,15.070336586761474,26.461088087158203,15.070336586761474ZM25.3370680871582,17.112536586761475C24.820808087158202,17.705136586761476,24.183538087158205,18.180236586761474,23.468188087158204,18.505836586761475C23.468188087158204,18.505836586761475,24.296718087158204,20.326136586761475,24.296718087158204,20.326136586761475C25.272148087158204,19.882136586761476,26.141118087158205,19.234336586761472,26.845088087158203,18.426236586761476C26.845088087158203,18.426236586761476,25.3370680871582,17.112536586761475,25.3370680871582,17.112536586761475C25.3370680871582,17.112536586761475,25.3370680871582,17.112536586761475,25.3370680871582,17.112536586761475ZM23.468188087158204,18.505836586761475C22.752858087158202,18.831436586761477,21.976058087158204,18.999936586761475,21.190098087158205,19.000036586761475C21.190098087158205,19.000036586761475,21.190328087158203,21.000036586761475,21.190328087158203,21.000036586761475C22.262048087158202,20.999936586761475,23.3212880871582,20.770136586761474,24.296718087158204,20.326136586761475C24.296718087158204,20.326136586761475,23.468188087158204,18.505836586761475,23.468188087158204,18.505836586761475C23.468188087158204,18.505836586761475,23.468188087158204,18.505836586761475,23.468188087158204,18.505836586761475Z" fill="#FFFFFF" fill-opacity="1"/></g><g><path d="M1.1814436033172608,24.09946C0.8638116033172607,24.55127,0.9725817033172608,25.17502,1.4243906033172609,25.49265C1.8761966033172608,25.81028,2.4999466033172606,25.70151,2.817576603317261,25.24971C2.817576603317261,25.24971,1.1814436033172608,24.09946,1.1814436033172608,24.09946C1.1814436033172608,24.09946,1.1814436033172608,24.09946,1.1814436033172608,24.09946ZM19.18202660331726,25.24908C19.49972660331726,25.700870000000002,20.12352660331726,25.80959,20.57532660331726,25.49192C21.02702660331726,25.17426,21.13582660331726,24.5505,20.81812660331726,24.09872C20.81812660331726,24.09872,19.18202660331726,25.24908,19.18202660331726,25.24908C19.18202660331726,25.24908,19.18202660331726,25.24908,19.18202660331726,25.24908ZM2.817576603317261,25.24971C3.740486603317261,23.93695,4.965686603317261,22.86552,6.38975660331726,22.12587C6.38975660331726,22.12587,5.467896603317261,20.351,5.467896603317261,20.351C3.759076603317261,21.23855,2.2888766033172607,22.52422,1.1814436033172608,24.09946C1.1814436033172608,24.09946,2.817576603317261,25.24971,2.817576603317261,25.24971C2.817576603317261,25.24971,2.817576603317261,25.24971,2.817576603317261,25.24971ZM6.38975660331726,22.12587C7.813816603317261,21.38622,9.39494660331726,21.00006,10.99962660331726,21C10.99962660331726,21,10.99962660331726,19.00000000793234,10.99962660331726,19.00000000793234C9.07400660331726,19.0000730079,7.1767266033172605,19.463446,5.467896603317261,20.351C5.467896603317261,20.351,6.38975660331726,22.12587,6.38975660331726,22.12587C6.38975660331726,22.12587,6.38975660331726,22.12587,6.38975660331726,22.12587ZM10.99962660331726,21C12.604326603317261,20.99994,14.18552660331726,21.38598,15.609626603317261,22.12552C15.609626603317261,22.12552,16.53142660331726,20.35057,16.53142660331726,20.35057C14.822526603317261,19.463154,12.925126603317262,18.9999300079,10.99962660331726,19.00000000793234C10.99962660331726,19.00000000793234,10.99962660331726,21,10.99962660331726,21C10.99962660331726,21,10.99962660331726,21,10.99962660331726,21ZM15.609626603317261,22.12552C17.033826603317262,22.86506,18.25902660331726,23.9364,19.18202660331726,25.24908C19.18202660331726,25.24908,20.81812660331726,24.09872,20.81812660331726,24.09872C19.71052660331726,22.52355,18.24022660331726,21.23799,16.53142660331726,20.35057C16.53142660331726,20.35057,15.609626603317261,22.12552,15.609626603317261,22.12552C15.609626603317261,22.12552,15.609626603317261,22.12552,15.609626603317261,22.12552Z" fill="#FFFFFF" fill-opacity="1"/></g><g><path d="M21.189462546875,19.00000313594C20.637177546875,19.000403136,20.189785814875,19.448442,20.190185814887,20.00073C20.190585814875,20.55301,20.638624546875,21.0004,21.190905546875,21C21.190905546875,21,21.189462546875,19.00000313594,21.189462546875,19.00000313594C21.189462546875,19.00000313594,21.189462546875,19.00000313594,21.189462546875,19.00000313594ZM29.371785546875,25.2485C29.689125546874997,25.70051,30.312785546875,25.80968,30.764785546875,25.49234C31.216785546875002,25.17501,31.325985546875,24.55132,31.008685546875,24.09931C31.008685546875,24.09931,29.371785546875,25.2485,29.371785546875,25.2485C29.371785546875,25.2485,29.371785546875,25.2485,29.371785546875,25.2485ZM21.190905546875,21C22.795535546875,20.99884,24.376815546875,21.38435,25.800855546875,22.12388C25.800855546875,22.12388,26.722615546874998,20.348959999999998,26.722615546874998,20.348959999999998C25.013385546875,19.46132,23.115435546875,18.99861014,21.189462546875,19.00000313594C21.189462546875,19.00000313594,21.190905546875,21,21.190905546875,21C21.190905546875,21,21.190905546875,21,21.190905546875,21ZM25.800855546875,22.12388C27.224905546875,22.86342,28.449785546875,23.935209999999998,29.371785546875,25.2485C29.371785546875,25.2485,31.008685546875,24.09931,31.008685546875,24.09931C29.902015546875,22.52302,28.431845546875,21.23659,26.722615546874998,20.348959999999998C26.722615546874998,20.348959999999998,25.800855546875,22.12388,25.800855546875,22.12388C25.800855546875,22.12388,25.800855546875,22.12388,25.800855546875,22.12388Z" fill="#FFFFFF" fill-opacity="1"/></g></g></svg>