<svg xmlns="http://www.w3.org/2000/svg" xmlns:xlink="http://www.w3.org/1999/xlink" fill="none" version="1.1" width="32" height="32" viewBox="0 0 32 32"><g><g></g><g><path d="M27,16C27,22.0751,22.0751,27,16,27C16,27,16,29,16,29C23.1797,29,29,23.1797,29,16C29,16,27,16,27,16C27,16,27,16,27,16ZM16,27C9.92487,27,5,22.0751,5,16C5,16,3,16,3,16C3,23.1797,8.8203,29,16,29C16,29,16,27,16,27C16,27,16,27,16,27ZM5,16C5,9.92487,9.92487,5,16,5C16,5,16,3,16,3C8.8203,3,3,8.8203,3,16C3,16,5,16,5,16C5,16,5,16,5,16ZM16,5C22.0751,5,27,9.92487,27,16C27,16,29,16,29,16C29,8.8203,23.1797,3,16,3C16,3,16,5,16,5C16,5,16,5,16,5Z" fill="#FFFFFF" fill-opacity="1"/></g><g><path d="M20,15C20,17.209139999999998,18.209139999999998,19,16,19C16,19,16,21,16,21C19.31371,21,22,18.31371,22,15C22,15,20,15,20,15C20,15,20,15,20,15ZM16,19C13.79086,19,12,17.209139999999998,12,15C12,15,10,15,10,15C10,18.31371,12.68629,21,16,21C16,21,16,19,16,19C16,19,16,19,16,19ZM12,15C12,12.79086,13.79086,11,16,11C16,11,16,9,16,9C12.68629,9,10,11.68629,10,15C10,15,12,15,12,15C12,15,12,15,12,15ZM16,11C18.209139999999998,11,20,12.79086,20,15C20,15,22,15,22,15C22,11.68629,19.31371,9,16,9C16,9,16,11,16,11C16,11,16,11,16,11Z" fill="#FFFFFF" fill-opacity="1"/></g><g><path d="M7.083520892578125,24.46841C6.833142892578125,24.96067,7.029232292578125,25.56271,7.521500892578125,25.81309C8.013769892578125,26.06347,8.615809892578126,25.86738,8.866189892578126,25.37511C8.866189892578126,25.37511,7.083520892578125,24.46841,7.083520892578125,24.46841C7.083520892578125,24.46841,7.083520892578125,24.46841,7.083520892578125,24.46841ZM23.133739892578124,25.37508C23.384139892578126,25.867350000000002,23.986139892578127,26.06344,24.478439892578123,25.81305C24.970639892578124,25.56267,25.166739892578125,24.960639999999998,24.916439892578126,24.46837C24.916439892578126,24.46837,23.133739892578124,25.37508,23.133739892578124,25.37508C23.133739892578124,25.37508,23.133739892578124,25.37508,23.133739892578124,25.37508ZM8.866189892578126,25.37511C9.535779892578125,24.05861,10.556619892578125,22.95308,11.815689892578124,22.1809C11.815689892578124,22.1809,10.770079892578124,20.47599,10.770079892578124,20.47599C9.196379892578125,21.44114,7.9204478925781245,22.82293,7.083520892578125,24.46841C7.083520892578125,24.46841,8.866189892578126,25.37511,8.866189892578126,25.37511C8.866189892578126,25.37511,8.866189892578126,25.37511,8.866189892578126,25.37511ZM11.815689892578124,22.1809C13.074759892578125,21.40872,14.522949892578126,21,15.999949892578124,21C15.999949892578124,21,15.999949892578124,19,15.999949892578124,19C14.153859892578126,19.000004,12.343779892578125,19.510852,10.770079892578124,20.47599C10.770079892578124,20.47599,11.815689892578124,22.1809,11.815689892578124,22.1809C11.815689892578124,22.1809,11.815689892578124,22.1809,11.815689892578124,22.1809ZM15.999949892578124,21C17.476939892578123,21,18.925139892578123,21.40871,20.184239892578127,22.180880000000002C20.184239892578127,22.180880000000002,21.229839892578127,20.47597,21.229839892578127,20.47597C19.656139892578125,19.510837,17.846039892578126,19,15.999949892578124,19C15.999949892578124,19,15.999949892578124,21,15.999949892578124,21C15.999949892578124,21,15.999949892578124,21,15.999949892578124,21ZM20.184239892578127,22.180880000000002C21.443239892578127,22.95306,22.464139892578125,24.05859,23.133739892578124,25.37508C23.133739892578124,25.37508,24.916439892578126,24.46837,24.916439892578126,24.46837C24.079439892578126,22.8229,22.803539892578126,21.441110000000002,21.229839892578127,20.47597C21.229839892578127,20.47597,20.184239892578127,22.180880000000002,20.184239892578127,22.180880000000002C20.184239892578127,22.180880000000002,20.184239892578127,22.180880000000002,20.184239892578127,22.180880000000002Z" fill="#FFFFFF" fill-opacity="1"/></g></g></svg>