<svg xmlns="http://www.w3.org/2000/svg" xmlns:xlink="http://www.w3.org/1999/xlink" fill="none" version="1.1" width="32" height="32" viewBox="0 0 32 32"><g><g></g><g><path d="M3.999267578125,12C3.446987578125,12,2.999267578125,12.447715,2.999267578125,13C2.999267578125,13.55228,3.446987578125,14,3.999267578125,14C3.999267578125,14,3.999267578125,12,3.999267578125,12C3.999267578125,12,3.999267578125,12,3.999267578125,12ZM9.999267578125,13C9.999267578125,13,10.999267578125,13,10.999267578125,13C10.999267578125,12.447715,10.551547578125,12,9.999267578125,12C9.999267578125,12,9.999267578125,13,9.999267578125,13C9.999267578125,13,9.999267578125,13,9.999267578125,13ZM9.999267578125,26C9.999267578125,26,9.999267578125,27,9.999267578125,27C10.551547578125,27,10.999267578125,26.552300000000002,10.999267578125,26C10.999267578125,26,9.999267578125,26,9.999267578125,26C9.999267578125,26,9.999267578125,26,9.999267578125,26ZM2.999267578125,25C2.999267578125,25,1.999267578125,25,1.999267578125,25C1.999267578125,25,2.999267578125,25,2.999267578125,25C2.999267578125,25,2.999267578125,25,2.999267578125,25ZM3.999267578125,14C3.999267578125,14,9.999267578125,14,9.999267578125,14C9.999267578125,14,9.999267578125,12,9.999267578125,12C9.999267578125,12,3.999267578125,12,3.999267578125,12C3.999267578125,12,3.999267578125,14,3.999267578125,14C3.999267578125,14,3.999267578125,14,3.999267578125,14ZM8.999267578125,13C8.999267578125,13,8.999267578125,26,8.999267578125,26C8.999267578125,26,10.999267578125,26,10.999267578125,26C10.999267578125,26,10.999267578125,13,10.999267578125,13C10.999267578125,13,8.999267578125,13,8.999267578125,13C8.999267578125,13,8.999267578125,13,8.999267578125,13ZM9.999267578125,25C9.999267578125,25,3.999267578125,25,3.999267578125,25C3.999267578125,25,3.999267578125,27,3.999267578125,27C3.999267578125,27,9.999267578125,27,9.999267578125,27C9.999267578125,27,9.999267578125,25,9.999267578125,25C9.999267578125,25,9.999267578125,25,9.999267578125,25ZM3.999267578125,25C3.999267578125,25,3.999267578125,25,3.999267578125,25C3.999267578125,25,2.585053578125,26.4142,2.585053578125,26.4142C2.960128578125,26.7893,3.468837578125,27,3.999267578125,27C3.999267578125,27,3.999267578125,25,3.999267578125,25C3.999267578125,25,3.999267578125,25,3.999267578125,25ZM3.999267578125,25C3.999267578125,25,3.999267578125,25,3.999267578125,25C3.999267578125,25,1.999267578125,25,1.999267578125,25C1.999267578125,25.5304,2.209980578125,26.039099999999998,2.585053578125,26.4142C2.585053578125,26.4142,3.999267578125,25,3.999267578125,25C3.999267578125,25,3.999267578125,25,3.999267578125,25ZM3.999267578125,25C3.999267578125,25,3.999267578125,14,3.999267578125,14C3.999267578125,14,1.999267578125,14,1.999267578125,14C1.999267578125,14,1.999267578125,25,1.999267578125,25C1.999267578125,25,3.999267578125,25,3.999267578125,25C3.999267578125,25,3.999267578125,25,3.999267578125,25ZM3.999267578125,14C3.999267578125,14,3.999267578125,14,3.999267578125,14C3.999267578125,14,2.585053578125,12.585787,2.585053578125,12.585787C2.209981578125,12.960859,1.999267578125,13.469570000000001,1.999267578125,14C1.999267578125,14,3.999267578125,14,3.999267578125,14C3.999267578125,14,3.999267578125,14,3.999267578125,14ZM3.999267578125,14C3.999267578125,14,3.999267578125,14,3.999267578125,14C3.999267578125,14,3.999267578125,12,3.999267578125,12C3.468837578125,12,2.960126578125,12.210714,2.585053578125,12.585787C2.585053578125,12.585787,3.999267578125,14,3.999267578125,14C3.999267578125,14,3.999267578125,14,3.999267578125,14Z" fill="#FFFFFF" fill-opacity="1"/></g><g><path d="M9.10484127935791,12.5528C8.85784827935791,13.0468,9.05807577935791,13.6474,9.552054279357911,13.8944C10.046037279357911,14.1414,10.64670727935791,13.9412,10.89369727935791,13.4472C10.89369727935791,13.4472,9.10484127935791,12.5528,9.10484127935791,12.5528C9.10484127935791,12.5528,9.10484127935791,12.5528,9.10484127935791,12.5528ZM14.999267279357909,3C14.999267279357909,3,14.999267279357909,2,14.999267279357909,2C14.62049727935791,2,14.274227279357909,2.214002,14.104837279357909,2.552786C14.104837279357909,2.552786,14.999267279357909,3,14.999267279357909,3C14.999267279357909,3,14.999267279357909,3,14.999267279357909,3ZM18.99924727935791,10C18.99924727935791,10,17.99926727935791,10,17.99926727935791,10C17.99926727935791,10.55228,18.44697727935791,11,18.99924727935791,11C18.99924727935791,11,18.99924727935791,10,18.99924727935791,10C18.99924727935791,10,18.99924727935791,10,18.99924727935791,10ZM26.73364727935791,10C26.73364727935791,10,26.73364727935791,9,26.73364727935791,9C26.73364727935791,9,26.73364727935791,9,26.73364727935791,9C26.73364727935791,9,26.73364727935791,10,26.73364727935791,10C26.73364727935791,10,26.73364727935791,10,26.73364727935791,10ZM28.71824727935791,12.2481C28.71824727935791,12.2481,27.72594727935791,12.124,27.72594727935791,12.124C27.72594727935791,12.124,27.72594727935791,12.124,27.72594727935791,12.124C27.72594727935791,12.124,28.71824727935791,12.2481,28.71824727935791,12.2481C28.71824727935791,12.2481,28.71824727935791,12.2481,28.71824727935791,12.2481ZM27.21824727935791,24.2481C27.21824727935791,24.2481,28.21054727935791,24.3721,28.21054727935791,24.3721C28.21054727935791,24.3721,28.21054727935791,24.3721,28.21054727935791,24.3721C28.21054727935791,24.3721,27.21824727935791,24.2481,27.21824727935791,24.2481C27.21824727935791,24.2481,27.21824727935791,24.2481,27.21824727935791,24.2481ZM25.23364727935791,26C25.23364727935791,26,25.23364727935791,27,25.23364727935791,27C25.23364727935791,27,25.23364727935791,27,25.23364727935791,27C25.23364727935791,27,25.23364727935791,26,25.23364727935791,26C25.23364727935791,26,25.23364727935791,26,25.23364727935791,26ZM9.99926727935791,25C9.44698327935791,25,8.99926782335791,25.4477,8.99926782335791,26C8.99926782335791,26.5523,9.44698327935791,27,9.99926727935791,27C9.99926727935791,27,9.99926727935791,25,9.99926727935791,25C9.99926727935791,25,9.99926727935791,25,9.99926727935791,25ZM10.89369727935791,13.4472C10.89369727935791,13.4472,15.89369727935791,3.44721,15.89369727935791,3.44721C15.89369727935791,3.44721,14.104837279357909,2.552786,14.104837279357909,2.552786C14.104837279357909,2.552786,9.10484127935791,12.5528,9.10484127935791,12.5528C9.10484127935791,12.5528,10.89369727935791,13.4472,10.89369727935791,13.4472C10.89369727935791,13.4472,10.89369727935791,13.4472,10.89369727935791,13.4472ZM14.999267279357909,4C15.39323727935791,4,15.78333727935791,4.0776,16.14731727935791,4.22836C16.14731727935791,4.22836,16.91268727935791,2.380602,16.91268727935791,2.380602C16.30605727935791,2.129329,15.65587727935791,2,14.999267279357909,2C14.999267279357909,2,14.999267279357909,4,14.999267279357909,4C14.999267279357909,4,14.999267279357909,4,14.999267279357909,4ZM16.14731727935791,4.22836C16.511297279357912,4.37913,16.842007279357908,4.600099999999999,17.12058727935791,4.87868C17.12058727935791,4.87868,18.53479727935791,3.46447,18.53479727935791,3.46447C18.070507279357912,3.00017,17.51930727935791,2.631876,16.91268727935791,2.380602C16.91268727935791,2.380602,16.14731727935791,4.22836,16.14731727935791,4.22836C16.14731727935791,4.22836,16.14731727935791,4.22836,16.14731727935791,4.22836ZM17.12058727935791,4.87868C17.39916727935791,5.15726,17.62014727935791,5.48797,17.77090727935791,5.85195C17.77090727935791,5.85195,19.61864727935791,5.08658,19.61864727935791,5.08658C19.367347279357908,4.4799500000000005,18.99914727935791,3.92876,18.53479727935791,3.46447C18.53479727935791,3.46447,17.12058727935791,4.87868,17.12058727935791,4.87868C17.12058727935791,4.87868,17.12058727935791,4.87868,17.12058727935791,4.87868ZM17.77090727935791,5.85195C17.921667279357912,6.21593,17.99926727935791,6.60603,17.99926727935791,7C17.99926727935791,7,19.99924727935791,7,19.99924727935791,7C19.99924727935791,6.34339,19.86994727935791,5.6932100000000005,19.61864727935791,5.08658C19.61864727935791,5.08658,17.77090727935791,5.85195,17.77090727935791,5.85195C17.77090727935791,5.85195,17.77090727935791,5.85195,17.77090727935791,5.85195ZM17.99926727935791,7C17.99926727935791,7,17.99926727935791,10,17.99926727935791,10C17.99926727935791,10,19.99924727935791,10,19.99924727935791,10C19.99924727935791,10,19.99924727935791,7,19.99924727935791,7C19.99924727935791,7,17.99926727935791,7,17.99926727935791,7C17.99926727935791,7,17.99926727935791,7,17.99926727935791,7ZM18.99924727935791,11C18.99924727935791,11,26.73364727935791,11,26.73364727935791,11C26.73364727935791,11,26.73364727935791,9,26.73364727935791,9C26.73364727935791,9,18.99924727935791,9,18.99924727935791,9C18.99924727935791,9,18.99924727935791,11,18.99924727935791,11C18.99924727935791,11,18.99924727935791,11,18.99924727935791,11ZM26.73364727935791,11C26.87544727935791,11,27.01564727935791,11.03015,27.14494727935791,11.08846C27.14494727935791,11.08846,27.96734727935791,9.26539,27.96734727935791,9.26539C27.57954727935791,9.09046,27.15904727935791,9,26.73364727935791,9C26.73364727935791,9,26.73364727935791,11,26.73364727935791,11C26.73364727935791,11,26.73364727935791,11,26.73364727935791,11ZM27.14494727935791,11.08846C27.27414727935791,11.14677,27.38954727935791,11.2319,27.48334727935791,11.3382C27.48334727935791,11.3382,28.98274727935791,10.01459,28.98274727935791,10.01459C28.70124727935791,9.695689999999999,28.355047279357912,9.44031,27.96734727935791,9.26539C27.96734727935791,9.26539,27.14494727935791,11.08846,27.14494727935791,11.08846C27.14494727935791,11.08846,27.14494727935791,11.08846,27.14494727935791,11.08846ZM27.48334727935791,11.3382C27.57724727935791,11.4445,27.64734727935791,11.56954,27.68914727935791,11.70502C27.68914727935791,11.70502,29.60014727935791,11.11507,29.60014727935791,11.11507C29.47474727935791,10.70861,29.26424727935791,10.33349,28.98274727935791,10.01459C28.98274727935791,10.01459,27.48334727935791,11.3382,27.48334727935791,11.3382C27.48334727935791,11.3382,27.48334727935791,11.3382,27.48334727935791,11.3382ZM27.68914727935791,11.70502C27.73104727935791,11.84051,27.74354727935791,11.98334,27.72594727935791,12.124C27.72594727935791,12.124,29.71054727935791,12.3721,29.71054727935791,12.3721C29.76324727935791,11.95001,29.72564727935791,11.52152,29.60014727935791,11.11507C29.60014727935791,11.11507,27.68914727935791,11.70502,27.68914727935791,11.70502C27.68914727935791,11.70502,27.68914727935791,11.70502,27.68914727935791,11.70502ZM27.72594727935791,12.124C27.72594727935791,12.124,26.22594727935791,24.124,26.22594727935791,24.124C26.22594727935791,24.124,28.21054727935791,24.3721,28.21054727935791,24.3721C28.21054727935791,24.3721,29.71054727935791,12.3721,29.71054727935791,12.3721C29.71054727935791,12.3721,27.72594727935791,12.124,27.72594727935791,12.124C27.72594727935791,12.124,27.72594727935791,12.124,27.72594727935791,12.124ZM26.22594727935791,24.124C26.19574727935791,24.3659,26.07824727935791,24.5884,25.89544727935791,24.7497C25.89544727935791,24.7497,27.21904727935791,26.249,27.21904727935791,26.249C27.76724727935791,25.7651,28.11984727935791,25.0977,28.21054727935791,24.3721C28.21054727935791,24.3721,26.22594727935791,24.124,26.22594727935791,24.124C26.22594727935791,24.124,26.22594727935791,24.124,26.22594727935791,24.124ZM25.89544727935791,24.7497C25.71274727935791,24.911,25.47744727935791,25,25.23364727935791,25C25.23364727935791,25,25.23364727935791,27,25.23364727935791,27C25.96484727935791,27,26.67094727935791,26.733,27.21904727935791,26.249C27.21904727935791,26.249,25.89544727935791,24.7497,25.89544727935791,24.7497C25.89544727935791,24.7497,25.89544727935791,24.7497,25.89544727935791,24.7497ZM25.23364727935791,25C25.23364727935791,25,9.99926727935791,25,9.99926727935791,25C9.99926727935791,25,9.99926727935791,27,9.99926727935791,27C9.99926727935791,27,25.23364727935791,27,25.23364727935791,27C25.23364727935791,27,25.23364727935791,25,25.23364727935791,25C25.23364727935791,25,25.23364727935791,25,25.23364727935791,25Z" fill="#FFFFFF" fill-opacity="1"/></g></g></svg>