<svg xmlns="http://www.w3.org/2000/svg" xmlns:xlink="http://www.w3.org/1999/xlink" fill="none" version="1.1" width="32" height="32" viewBox="0 0 32 32"><g><g></g><g><path d="M5,7C4.447715,7,4,7.447715,4,8C4,8.55228,4.447715,9,5,9C5,9,5,7,5,7C5,7,5,7,5,7ZM27,9C27.5523,9,28,8.55228,28,8C28,7.447715,27.5523,7,27,7C27,7,27,9,27,9C27,9,27,9,27,9ZM5,9C5,9,27,9,27,9C27,9,27,7,27,7C27,7,5,7,5,7C5,7,5,9,5,9C5,9,5,9,5,9Z" fill="#FFFFFF" fill-opacity="1"/></g><g><path d="M5,15C4.447715,15,4,15.447715,4,16C4,16.55228,4.447715,17,5,17C5,17,5,15,5,15C5,15,5,15,5,15ZM20,17C20.5523,17,21,16.55228,21,16C21,15.447715,20.5523,15,20,15C20,15,20,17,20,17C20,17,20,17,20,17ZM5,17C5,17,20,17,20,17C20,17,20,15,20,15C20,15,5,15,5,15C5,15,5,17,5,17C5,17,5,17,5,17Z" fill="#FFFFFF" fill-opacity="1"/></g><g><path d="M5,23C4.447715,23,4,23.447715,4,24C4,24.55228,4.447715,25,5,25C5,25,5,23,5,23C5,23,5,23,5,23ZM14,25C14.5523,25,15,24.55228,15,24C15,23.447715,14.5523,23,14,23C14,23,14,25,14,25C14,25,14,25,14,25ZM5,25C5,25,14,25,14,25C14,25,14,23,14,23C14,23,5,23,5,23C5,23,5,25,5,25C5,25,5,25,5,25Z" fill="#FFFFFF" fill-opacity="1"/></g><g><path d="M24,24C24,25.10457,23.10457,26,22,26C22,26,22,28,22,28C24.209139999999998,28,26,26.209139999999998,26,24C26,24,24,24,24,24C24,24,24,24,24,24ZM22,26C20.89543,26,20,25.10457,20,24C20,24,18,24,18,24C18,26.209139999999998,19.79086,28,22,28C22,28,22,26,22,26C22,26,22,26,22,26ZM20,24C20,22.89543,20.89543,22,22,22C22,22,22,20,22,20C19.79086,20,18,21.79086,18,24C18,24,20,24,20,24C20,24,20,24,20,24ZM22,22C23.10457,22,24,22.89543,24,24C24,24,26,24,26,24C26,21.79086,24.209139999999998,20,22,20C22,20,22,22,22,22C22,22,22,22,22,22Z" fill="#FFFFFF" fill-opacity="1"/></g><g><path d="M24,23.999991416931152C24,24.552291416931155,24.447715,24.999991416931152,25,24.999991416931152C25.55228,24.999991416931152,26,24.552291416931155,26,23.999991416931152C26,23.999991416931152,24,23.999991416931152,24,23.999991416931152C24,23.999991416931152,24,23.999991416931152,24,23.999991416931152ZM25,14.000001416931152C25,14.000001416931152,25.28735,13.042174216931153,25.28735,13.042174216931153C24.984573,12.951340216931152,24.656679,13.009014206931152,24.403069,13.197707416931152C24.14946,13.386400416931153,24,13.683894416931153,24,14.000001416931152C24,14.000001416931152,25,14.000001416931152,25,14.000001416931152C25,14.000001416931152,25,14.000001416931152,25,14.000001416931152ZM29.71265,16.457831416931153C30.24164,16.616521416931153,30.799129999999998,16.316341416931152,30.95783,15.787351416931152C31.11652,15.258361416931152,30.81634,14.700871416931152,30.28735,14.542171416931152C30.28735,14.542171416931152,29.71265,16.457831416931153,29.71265,16.457831416931153C29.71265,16.457831416931153,29.71265,16.457831416931153,29.71265,16.457831416931153ZM26,23.999991416931152C26,23.999991416931152,26,14.000001416931152,26,14.000001416931152C26,14.000001416931152,24,14.000001416931152,24,14.000001416931152C24,14.000001416931152,24,23.999991416931152,24,23.999991416931152C24,23.999991416931152,26,23.999991416931152,26,23.999991416931152C26,23.999991416931152,26,23.999991416931152,26,23.999991416931152ZM24.712652,14.957821416931152C24.712652,14.957821416931152,29.71265,16.457831416931153,29.71265,16.457831416931153C29.71265,16.457831416931153,30.28735,14.542171416931152,30.28735,14.542171416931152C30.28735,14.542171416931152,25.28735,13.042174216931153,25.28735,13.042174216931153C25.28735,13.042174216931153,24.712652,14.957821416931152,24.712652,14.957821416931152C24.712652,14.957821416931152,24.712652,14.957821416931152,24.712652,14.957821416931152Z" fill="#FFFFFF" fill-opacity="1"/></g></g></svg>