<svg xmlns="http://www.w3.org/2000/svg" xmlns:xlink="http://www.w3.org/1999/xlink" fill="none" version="1.1" width="32" height="32" viewBox="0 0 32 32"><g><g></g><g><path d="M3.999267578125,5C3.446987578125,5,2.999267578125,5.447715,2.999267578125,6C2.999267578125,6.55228,3.446987578125,7,3.999267578125,7C3.999267578125,7,3.999267578125,5,3.999267578125,5C3.999267578125,5,3.999267578125,5,3.999267578125,5ZM9.999267578125,6C9.999267578125,6,10.999267578125,6,10.999267578125,6C10.999267578125,5.447715,10.551547578125,5,9.999267578125,5C9.999267578125,5,9.999267578125,6,9.999267578125,6C9.999267578125,6,9.999267578125,6,9.999267578125,6ZM9.999267578125,19C9.999267578125,19,9.999267578125,20,9.999267578125,20C10.551547578125,20,10.999267578125,19.552300000000002,10.999267578125,19C10.999267578125,19,9.999267578125,19,9.999267578125,19C9.999267578125,19,9.999267578125,19,9.999267578125,19ZM2.999267578125,18C2.999267578125,18,1.999267578125,18,1.999267578125,18C1.999267578125,18,2.999267578125,18,2.999267578125,18C2.999267578125,18,2.999267578125,18,2.999267578125,18ZM3.999267578125,7C3.999267578125,7,9.999267578125,7,9.999267578125,7C9.999267578125,7,9.999267578125,5,9.999267578125,5C9.999267578125,5,3.999267578125,5,3.999267578125,5C3.999267578125,5,3.999267578125,7,3.999267578125,7C3.999267578125,7,3.999267578125,7,3.999267578125,7ZM8.999267578125,6C8.999267578125,6,8.999267578125,19,8.999267578125,19C8.999267578125,19,10.999267578125,19,10.999267578125,19C10.999267578125,19,10.999267578125,6,10.999267578125,6C10.999267578125,6,8.999267578125,6,8.999267578125,6C8.999267578125,6,8.999267578125,6,8.999267578125,6ZM9.999267578125,18C9.999267578125,18,3.999267578125,18,3.999267578125,18C3.999267578125,18,3.999267578125,20,3.999267578125,20C3.999267578125,20,9.999267578125,20,9.999267578125,20C9.999267578125,20,9.999267578125,18,9.999267578125,18C9.999267578125,18,9.999267578125,18,9.999267578125,18ZM3.999267578125,18C3.999267578125,18,3.999267578125,18,3.999267578125,18C3.999267578125,18,2.585053578125,19.4142,2.585053578125,19.4142C2.960128578125,19.7893,3.468837578125,20,3.999267578125,20C3.999267578125,20,3.999267578125,18,3.999267578125,18C3.999267578125,18,3.999267578125,18,3.999267578125,18ZM3.999267578125,18C3.999267578125,18,3.999267578125,18,3.999267578125,18C3.999267578125,18,1.999267578125,18,1.999267578125,18C1.999267578125,18.5304,2.209980578125,19.039099999999998,2.585053578125,19.4142C2.585053578125,19.4142,3.999267578125,18,3.999267578125,18C3.999267578125,18,3.999267578125,18,3.999267578125,18ZM3.999267578125,18C3.999267578125,18,3.999267578125,7,3.999267578125,7C3.999267578125,7,1.999267578125,7,1.999267578125,7C1.999267578125,7,1.999267578125,18,1.999267578125,18C1.999267578125,18,3.999267578125,18,3.999267578125,18C3.999267578125,18,3.999267578125,18,3.999267578125,18ZM3.999267578125,7C3.999267578125,7,3.999267578125,7,3.999267578125,7C3.999267578125,7,2.585053578125,5.585787,2.585053578125,5.585787C2.209981578125,5.960859,1.999267578125,6.46957,1.999267578125,7C1.999267578125,7,3.999267578125,7,3.999267578125,7C3.999267578125,7,3.999267578125,7,3.999267578125,7ZM3.999267578125,7C3.999267578125,7,3.999267578125,7,3.999267578125,7C3.999267578125,7,3.999267578125,5,3.999267578125,5C3.468837578125,5,2.960126578125,5.210714,2.585053578125,5.585787C2.585053578125,5.585787,3.999267578125,7,3.999267578125,7C3.999267578125,7,3.999267578125,7,3.999267578125,7Z" fill="#FFFFFF" fill-opacity="1"/></g><g><path d="M10.89369727935791,18.552799999999998C10.64670727935791,18.058799999999998,10.046037279357911,17.8586,9.552054279357911,18.105600000000003C9.05807577935791,18.352600000000002,8.85784827935791,18.953200000000002,9.10484127935791,19.447200000000002C9.10484127935791,19.447200000000002,10.89369727935791,18.552799999999998,10.89369727935791,18.552799999999998C10.89369727935791,18.552799999999998,10.89369727935791,18.552799999999998,10.89369727935791,18.552799999999998ZM14.999267279357909,29C14.999267279357909,29,14.104837279357909,29.4472,14.104837279357909,29.4472C14.274227279357909,29.786,14.62049727935791,30,14.999267279357909,30C14.999267279357909,30,14.999267279357909,29,14.999267279357909,29C14.999267279357909,29,14.999267279357909,29,14.999267279357909,29ZM18.99924727935791,22C18.99924727935791,22,18.99924727935791,21,18.99924727935791,21C18.44697727935791,21,17.99926727935791,21.4477,17.99926727935791,22C17.99926727935791,22,18.99924727935791,22,18.99924727935791,22C18.99924727935791,22,18.99924727935791,22,18.99924727935791,22ZM26.73364727935791,22C26.73364727935791,22,26.73364727935791,23,26.73364727935791,23C26.73364727935791,23,26.73364727935791,23,26.73364727935791,23C26.73364727935791,23,26.73364727935791,22,26.73364727935791,22C26.73364727935791,22,26.73364727935791,22,26.73364727935791,22ZM28.71824727935791,19.7519C28.71824727935791,19.7519,27.72594727935791,19.875999999999998,27.72594727935791,19.875999999999998C27.72594727935791,19.875999999999998,27.72594727935791,19.875999999999998,27.72594727935791,19.875999999999998C27.72594727935791,19.875999999999998,28.71824727935791,19.7519,28.71824727935791,19.7519C28.71824727935791,19.7519,28.71824727935791,19.7519,28.71824727935791,19.7519ZM27.21824727935791,7.75193C27.21824727935791,7.75193,28.21054727935791,7.6279,28.21054727935791,7.6279C28.21054727935791,7.6279,28.21054727935791,7.6279,28.21054727935791,7.6279C28.21054727935791,7.6279,27.21824727935791,7.75193,27.21824727935791,7.75193C27.21824727935791,7.75193,27.21824727935791,7.75193,27.21824727935791,7.75193ZM25.23364727935791,6C25.23364727935791,6,25.23364727935791,5,25.23364727935791,5C25.23364727935791,5,25.23364727935791,5,25.23364727935791,5C25.23364727935791,5,25.23364727935791,6,25.23364727935791,6C25.23364727935791,6,25.23364727935791,6,25.23364727935791,6ZM9.99926727935791,5C9.44698327935791,5,8.99926782335791,5.447715,8.99926782335791,6C8.99926782335791,6.55228,9.44698327935791,7,9.99926727935791,7C9.99926727935791,7,9.99926727935791,5,9.99926727935791,5C9.99926727935791,5,9.99926727935791,5,9.99926727935791,5ZM9.10484127935791,19.447200000000002C9.10484127935791,19.447200000000002,14.104837279357909,29.4472,14.104837279357909,29.4472C14.104837279357909,29.4472,15.89369727935791,28.5528,15.89369727935791,28.5528C15.89369727935791,28.5528,10.89369727935791,18.552799999999998,10.89369727935791,18.552799999999998C10.89369727935791,18.552799999999998,9.10484127935791,19.447200000000002,9.10484127935791,19.447200000000002C9.10484127935791,19.447200000000002,9.10484127935791,19.447200000000002,9.10484127935791,19.447200000000002ZM14.999267279357909,30C15.65587727935791,30,16.30605727935791,29.8707,16.91268727935791,29.6194C16.91268727935791,29.6194,16.14731727935791,27.7716,16.14731727935791,27.7716C15.78333727935791,27.9224,15.39323727935791,28,14.999267279357909,28C14.999267279357909,28,14.999267279357909,30,14.999267279357909,30C14.999267279357909,30,14.999267279357909,30,14.999267279357909,30ZM16.91268727935791,29.6194C17.51931727935791,29.3681,18.070507279357912,28.9998,18.53479727935791,28.5355C18.53479727935791,28.5355,17.12058727935791,27.1213,17.12058727935791,27.1213C16.842007279357908,27.3999,16.511297279357912,27.6209,16.14731727935791,27.7716C16.14731727935791,27.7716,16.91268727935791,29.6194,16.91268727935791,29.6194C16.91268727935791,29.6194,16.91268727935791,29.6194,16.91268727935791,29.6194ZM18.53479727935791,28.5355C18.99914727935791,28.0712,19.367347279357908,27.52,19.61864727935791,26.9134C19.61864727935791,26.9134,17.77090727935791,26.1481,17.77090727935791,26.1481C17.62014727935791,26.512,17.39916727935791,26.8427,17.12058727935791,27.1213C17.12058727935791,27.1213,18.53479727935791,28.5355,18.53479727935791,28.5355C18.53479727935791,28.5355,18.53479727935791,28.5355,18.53479727935791,28.5355ZM19.61864727935791,26.9134C19.86994727935791,26.3068,19.99924727935791,25.6566,19.99924727935791,25C19.99924727935791,25,17.99926727935791,25,17.99926727935791,25C17.99926727935791,25.394,17.921667279357912,25.7841,17.77090727935791,26.1481C17.77090727935791,26.1481,19.61864727935791,26.9134,19.61864727935791,26.9134C19.61864727935791,26.9134,19.61864727935791,26.9134,19.61864727935791,26.9134ZM19.99924727935791,25C19.99924727935791,25,19.99924727935791,22,19.99924727935791,22C19.99924727935791,22,17.99926727935791,22,17.99926727935791,22C17.99926727935791,22,17.99926727935791,25,17.99926727935791,25C17.99926727935791,25,19.99924727935791,25,19.99924727935791,25C19.99924727935791,25,19.99924727935791,25,19.99924727935791,25ZM18.99924727935791,23C18.99924727935791,23,26.73364727935791,23,26.73364727935791,23C26.73364727935791,23,26.73364727935791,21,26.73364727935791,21C26.73364727935791,21,18.99924727935791,21,18.99924727935791,21C18.99924727935791,21,18.99924727935791,23,18.99924727935791,23C18.99924727935791,23,18.99924727935791,23,18.99924727935791,23ZM26.73364727935791,23C27.15904727935791,23,27.57954727935791,22.9095,27.96734727935791,22.7346C27.96734727935791,22.7346,27.14494727935791,20.9115,27.14494727935791,20.9115C27.01564727935791,20.9698,26.87544727935791,21,26.73364727935791,21C26.73364727935791,21,26.73364727935791,23,26.73364727935791,23C26.73364727935791,23,26.73364727935791,23,26.73364727935791,23ZM27.96734727935791,22.7346C28.355047279357912,22.5597,28.70124727935791,22.3043,28.98274727935791,21.9854C28.98274727935791,21.9854,27.48334727935791,20.6618,27.48334727935791,20.6618C27.38954727935791,20.7681,27.27414727935791,20.8532,27.14494727935791,20.9115C27.14494727935791,20.9115,27.96734727935791,22.7346,27.96734727935791,22.7346C27.96734727935791,22.7346,27.96734727935791,22.7346,27.96734727935791,22.7346ZM28.98274727935791,21.9854C29.26424727935791,21.6665,29.47474727935791,21.2914,29.60014727935791,20.884900000000002C29.60014727935791,20.884900000000002,27.68914727935791,20.295,27.68914727935791,20.295C27.64734727935791,20.430500000000002,27.57724727935791,20.555500000000002,27.48334727935791,20.6618C27.48334727935791,20.6618,28.98274727935791,21.9854,28.98274727935791,21.9854C28.98274727935791,21.9854,28.98274727935791,21.9854,28.98274727935791,21.9854ZM29.60014727935791,20.884900000000002C29.72564727935791,20.4785,29.76324727935791,20.05,29.71054727935791,19.6279C29.71054727935791,19.6279,27.72594727935791,19.875999999999998,27.72594727935791,19.875999999999998C27.74354727935791,20.0167,27.73104727935791,20.1595,27.68914727935791,20.295C27.68914727935791,20.295,29.60014727935791,20.884900000000002,29.60014727935791,20.884900000000002C29.60014727935791,20.884900000000002,29.60014727935791,20.884900000000002,29.60014727935791,20.884900000000002ZM29.71054727935791,19.6279C29.71054727935791,19.6279,28.21054727935791,7.6279,28.21054727935791,7.6279C28.21054727935791,7.6279,26.22594727935791,7.87596,26.22594727935791,7.87596C26.22594727935791,7.87596,27.72594727935791,19.875999999999998,27.72594727935791,19.875999999999998C27.72594727935791,19.875999999999998,29.71054727935791,19.6279,29.71054727935791,19.6279C29.71054727935791,19.6279,29.71054727935791,19.6279,29.71054727935791,19.6279ZM28.21054727935791,7.6279C28.11984727935791,6.90234,27.76724727935791,6.23488,27.21904727935791,5.750966C27.21904727935791,5.750966,25.89544727935791,7.25032,25.89544727935791,7.25032C26.07824727935791,7.411630000000001,26.19574727935791,7.63411,26.22594727935791,7.875970000000001C26.22594727935791,7.875970000000001,28.21054727935791,7.6279,28.21054727935791,7.6279C28.21054727935791,7.6279,28.21054727935791,7.6279,28.21054727935791,7.6279ZM27.21904727935791,5.750966C26.67094727935791,5.267052,25.96484727935791,5,25.23364727935791,5C25.23364727935791,5,25.23364727935791,7,25.23364727935791,7C25.47744727935791,7,25.71274727935791,7.08902,25.89544727935791,7.25032C25.89544727935791,7.25032,27.21904727935791,5.750966,27.21904727935791,5.750966C27.21904727935791,5.750966,27.21904727935791,5.750966,27.21904727935791,5.750966ZM25.23364727935791,5C25.23364727935791,5,9.99926727935791,5,9.99926727935791,5C9.99926727935791,5,9.99926727935791,7,9.99926727935791,7C9.99926727935791,7,25.23364727935791,7,25.23364727935791,7C25.23364727935791,7,25.23364727935791,5,25.23364727935791,5C25.23364727935791,5,25.23364727935791,5,25.23364727935791,5Z" fill="#FFFFFF" fill-opacity="1"/></g></g></svg>