<svg xmlns="http://www.w3.org/2000/svg" xmlns:xlink="http://www.w3.org/1999/xlink" fill="none" version="1.1" width="32" height="32" viewBox="0 0 32 32"><g><g></g><g><path d="M7.99963171875,17.5002C7.99964171875,17.6316,7.97378171875,17.7616,7.92353171875,17.8829C7.87328171875,18.0043,7.79962171875,18.1145,7.70676171875,18.2074C7.61390171875,18.3002,7.50365171875,18.3739,7.38232171875,18.4241C7.26100171875,18.4744,7.13096171875,18.5002,6.99963171875,18.5002C6.99963171875,18.5002,6.99957171875,18.5002,6.99957171875,18.5002C6.99957171875,18.5002,1.49938971875,18.4998,1.49938971875,18.4998C1.31362571875,18.4997,1.13154071875,18.448,0.97354671875,18.3503C0.8155537187499999,18.2526,0.68789871875,18.1128,0.60489371875,17.9466C0.52188881875,17.7804,0.48681511875,17.5944,0.50360517875,17.409399999999998C0.52039521875,17.2244,0.58838501875,17.0477,0.69995271875,16.8992C1.58625171875,15.7117,2.76833171875,14.77727,4.12836171875,14.18908C3.54396171875,13.65489,3.09481171875,12.98953,2.81788171875,12.24779C2.54096171875,11.506039999999999,2.44417171875,10.70913,2.53550171875,9.92266C2.62682171875,9.1362,2.90365171875,8.382670000000001,3.34318171875,7.72412C3.78271171875,7.06557,4.37238171875,6.52085,5.06363171875,6.134785C5.75488171875,5.748725,6.52795171875,5.5323753,7.31918171875,5.5035497C8.11041171875,5.4747241,8.89717171875,5.634247,9.61468171875,5.968984C10.33219171875,6.303721,10.95991171875,6.8041,11.44621171875,7.42892C11.93251171875,8.05373,12.26341171875,8.78512,12.41171171875,9.56286C12.45011171875,9.764859999999999,12.42521171875,9.973790000000001,12.34061171875,10.161159999999999C12.25591171875,10.34854,12.11551171875,10.50526,11.93861171875,10.60998C10.31963171875,11.56772,9.08745171875,13.06249,8.45624171875,14.83446C8.15300171875,15.6905,7.99857171875,16.592100000000002,7.99963171875,17.5002C7.99963171875,17.5002,7.99963171875,17.5002,7.99963171875,17.5002C7.99963171875,17.5002,7.99963171875,17.5002,7.99963171875,17.5002ZM31.29951171875,16.898899999999998C30.41331171875,15.7114,29.23121171875,14.77701,27.87121171875,14.18884C28.45561171875,13.65465,28.90471171875,12.9893,29.18171171875,12.24756C29.45861171875,11.50582,29.55541171875,10.708919999999999,29.46411171875,9.922450000000001C29.37271171875,9.13599,29.09591171875,8.38247,28.65641171875,7.72392C28.21691171875,7.06538,27.62721171875,6.52064,26.93601171875,6.1345790000000004C26.24471171875,5.748514,25.47171171875,5.5321553,24.68041171875,5.50331748C23.88921171875,5.4744796000000004,23.10251171875,5.633987,22.38491171875,5.968708C21.66741171875,6.303428,21.03971171875,6.80379,20.55341171875,7.42859C20.06711171875,8.05339,19.73621171875,8.78476,19.58781171875,9.56249C19.54951171875,9.76449,19.57431171875,9.9734,19.65901171875,10.16077C19.74361171875,10.34814,19.88401171875,10.50487,20.06091171875,10.60961C21.67991171875,11.56743,22.91201171875,13.06223,23.54331171875,14.83422C23.84651171875,15.6902,24.00101171875,16.591900000000003,23.99991171875,17.5C23.99991171875,17.6313,24.02571171875,17.761400000000002,24.07601171875,17.8827C24.12631171875,18.003999999999998,24.19991171875,18.1143,24.29281171875,18.2071C24.38571171875,18.3,24.49591171875,18.3736,24.61731171875,18.4239C24.73861171875,18.4741,24.86871171875,18.5,25.00001171875,18.5C25.00001171875,18.5,30.50011171875,18.499499999999998,30.50011171875,18.499499999999998C30.68591171875,18.499499999999998,30.86801171875,18.447699999999998,31.02601171875,18.35C31.18401171875,18.252299999999998,31.31161171875,18.1125,31.39461171875,17.9463C31.47761171875,17.780099999999997,31.51271171875,17.594099999999997,31.49591171875,17.409100000000002C31.47911171875,17.2241,31.41111171875,17.0474,31.29961171875,16.898899999999998C31.29961171875,16.898899999999998,31.29951171875,16.898899999999998,31.29951171875,16.898899999999998C31.29951171875,16.898899999999998,31.29951171875,16.898899999999998,31.29951171875,16.898899999999998ZM19.64511171875,22.2612C20.64151171875,21.4991,21.37391171875,20.4438,21.73951171875,19.2438C22.10501171875,18.043799999999997,22.08521171875,16.7594,21.68291171875,15.5712C21.28061171875,14.38299,20.51601171875,13.35078,19.49661171875,12.6197C18.47721171875,11.88861,17.25431171875,11.495429999999999,15.99991171875,11.495429999999999C14.74541171875,11.495429999999999,13.52251171875,11.88861,12.50311171875,12.6197C11.48371171875,13.35078,10.71911171875,14.38299,10.31681171875,15.5712C9.91449171875,16.7594,9.89472171875,18.043799999999997,10.26026171875,19.2438C10.62581171875,20.4438,11.35831171875,21.4991,12.35471171875,22.2612C10.40780171875,23.1207,8.83051171875,24.6452,7.90527171875,26.5618C7.83096171875,26.7142,7.79664171875,26.8831,7.80555171875,27.0524C7.81446171875,27.2218,7.86630171875,27.3861,7.95620171875,27.5299C8.046091718749999,27.6737,8.171091718749999,27.7923,8.31944171875,27.8745C8.46778171875,27.9568,8.63460171875,27.9999,8.80420171875,27.9999C8.80420171875,27.9999,23.19551171875,27.9999,23.19551171875,27.9999C23.36511171875,27.9999,23.53191171875,27.9567,23.68031171875,27.8745C23.82861171875,27.7923,23.95361171875,27.6737,24.04351171875,27.5299C24.13341171875,27.3861,24.18521171875,27.2218,24.19421171875,27.0524C24.20311171875,26.8831,24.16881171875,26.7142,24.09451171875,26.5618C23.16921171875,24.6452,21.59191171875,23.1207,19.64511171875,22.2612C19.64511171875,22.2612,19.64511171875,22.2612,19.64511171875,22.2612C19.64511171875,22.2612,19.64511171875,22.2612,19.64511171875,22.2612Z" fill="#FFFFFF" fill-opacity="1"/></g></g></svg>