<svg xmlns="http://www.w3.org/2000/svg" xmlns:xlink="http://www.w3.org/1999/xlink" fill="none" version="1.1" width="32" height="32" viewBox="0 0 32 32"><g><g></g><g><path d="M22.0029296875,4.0000110382C20.8387296875,3.99801149,19.6902296875,4.2677,18.6486296875,4.787624C17.607029687500003,5.30755,16.7011296875,6.063359999999999,16.0029296875,6.99494C15.0574296875,5.73687,13.7401296875,4.808002,12.2376396875,4.339765C10.7351196875,3.871528,9.1234096875,3.887638,7.6305496875,4.385817C6.1376996875,4.883996,4.8392996875000005,5.83901,3.9190896875,7.115740000000001C2.9988836875000002,8.39246,2.5034615535,9.92623,2.5029296875,11.50001C2.5029296875000013,20.4829,14.9830296875,27.575,15.5143296875,27.8725C15.6635296875,27.9561,15.8318296875,28,16.0029296875,28C16.1740296875,28,16.342329687499998,27.9561,16.491529687499998,27.8725C18.7869296875,26.5282,20.9411296875,24.9563,22.9218296875,23.1808C27.2887296875,19.2506,29.5029296875,15.3206,29.5029296875,11.50001C29.5006296875,9.51158,28.7097296875,7.605230000000001,27.3037296875,6.199199999999999C25.8977296875,4.793165,23.9913296875,4.00226474,22.0029296875,4.0000110382C22.0029296875,4.0000110382,22.0029296875,4.0000110382,22.0029296875,4.0000110382C22.0029296875,4.0000110382,22.0029296875,4.0000110382,22.0029296875,4.0000110382Z" fill="#FFFFFF" fill-opacity="1"/></g></g></svg>