<svg xmlns="http://www.w3.org/2000/svg" xmlns:xlink="http://www.w3.org/1999/xlink" fill="none" version="1.1" width="32" height="32" viewBox="0 0 32 32"><g><g></g><g><path d="M26.61440601158142,3.2114212968749998C26.49510601158142,3.117154296875,26.35570601158142,3.051715696875,26.20700601158142,3.020208196875C26.058206011581422,2.988700796875,25.904306011581422,2.991976546875,25.75700601158142,3.029779996875C25.75700601158142,3.029779996875,9.75700601158142,7.029779296875,9.75700601158142,7.029779296875C9.54062601158142,7.083719296875,9.348486011581421,7.208479296875,9.21116601158142,7.384189296875C9.073856011581421,7.559909296875,8.99923601158142,7.776499296875,8.999196011581422,7.999509296875C8.999196011581422,7.999509296875,8.999196011581422,21.761479296875,8.999196011581422,21.761479296875C8.165286011581422,21.204679296875,7.169216011581421,20.942379296875,6.169226011581421,21.016479296875C5.169236011581421,21.090579296875,4.222676011581421,21.496779296875,3.4799360115814206,22.170379296875C2.737204011581421,22.844079296875,2.2408850115814207,23.746579296875,2.069834311581421,24.734679296875C1.8987830115814208,25.722679296875,2.0628123115814208,26.739579296875,2.535861011581421,27.623679296875C3.008906011581421,28.507779296875,3.763846011581421,29.208479296875,4.680736011581421,29.614479296875C5.597616011581421,30.020379296875,6.623866011581421,30.108279296875,7.596436011581421,29.864179296875C8.56899601158142,29.620079296875,9.432106011581421,29.057979296875,10.04862601158142,28.267179296875C10.66514601158142,27.476379296875,10.999716011581421,26.502279296875,10.999196011581422,25.499479296875C10.999196011581422,25.499479296875,10.999196011581422,13.779779296875,10.999196011581422,13.779779296875C10.999196011581422,13.779779296875,24.99920601158142,10.279779296874999,24.99920601158142,10.279779296874999C24.99920601158142,10.279779296874999,24.99920601158142,17.761479296875002,24.99920601158142,17.761479296875002C24.16530601158142,17.204679296875,23.16920601158142,16.942379296875,22.16920601158142,17.016479296874998C21.16920601158142,17.090579296875,20.222706011581423,17.496779296874998,19.47990601158142,18.170379296874998C18.73720601158142,18.844079296875,18.24090601158142,19.746579296875,18.06980601158142,20.734679296875C17.89880601158142,21.722679296875,18.062806011581422,22.739579296875,18.53590601158142,23.623679296875C19.00890601158142,24.507779296875,19.76380601158142,25.208479296875,20.68070601158142,25.614479296875C21.59760601158142,26.020379296875,22.623906011581422,26.108279296875,23.596406011581422,25.864179296875C24.569006011581422,25.620079296875,25.43210601158142,25.057979296875,26.04860601158142,24.267179296875C26.665106011581422,23.476379296875,26.99970601158142,22.502279296875,26.99920601158142,21.499479296875C26.99920601158142,21.499479296875,26.99920601158142,3.999509296875,26.99920601158142,3.999509296875C26.99900601158142,3.847570296875,26.96430601158142,3.697663296875,26.89760601158142,3.561129296875C26.831006011581422,3.424595296875,26.73410601158142,3.305010296875,26.61440601158142,3.2114212968749998C26.61440601158142,3.2114212968749998,26.61440601158142,3.2114212968749998,26.61440601158142,3.2114212968749998C26.61440601158142,3.2114212968749998,26.61440601158142,3.2114212968749998,26.61440601158142,3.2114212968749998Z" fill="#FFFFFF" fill-opacity="1"/></g></g></svg>