<svg xmlns="http://www.w3.org/2000/svg" xmlns:xlink="http://www.w3.org/1999/xlink" fill="none" version="1.1" width="12" height="12" viewBox="0 0 12 12"><g><g><path d="M4.548,7.67175C4.548,7.67175,2.7344999999999997,9.48525,2.7344999999999997,9.48525C2.7344999999999997,9.48525,1.5,8.25,1.5,8.25C1.5,8.25,1.5,11.25,1.5,11.25C1.5,11.25,4.5,11.25,4.5,11.25C4.5,11.25,3.2647500000000003,10.0155,3.2647500000000003,10.0155C3.2647500000000003,10.0155,5.078250000000001,8.202,5.078250000000001,8.202C5.078250000000001,8.202,4.548,7.67175,4.548,7.67175C4.548,7.67175,4.548,7.67175,4.548,7.67175ZM8.25,1.5C8.25,1.5,9.48525,2.7352499999999997,9.48525,2.7352499999999997C9.48525,2.7352499999999997,7.67175,4.54875,7.67175,4.54875C7.67175,4.54875,8.202,5.079000000000001,8.202,5.079000000000001C8.202,5.079000000000001,10.0155,3.2655000000000003,10.0155,3.2655000000000003C10.0155,3.2655000000000003,11.25,4.5,11.25,4.5C11.25,4.5,11.25,1.5,11.25,1.5C11.25,1.5,8.25,1.5,8.25,1.5C8.25,1.5,8.25,1.5,8.25,1.5Z" fill="#B3B3B3" fill-opacity="1"/></g></g></svg>