<svg xmlns="http://www.w3.org/2000/svg" xmlns:xlink="http://www.w3.org/1999/xlink" fill="none" version="1.1" width="12" height="12" viewBox="0 0 12 12"><g><g><path d="M9.79154,0.75C9.79154,0.75,9.29837,1.32713,9.29837,1.32713C10.4912,2.4329799999999997,11.2423,4.0078,11.2423,5.7581C11.2423,7.50839,10.4904,9.08321,9.29837,10.18906C9.29837,10.18906,9.79078,10.7662,9.79078,10.7662C10.4868,10.13076,11.0427,9.35726,11.4231,8.495000000000001C11.8034,7.63275,11.9999,6.70069,12,5.75826C12.0001,4.81584,11.8037,3.88374,11.4235,3.02143C11.0432,2.1591199999999997,10.4874,1.3855309999999998,9.79154,0.75C9.79154,0.75,9.79154,0.75,9.79154,0.75C9.79154,0.75,9.79154,0.75,9.79154,0.75ZM8.07301,2.76201C8.07301,2.76201,7.5806,3.33914,7.5806,3.33914C7.90185,3.65488,8.15699,4.03144,8.33113,4.4468499999999995C8.50527,4.86226,8.59493,5.3082,8.59486,5.75863C8.59479,6.20907,8.50499,6.65498,8.33072,7.07033C8.15645,7.48569,7.90119,7.86217,7.57984,8.177800000000001C7.57984,8.177800000000001,8.07225,8.75493,8.07225,8.75493C8.8589,7.99854,9.35132,6.93656,9.35132,5.75885C9.35132,4.5811399999999995,8.85966,3.51841,8.07301,2.76201C8.07301,2.76201,8.07301,2.76201,8.07301,2.76201C8.07301,2.76201,8.07301,2.76201,8.07301,2.76201ZM0,3.48891C0,3.48891,0,8.027280000000001,0,8.027280000000001C0,8.027280000000001,2.12093,8.027280000000001,2.12093,8.027280000000001C2.12093,8.027280000000001,6.05116,10.29647,6.05116,10.29647C6.05116,10.29647,6.05116,1.219722,6.05116,1.219722C6.05116,1.219722,2.12093,3.48891,2.12093,3.48891C2.12093,3.48891,0,3.48891,0,3.48891C0,3.48891,0,3.48891,0,3.48891ZM5.29477,2.5298C5.29477,2.5298,5.29477,8.98639,5.29477,8.98639C5.29477,8.98639,2.32365,7.27089,2.32365,7.27089C2.32365,7.27089,0.756396,7.27089,0.756396,7.27089C0.756396,7.27089,0.756396,4.2453,0.756396,4.2453C0.756396,4.2453,2.32365,4.2453,2.32365,4.2453C2.32365,4.2453,5.29477,2.5298,5.29477,2.5298C5.29477,2.5298,5.29477,2.5298,5.29477,2.5298Z" fill="#B3B3B3" fill-opacity="1"/></g></g></svg>