<svg xmlns="http://www.w3.org/2000/svg" xmlns:xlink="http://www.w3.org/1999/xlink" fill="none" version="1.1" width="14" height="14" viewBox="0 0 14 14"><g><g><path d="M0.875,5.222884510574341C0.875,5.615594510574341,1.306975,5.85502451057434,1.639999,5.64688451057434C1.639999,5.64688451057434,3.6966,4.36150451057434,3.6966,4.36150451057434C4.00994,4.165674510574341,4.00994,3.7093345105743407,3.6966,3.5135045105743408C3.6966,3.5135045105743408,1.6400000000000001,2.228124910574341,1.6400000000000001,2.228124910574341C1.3069760000000001,2.019984510574341,0.875,2.2594055105743407,0.875,2.6521235105743406C0.875,2.6521235105743406,0.875,5.222884510574341,0.875,5.222884510574341C0.875,5.222884510574341,0.875,5.222884510574341,0.875,5.222884510574341ZM7,4.812454510574341L7,4.812454510574341Q7,4.769364510574341,7.00841,4.727104510574341Q7.01681,4.684844510574341,7.0333,4.645034510574341Q7.04979,4.605224510574341,7.07373,4.569394510574341Q7.09767,4.53356451057434,7.12814,4.503094510574341Q7.15861,4.472624510574341,7.19444,4.44868451057434Q7.23027,4.42475451057434,7.27008,4.408264510574341Q7.30989,4.391774510574341,7.35215,4.38336451057434Q7.39441,4.374954510574341,7.4375,4.374954510574341L12.6875,4.374954510574341Q12.7306,4.374954510574341,12.7729,4.38336451057434Q12.8151,4.391774510574341,12.8549,4.408264510574341Q12.8947,4.42475451057434,12.9306,4.44868451057434Q12.9664,4.472624510574341,12.9969,4.503094510574341Q13.0273,4.53356451057434,13.0513,4.569394510574341Q13.0752,4.605224510574341,13.0917,4.645034510574341Q13.1082,4.684844510574341,13.1166,4.727104510574341Q13.125,4.769364510574341,13.125,4.812454510574341L13.125,4.812454510574341Q13.125,4.85554451057434,13.1166,4.897804510574341Q13.1082,4.940074510574341,13.0917,4.97988451057434Q13.0752,5.019694510574341,13.0513,5.055514510574341Q13.0273,5.091344510574341,12.9969,5.121814510574341Q12.9664,5.152284510574341,12.9306,5.176224510574341Q12.8947,5.200164510574341,12.8549,5.21665451057434Q12.8151,5.233144510574341,12.7729,5.241554510574341Q12.7306,5.249954510574341,12.6875,5.249954510574341L7.4375,5.249954510574341Q7.39441,5.249954510574341,7.35215,5.241554510574341Q7.30988,5.233144510574341,7.27007,5.21665451057434Q7.23026,5.200164510574341,7.19444,5.176224510574341Q7.15861,5.152284510574341,7.12814,5.121814510574341Q7.09767,5.091344510574341,7.07373,5.055514510574341Q7.04979,5.019694510574341,7.0333,4.97988451057434Q7.01681,4.940074510574341,7.00841,4.897804510574341Q7,4.85554451057434,7,4.812454510574341ZM0.875,8.31245451057434L0.875,8.31245451057434Q0.875,8.269364510574341,0.88340643,8.22710451057434Q0.8918129,8.18484451057434,0.9083027,8.145034510574341Q0.9247925,8.105224510574342,0.948732,8.069394510574341Q0.9726715,8.03356451057434,1.003141,8.003094510574341Q1.03361,7.972624510574341,1.0694379999999999,7.948684510574341Q1.105266,7.924744510574341,1.145076,7.908264510574341Q1.184886,7.891774510574341,1.2271480000000001,7.88336451057434Q1.26941,7.874954510574341,1.3125,7.874954510574341L12.6875,7.874954510574341Q12.7306,7.874954510574341,12.7729,7.88336451057434Q12.8151,7.891774510574341,12.8549,7.9082545105743405Q12.8947,7.924744510574341,12.9306,7.948684510574341Q12.9664,7.972624510574341,12.9969,8.003094510574341Q13.0273,8.03356451057434,13.0513,8.069394510574341Q13.0752,8.105224510574342,13.0917,8.145034510574341Q13.1082,8.18484451057434,13.1166,8.22710451057434Q13.125,8.269364510574341,13.125,8.31245451057434L13.125,8.31245451057434Q13.125,8.35554451057434,13.1166,8.39780451057434Q13.1082,8.440074510574341,13.0917,8.47988451057434Q13.0752,8.51969451057434,13.0513,8.55551451057434Q13.0273,8.591344510574341,12.9969,8.62181451057434Q12.9664,8.65228451057434,12.9306,8.67622451057434Q12.8947,8.700164510574341,12.8549,8.71665451057434Q12.8151,8.733144510574341,12.7729,8.74155451057434Q12.7306,8.74995451057434,12.6875,8.74995451057434L1.3125,8.74995451057434Q1.26941,8.74995451057434,1.2271480000000001,8.74155451057434Q1.184886,8.733144510574341,1.145076,8.71665451057434Q1.105266,8.700164510574341,1.0694379999999999,8.67622451057434Q1.03361,8.65228451057434,1.003141,8.62181451057434Q0.9726715,8.591344510574341,0.948732,8.55551451057434Q0.9247925,8.51969451057434,0.9083027,8.47988451057434Q0.8918129,8.440074510574341,0.88340643,8.39780451057434Q0.875,8.35554451057434,0.875,8.31245451057434ZM0.875,11.81245451057434L0.875,11.81245451057434Q0.875,11.769364510574341,0.88340644,11.72710451057434Q0.8918129,11.68484451057434,0.9083027,11.645034510574341Q0.9247925,11.605224510574342,0.948732,11.569394510574341Q0.9726715,11.53356451057434,1.003141,11.503094510574341Q1.03361,11.472624510574342,1.0694379999999999,11.44868451057434Q1.105266,11.42475451057434,1.145076,11.408254510574341Q1.184886,11.39176451057434,1.2271480000000001,11.38336451057434Q1.26941,11.37495451057434,1.3125,11.37495451057434L12.6875,11.37495451057434Q12.7306,11.37495451057434,12.7729,11.38336451057434Q12.8151,11.39176451057434,12.8549,11.408254510574341Q12.8947,11.42475451057434,12.9306,11.44868451057434Q12.9664,11.472624510574342,12.9969,11.503094510574341Q13.0273,11.53356451057434,13.0513,11.569394510574341Q13.0752,11.605224510574342,13.0917,11.645034510574341Q13.1082,11.68484451057434,13.1166,11.72710451057434Q13.125,11.769364510574341,13.125,11.81245451057434L13.125,11.81245451057434Q13.125,11.85554451057434,13.1166,11.89780451057434Q13.1082,11.940074510574341,13.0917,11.97988451057434Q13.0752,12.019694510574341,13.0513,12.05551451057434Q13.0273,12.091344510574341,12.9969,12.12181451057434Q12.9664,12.15232451057434,12.9306,12.176224510574341Q12.8947,12.20012451057434,12.8549,12.216624510574341Q12.8151,12.23312451057434,12.7729,12.24152451057434Q12.7306,12.24992451057434,12.6875,12.24992451057434L1.3125,12.24992451057434Q1.26941,12.24992451057434,1.2271480000000001,12.24152451057434Q1.184886,12.23312451057434,1.145076,12.216624510574341Q1.105266,12.20012451057434,1.0694379999999999,12.176224510574341Q1.03361,12.15232451057434,1.003141,12.12181451057434Q0.9726715,12.091344510574341,0.948732,12.05551451057434Q0.9247925,12.019694510574341,0.9083027,11.97988451057434Q0.8918129,11.940074510574341,0.88340644,11.89780451057434Q0.875,11.85554451057434,0.875,11.81245451057434Z" fill="#B3B3B3" fill-opacity="1"/></g></g></svg>