<svg xmlns="http://www.w3.org/2000/svg" xmlns:xlink="http://www.w3.org/1999/xlink" fill="none" version="1.1" width="16" height="16" viewBox="0 0 16 16"><g><g><path d="M5.5,4.5C5.5,4.5,10,4.5,10,4.5C10,4.5,10,6,10,6C10,6,13.5,4,13.5,4C13.5,4,10,2,10,2C10,2,10,3.5,10,3.5C10,3.5,5.5,3.5,5.5,3.5C3,3.5,1,5.5,1,8C1,8.6,1.1,9.2,1.4,9.8C1.4,9.8,2.3,9.3,2.3,9.3C2.1,8.9,2,8.5,2,8C2,6.1,3.6,4.5,5.5,4.5C5.5,4.5,5.5,4.5,5.5,4.5ZM14.6,6.2C14.6,6.2,13.7,6.7,13.7,6.7C13.9,7.1,14,7.5,14,8C14,9.9,12.4,11.5,10.5,11.5C10.5,11.5,6,11.5,6,11.5C6,11.5,6,10,6,10C6,10,2.5,12,2.5,12C2.5,12,6,14,6,14C6,14,6,12.5,6,12.5C6,12.5,10.5,12.5,10.5,12.5C13,12.5,15,10.5,15,8C15,7.4,14.9,6.8,14.6,6.2C14.6,6.2,14.6,6.2,14.6,6.2Z" fill="#B3B3B3" fill-opacity="1"/></g></g></svg>