<svg xmlns="http://www.w3.org/2000/svg" xmlns:xlink="http://www.w3.org/1999/xlink" fill="none" version="1.1" width="16" height="16" viewBox="0 0 16 16"><g><g></g><g><path d="M12,7.25C12,9.87335,9.87335,12,7.25,12C7.25,12,7.25,13,7.25,13C10.42565,13,13,10.42565,13,7.25C13,7.25,12,7.25,12,7.25C12,7.25,12,7.25,12,7.25ZM7.25,12C4.62665,12,2.5,9.87335,2.5,7.25C2.5,7.25,1.5,7.25,1.5,7.25C1.5,10.42565,4.07436,13,7.25,13C7.25,13,7.25,12,7.25,12C7.25,12,7.25,12,7.25,12ZM2.5,7.25C2.5,4.62665,4.62665,2.5,7.25,2.5C7.25,2.5,7.25,1.5,7.25,1.5C4.07436,1.5,1.5,4.07436,1.5,7.25C1.5,7.25,2.5,7.25,2.5,7.25C2.5,7.25,2.5,7.25,2.5,7.25ZM7.25,2.5C9.87335,2.5,12,4.62665,12,7.25C12,7.25,13,7.25,13,7.25C13,4.07436,10.42565,1.5,7.25,1.5C7.25,1.5,7.25,2.5,7.25,2.5C7.25,2.5,7.25,2.5,7.25,2.5Z" fill="#FFFFFF" fill-opacity="1"/></g><g><path d="M11.315711203125,10.6089704140625C11.120449203125,10.4137090140625,10.803866203125,10.4137090140625,10.608604203125,10.6089704140625C10.413342803125,10.8042324140625,10.413342803125,11.1208154140625,10.608604203125,11.3160774140625C10.608604203125,11.3160774140625,11.315711203125,10.6089704140625,11.315711203125,10.6089704140625C11.315711203125,10.6089704140625,11.315711203125,10.6089704140625,11.315711203125,10.6089704140625ZM13.646138203125,14.3536144140625C13.841408203124999,14.5488744140625,14.157988203125,14.5488744140625,14.353248203125,14.3536144140625C14.548508203125,14.1583544140625,14.548508203125,13.841774414062499,14.353248203125,13.6465044140625C14.353248203125,13.6465044140625,13.646138203125,14.3536144140625,13.646138203125,14.3536144140625C13.646138203125,14.3536144140625,13.646138203125,14.3536144140625,13.646138203125,14.3536144140625ZM10.608604203125,11.3160774140625C10.608604203125,11.3160774140625,13.646138203125,14.3536144140625,13.646138203125,14.3536144140625C13.646138203125,14.3536144140625,14.353248203125,13.6465044140625,14.353248203125,13.6465044140625C14.353248203125,13.6465044140625,11.315711203125,10.6089704140625,11.315711203125,10.6089704140625C11.315711203125,10.6089704140625,10.608604203125,11.3160774140625,10.608604203125,11.3160774140625C10.608604203125,11.3160774140625,10.608604203125,11.3160774140625,10.608604203125,11.3160774140625Z" fill="#FFFFFF" fill-opacity="1"/></g></g></svg>