<svg xmlns="http://www.w3.org/2000/svg" xmlns:xlink="http://www.w3.org/1999/xlink" fill="none" version="1.1" width="16" height="16" viewBox="0 0 16 16"><g><g><path d="M4.45205,6.62727C4.45205,6.62727,5.12329,5.86364,5.12329,5.86364C4.068490000000001,4.62273,2.53425,3.954545,1,3.954545C1,3.954545,1,4.90909,1,4.90909C2.24658,4.90909,3.49315,5.48182,4.35616,6.4363600000000005C4.35616,6.4363600000000005,4.45205,6.62727,4.45205,6.62727C4.45205,6.62727,4.45205,6.62727,4.45205,6.62727ZM11.6438,11.11364C10.49315,11.11364,9.43836,10.63636,8.57534,9.87273C8.57534,9.87273,8,10.63636,8,10.63636C8.9589,11.59091,10.30137,12.06818,11.6438,12.06818C11.6438,12.06818,11.6438,13.5,11.6438,13.5C11.6438,13.5,15,11.59091,15,11.59091C15,11.59091,11.6438,9.68182,11.6438,9.68182C11.6438,9.68182,11.6438,11.11364,11.6438,11.11364C11.6438,11.11364,11.6438,11.11364,11.6438,11.11364ZM11.6438,5.38636C11.6438,5.38636,11.6438,6.81818,11.6438,6.81818C11.6438,6.81818,15,4.90909,15,4.90909C15,4.90909,11.6438,3,11.6438,3C11.6438,3,11.6438,4.43182,11.6438,4.43182C10.10959,4.43182,8.57534,5.1,7.61644,6.34091C7.61644,6.34091,4.35616,10.06364,4.35616,10.06364C3.49315,11.01818,2.24658,11.59091,1,11.59091C1,11.59091,1,12.54545,1,12.54545C2.53425,12.54545,4.068490000000001,11.87727,5.0274,10.63636C5.0274,10.63636,8.28767,6.91364,8.28767,6.91364C9.15068,5.95909,10.39726,5.38636,11.6438,5.38636C11.6438,5.38636,11.6438,5.38636,11.6438,5.38636Z" fill="#1DB954" fill-opacity="1"/></g></g></svg>