<svg xmlns="http://www.w3.org/2000/svg" xmlns:xlink="http://www.w3.org/1999/xlink" fill="none" version="1.1" width="16" height="16" viewBox="0 0 16 16"><g><g></g><g><path d="M13.5,8C13.5,11.03755,11.03755,13.5,8,13.5C8,13.5,8,14.5,8,14.5C11.5899,14.5,14.5,11.5899,14.5,8C14.5,8,13.5,8,13.5,8C13.5,8,13.5,8,13.5,8ZM8,13.5C4.96244,13.5,2.5,11.03755,2.5,8C2.5,8,1.5,8,1.5,8C1.5,11.5899,4.41015,14.5,8,14.5C8,14.5,8,13.5,8,13.5C8,13.5,8,13.5,8,13.5ZM2.5,8C2.5,4.96244,4.96244,2.5,8,2.5C8,2.5,8,1.5,8,1.5C4.41015,1.5,1.5,4.41015,1.5,8C1.5,8,2.5,8,2.5,8C2.5,8,2.5,8,2.5,8ZM8,2.5C11.03755,2.5,13.5,4.96244,13.5,8C13.5,8,14.5,8,14.5,8C14.5,4.41015,11.5899,1.5,8,1.5C8,1.5,8,2.5,8,2.5C8,2.5,8,2.5,8,2.5Z" fill="#777777" fill-opacity="1"/></g><g><path d="M8.5,4.5C8.5,4.223858,8.276142,4,8,4C7.723858,4,7.5,4.223858,7.5,4.5C7.5,4.5,8.5,4.5,8.5,4.5C8.5,4.5,8.5,4.5,8.5,4.5ZM8,8C8,8,7.5,8,7.5,8C7.5,8.27614,7.723858,8.5,8,8.5C8,8.5,8,8,8,8C8,8,8,8,8,8ZM11.5,8.5C11.77614,8.5,12,8.27614,12,8C12,7.72386,11.77614,7.5,11.5,7.5C11.5,7.5,11.5,8.5,11.5,8.5C11.5,8.5,11.5,8.5,11.5,8.5ZM7.5,4.5C7.5,4.5,7.5,8,7.5,8C7.5,8,8.5,8,8.5,8C8.5,8,8.5,4.5,8.5,4.5C8.5,4.5,7.5,4.5,7.5,4.5C7.5,4.5,7.5,4.5,7.5,4.5ZM8,8.5C8,8.5,11.5,8.5,11.5,8.5C11.5,8.5,11.5,7.5,11.5,7.5C11.5,7.5,8,7.5,8,7.5C8,7.5,8,8.5,8,8.5C8,8.5,8,8.5,8,8.5Z" fill="#777777" fill-opacity="1"/></g></g></svg>